SplineFontDB: 3.0
FontName: Buenard-Bold
FullName: Buenard Bold
FamilyName: Buenard
Weight: Bold
Copyright: Copyright (c) 2011, FontFuror (info@fontfuror.com), with Reserved Font Names "Buenard" and "Buenard Pro".
Version: 1.001
ItalicAngle: 0
UnderlinePosition: -50
UnderlineWidth: 50
Ascent: 800
Descent: 200
sfntRevision: 0x00010042
LayerCount: 2
Layer: 0 1 "Back"  1
Layer: 1 1 "Fore"  0
XUID: [1021 961 1228605216 16299693]
FSType: 0
OS2Version: 2
OS2_WeightWidthSlopeOnly: 0
OS2_UseTypoMetrics: 1
CreationTime: 1324165727
ModificationTime: 1324195129
PfmFamily: 17
TTFWeight: 700
TTFWidth: 5
LineGap: 0
VLineGap: 0
Panose: 2 0 0 0 0 0 0 0 0 0
OS2TypoAscent: 56
OS2TypoAOffset: 1
OS2TypoDescent: -60
OS2TypoDOffset: 1
OS2TypoLinegap: 0
OS2WinAscent: 0
OS2WinAOffset: 1
OS2WinDescent: 0
OS2WinDOffset: 1
HheadAscent: 0
HheadAOffset: 1
HheadDescent: 0
HheadDOffset: 1
OS2SubXSize: 700
OS2SubYSize: 650
OS2SubXOff: 0
OS2SubYOff: 140
OS2SupXSize: 700
OS2SupYSize: 650
OS2SupXOff: 0
OS2SupYOff: 477
OS2StrikeYSize: 50
OS2StrikeYPos: 250
OS2Vendor: 'PYRS'
OS2CodePages: 00000001.00000000
OS2UnicodeRanges: 00000023.00000000.00000000.00000000
Lookup: 258 0 0 "'kern' Horizontal Kerning lookup 0"  {"'kern' Horizontal Kerning lookup 0 subtable"  } ['kern' ('DFLT' <'dflt' > ) ]
DEI: 91125
TtTable: prep
PUSHW_1
 511
SCANCTRL
PUSHB_1
 4
SCANTYPE
EndTTInstrs
ShortTable: maxp 16
  1
  0
  228
  73
  5
  0
  0
  2
  0
  1
  1
  0
  64
  0
  0
  0
EndShort
LangName: 1033 "" "" "" "GustavoIbarra: Buenard Bold: 2011" "" "Version 1.001" "" "Buenard is a trademark of Gustavo Ibarra." "Gustavo Ibarra" "Gustavo Ibarra" "" "www.fontfuror.com" "www.fontfuror.com" "This Font Software is licensed under the SIL Open Font License, Version 1.1. This license is available with a FAQ at: http://scripts.sil.org/OFL" "http://scripts.sil.org/OFL" 
GaspTable: 1 65535 15 1
Encoding: UnicodeBmp
UnicodeInterp: none
NameList: Adobe Glyph List
DisplaySize: -24
AntiAlias: 1
FitToEm: 1
BeginChars: 65544 228

StartChar: exclam
Encoding: 33 33 4
Width: 271
GlyphClass: 2
Flags: W
LayerCount: 2
Fore
SplineSet
65 660 m 1,0,-1
 78 676 l 1,1,2
 101 676 101 676 148.5 670 c 128,-1,3
 196 664 196 664 209 658 c 1,4,5
 188 415 188 415 168 206 c 1,6,-1
 114 193 l 1,7,-1
 97 205 l 1,8,-1
 90 358 l 1,9,-1
 65 660 l 1,0,-1
52 58 m 128,-1,11
 52 91 52 91 75 111.5 c 128,-1,12
 98 132 98 132 135 132 c 128,-1,13
 172 132 172 132 195.5 111.5 c 128,-1,14
 219 91 219 91 219 58 c 128,-1,15
 219 25 219 25 195.5 4.5 c 128,-1,16
 172 -16 172 -16 135 -16 c 128,-1,17
 98 -16 98 -16 75 4.5 c 128,-1,10
 52 25 52 25 52 58 c 128,-1,11
EndSplineSet
EndChar

StartChar: quotedbl
Encoding: 34 34 5
Width: 366
GlyphClass: 2
Flags: W
LayerCount: 2
Fore
SplineSet
213 717 m 1,0,-1
 237 728 l 1,1,2
 256 728 256 728 287 722.5 c 128,-1,3
 318 717 318 717 331 711 c 1,4,5
 331 655 331 655 293 477 c 1,6,-1
 244 467 l 1,7,-1
 228 479 l 1,8,-1
 213 717 l 1,0,-1
35 717 m 1,9,-1
 59 728 l 1,10,11
 78 728 78 728 109 722.5 c 128,-1,12
 140 717 140 717 153 711 c 1,13,14
 153 655 153 655 115 477 c 1,15,-1
 66 467 l 1,16,-1
 50 479 l 1,17,-1
 35 717 l 1,9,-1
EndSplineSet
EndChar

StartChar: numbersign
Encoding: 35 35 6
Width: 577
GlyphClass: 2
Flags: W
LayerCount: 2
Fore
SplineSet
293 0 m 1,0,-1
 317 169 l 1,1,-1
 218 169 l 1,2,-1
 194 0 l 1,3,-1
 126 0 l 1,4,-1
 150 169 l 1,5,-1
 42 169 l 1,6,-1
 56 243 l 1,7,-1
 161 243 l 1,8,9
 163 259 163 259 170 303 c 128,-1,10
 177 347 177 347 180 372 c 1,11,-1
 71 372 l 1,12,-1
 84 446 l 1,13,-1
 191 446 l 1,14,-1
 213 603 l 1,15,-1
 282 603 l 1,16,-1
 259 446 l 1,17,-1
 357 446 l 1,18,-1
 380 603 l 1,19,-1
 449 603 l 1,20,-1
 426 446 l 1,21,-1
 535 446 l 1,22,-1
 521 372 l 1,23,-1
 416 372 l 1,24,25
 412 349 412 349 406 306 c 128,-1,26
 400 263 400 263 397 243 c 1,27,-1
 506 243 l 1,28,-1
 492 169 l 1,29,-1
 387 169 l 1,30,-1
 362 0 l 1,31,-1
 293 0 l 1,0,-1
248 372 m 1,32,-1
 229 243 l 1,33,-1
 328 243 l 1,34,35
 334 274 334 274 347 372 c 1,36,-1
 248 372 l 1,32,-1
EndSplineSet
EndChar

StartChar: dollar
Encoding: 36 36 7
Width: 544
GlyphClass: 2
Flags: W
LayerCount: 2
Fore
SplineSet
77 57 m 1,0,1
 74 85 74 85 74 124 c 128,-1,2
 74 163 74 163 81 217 c 1,3,-1
 131 227 l 1,4,5
 141 96 141 96 239 80 c 1,6,-1
 248 265 l 1,7,8
 141 323 141 323 116 353 c 0,9,10
 81 394 81 394 81 442 c 0,11,12
 81 513 81 513 131.5 551.5 c 128,-1,13
 182 590 182 590 263 594 c 1,14,-1
 268 685 l 1,15,-1
 316 690 l 1,16,-1
 311 593 l 1,17,18
 345 590 345 590 450 566 c 1,19,20
 443 491 443 491 427 417 c 1,21,-1
 380 413 l 1,22,23
 374 493 374 493 364 515 c 1,24,25
 345 530 345 530 309 536 c 1,26,-1
 301 380 l 1,27,28
 348 361 348 361 387.5 333 c 128,-1,29
 427 305 427 305 440 289 c 0,30,31
 475 248 475 248 475 200 c 0,32,33
 475 123 475 123 422.5 77.5 c 128,-1,34
 370 32 370 32 285 24 c 1,35,-1
 281 -57 l 1,36,-1
 233 -61 l 1,37,-1
 237 23 l 1,38,39
 156 27 156 27 77 57 c 1,0,1
349 167 m 0,40,41
 349 204 349 204 295 239 c 1,42,-1
 287 81 l 1,43,44
 349 96 349 96 349 167 c 0,40,41
200 469 m 0,45,46
 200 437 200 437 254 405 c 1,47,-1
 261 538 l 1,48,49
 200 530 200 530 200 469 c 0,45,46
EndSplineSet
EndChar

StartChar: percent
Encoding: 37 37 8
Width: 806
GlyphClass: 2
Flags: W
LayerCount: 2
Fore
SplineSet
179 -16 m 1,0,-1
 549 610 l 1,1,-1
 627 610 l 1,2,-1
 257 -16 l 1,3,-1
 179 -16 l 1,0,-1
323 567.5 m 128,-1,5
 367 525 367 525 367 455 c 128,-1,6
 367 385 367 385 322.5 340.5 c 128,-1,7
 278 296 278 296 208 296 c 128,-1,8
 138 296 138 296 94 339 c 128,-1,9
 50 382 50 382 50 452 c 128,-1,10
 50 522 50 522 94.5 566 c 128,-1,11
 139 610 139 610 209 610 c 128,-1,4
 279 610 279 610 323 567.5 c 128,-1,5
256.5 370 m 128,-1,13
 276 398 276 398 276 453.5 c 128,-1,14
 276 509 276 509 256.5 536.5 c 128,-1,15
 237 564 237 564 209 564 c 128,-1,16
 181 564 181 564 161 536.5 c 128,-1,17
 141 509 141 509 141 453.5 c 128,-1,18
 141 398 141 398 161 370 c 128,-1,19
 181 342 181 342 209 342 c 128,-1,12
 237 342 237 342 256.5 370 c 128,-1,13
712 255.5 m 128,-1,21
 756 213 756 213 756 143 c 128,-1,22
 756 73 756 73 711.5 28.5 c 128,-1,23
 667 -16 667 -16 597 -16 c 128,-1,24
 527 -16 527 -16 483 27 c 128,-1,25
 439 70 439 70 439 140 c 128,-1,26
 439 210 439 210 483.5 254 c 128,-1,27
 528 298 528 298 598 298 c 128,-1,20
 668 298 668 298 712 255.5 c 128,-1,21
645.5 58 m 128,-1,29
 665 86 665 86 665 141.5 c 128,-1,30
 665 197 665 197 645.5 224.5 c 128,-1,31
 626 252 626 252 598 252 c 128,-1,32
 570 252 570 252 550 224.5 c 128,-1,33
 530 197 530 197 530 141 c 128,-1,34
 530 85 530 85 550 57.5 c 128,-1,35
 570 30 570 30 598 30 c 128,-1,28
 626 30 626 30 645.5 58 c 128,-1,29
EndSplineSet
EndChar

StartChar: ampersand
Encoding: 38 38 9
Width: 642
GlyphClass: 2
Flags: W
LayerCount: 2
Fore
SplineSet
482 -7 m 2,0,1
 468 -7 468 -7 418 41 c 1,2,3
 348 -16 348 -16 267 -16 c 0,4,5
 166 -16 166 -16 100.5 25 c 128,-1,6
 35 66 35 66 35 147 c 0,7,8
 35 262 35 262 165 315 c 1,9,10
 127 359 127 359 115 387.5 c 128,-1,11
 103 416 103 416 103 462 c 0,12,13
 103 524 103 524 154 567 c 128,-1,14
 205 610 205 610 273 610 c 128,-1,15
 341 610 341 610 390 574.5 c 128,-1,16
 439 539 439 539 439 483 c 128,-1,17
 439 427 439 427 396.5 385 c 128,-1,18
 354 343 354 343 299 330 c 1,19,-1
 315 313 l 1,20,21
 391 227 391 227 456 160 c 1,22,23
 474 190 474 190 474 227 c 128,-1,24
 474 264 474 264 444 321 c 1,25,-1
 477 342 l 1,26,27
 545 286 545 286 578 243 c 1,28,29
 556 204 556 204 492 123 c 1,30,31
 550 67 550 67 575.5 48.5 c 128,-1,32
 601 30 601 30 654 30 c 1,33,-1
 647 -7 l 1,34,-1
 482 -7 l 2,0,1
201 275 m 1,35,36
 164 231 164 231 164 171.5 c 128,-1,37
 164 112 164 112 195.5 75 c 128,-1,38
 227 38 227 38 277 38 c 128,-1,39
 327 38 327 38 381 78 c 1,40,41
 331 130 331 130 201 275 c 1,35,36
217 488 m 0,42,43
 217 435 217 435 270 366 c 1,44,45
 291 378 291 378 307 408.5 c 128,-1,46
 323 439 323 439 323 475 c 128,-1,47
 323 511 323 511 306.5 534 c 128,-1,48
 290 557 290 557 266.5 557 c 128,-1,49
 243 557 243 557 230 537.5 c 128,-1,50
 217 518 217 518 217 488 c 0,42,43
EndSplineSet
EndChar

StartChar: quotesingle
Encoding: 39 39 10
Width: 182
GlyphClass: 2
Flags: W
LayerCount: 2
Fore
SplineSet
50 717 m 1,0,-1
 64 728 l 1,1,2
 80 728 80 728 104 722.5 c 128,-1,3
 128 717 128 717 138 711 c 1,4,5
 138 660 138 660 99 477 c 1,6,-1
 71 472 l 1,7,-1
 61 479 l 1,8,-1
 50 717 l 1,0,-1
EndSplineSet
EndChar

StartChar: parenleft
Encoding: 40 40 11
Width: 329
GlyphClass: 2
Flags: W
LayerCount: 2
Fore
SplineSet
218 476 m 128,-1,1
 194 383 194 383 194 248.5 c 128,-1,2
 194 114 194 114 219.5 19.5 c 128,-1,3
 245 -75 245 -75 305 -145 c 1,4,-1
 277 -170 l 1,5,6
 180 -105 180 -105 122.5 5.5 c 128,-1,7
 65 116 65 116 65 249 c 128,-1,8
 65 382 65 382 122.5 492 c 128,-1,9
 180 602 180 602 277 666 c 1,10,-1
 302 638 l 1,11,0
 242 569 242 569 218 476 c 128,-1,1
EndSplineSet
EndChar

StartChar: parenright
Encoding: 41 41 12
Width: 329
GlyphClass: 2
Flags: W
LayerCount: 2
Fore
SplineSet
206.5 492 m 128,-1,1
 264 382 264 382 264 249 c 128,-1,2
 264 116 264 116 206.5 5.5 c 128,-1,3
 149 -105 149 -105 52 -170 c 1,4,-1
 24 -145 l 1,5,6
 84 -75 84 -75 109.5 19.5 c 128,-1,7
 135 114 135 114 135 248.5 c 128,-1,8
 135 383 135 383 111 476 c 128,-1,9
 87 569 87 569 27 638 c 1,10,-1
 52 666 l 1,11,0
 149 602 149 602 206.5 492 c 128,-1,1
EndSplineSet
EndChar

StartChar: asterisk
Encoding: 42 42 13
Width: 455
GlyphClass: 2
Flags: W
LayerCount: 2
Fore
SplineSet
399 619 m 1,0,1
 413 578 413 578 413 561 c 128,-1,2
 413 544 413 544 412 538 c 1,3,4
 387 530 387 530 288 516 c 1,5,-1
 368 420 l 1,6,-1
 356 401 l 1,7,8
 342 390 342 390 318.5 377.5 c 128,-1,9
 295 365 295 365 283 364 c 1,10,11
 264 390 264 390 224 476 c 1,12,-1
 157 370 l 1,13,-1
 135 375 l 1,14,15
 121 385 121 385 102 404 c 128,-1,16
 83 423 83 423 78 433 c 1,17,18
 92 454 92 454 166 524 c 1,19,-1
 44 555 l 1,20,-1
 42 577 l 1,21,22
 47 593 47 593 59 617 c 128,-1,23
 71 641 71 641 80 649 c 1,24,25
 111 638 111 638 194 593 c 1,26,-1
 186 719 l 1,27,-1
 206 728 l 1,28,29
 253 728 253 728 286 714 c 1,30,31
 286 686 286 686 269 590 c 1,32,-1
 385 636 l 1,33,-1
 399 619 l 1,0,1
EndSplineSet
EndChar

StartChar: plus
Encoding: 43 43 14
Width: 464
GlyphClass: 2
Flags: W
LayerCount: 2
Fore
SplineSet
272 421 m 1,0,-1
 272 257 l 1,1,-1
 421 257 l 1,2,-1
 421 181 l 1,3,-1
 272 181 l 1,4,-1
 272 15 l 1,5,-1
 192 15 l 1,6,-1
 192 181 l 1,7,-1
 43 181 l 1,8,-1
 43 257 l 1,9,-1
 192 257 l 1,10,-1
 192 421 l 1,11,-1
 272 421 l 1,0,-1
EndSplineSet
EndChar

StartChar: comma
Encoding: 44 44 15
Width: 255
GlyphClass: 2
Flags: W
LayerCount: 2
Fore
SplineSet
182 92 m 128,-1,1
 215 67 215 67 215 28.5 c 128,-1,2
 215 -10 215 -10 167.5 -76 c 128,-1,3
 120 -142 120 -142 75 -182 c 1,4,-1
 45 -158 l 1,5,6
 112 -57 112 -57 112 -10 c 0,7,8
 112 12 112 12 49 17 c 1,9,-1
 35 48 l 1,10,11
 47 65 47 65 71.5 87.5 c 128,-1,12
 96 110 96 110 114 120 c 1,13,0
 149 117 149 117 182 92 c 128,-1,1
EndSplineSet
EndChar

StartChar: hyphen
Encoding: 45 45 16
Width: 315
GlyphClass: 2
Flags: W
LayerCount: 2
Fore
SplineSet
33 185 m 1,0,-1
 48 274 l 1,1,-1
 282 274 l 1,2,-1
 268 185 l 1,3,-1
 33 185 l 1,0,-1
EndSplineSet
EndChar

StartChar: period
Encoding: 46 46 17
Width: 247
GlyphClass: 2
Flags: W
LayerCount: 2
Fore
SplineSet
40 58 m 128,-1,1
 40 91 40 91 63 111.5 c 128,-1,2
 86 132 86 132 123 132 c 128,-1,3
 160 132 160 132 183.5 111.5 c 128,-1,4
 207 91 207 91 207 58 c 128,-1,5
 207 25 207 25 183.5 4.5 c 128,-1,6
 160 -16 160 -16 123 -16 c 128,-1,7
 86 -16 86 -16 63 4.5 c 128,-1,0
 40 25 40 25 40 58 c 128,-1,1
EndSplineSet
EndChar

StartChar: slash
Encoding: 47 47 18
Width: 441
GlyphClass: 2
Flags: W
LayerCount: 2
Fore
SplineSet
27 -131 m 1,0,-1
 340 667 l 1,1,-1
 414 628 l 1,2,-1
 101 -170 l 1,3,-1
 27 -131 l 1,0,-1
EndSplineSet
EndChar

StartChar: zero
Encoding: 48 48 19
Width: 561
GlyphClass: 2
Flags: W
LayerCount: 2
Fore
SplineSet
462.5 383.5 m 128,-1,1
 532 322 532 322 532 220 c 128,-1,2
 532 118 532 118 461.5 52 c 128,-1,3
 391 -14 391 -14 279.5 -14 c 128,-1,4
 168 -14 168 -14 98.5 49.5 c 128,-1,5
 29 113 29 113 29 215 c 128,-1,6
 29 317 29 317 99.5 381 c 128,-1,7
 170 445 170 445 281.5 445 c 128,-1,0
 393 445 393 445 462.5 383.5 c 128,-1,1
364 88.5 m 128,-1,9
 398 133 398 133 398 217.5 c 128,-1,10
 398 302 398 302 364 344.5 c 128,-1,11
 330 387 330 387 281 387 c 128,-1,12
 232 387 232 387 197.5 344.5 c 128,-1,13
 163 302 163 302 163 217.5 c 128,-1,14
 163 133 163 133 197.5 88.5 c 128,-1,15
 232 44 232 44 281 44 c 128,-1,8
 330 44 330 44 364 88.5 c 128,-1,9
EndSplineSet
EndChar

StartChar: one
Encoding: 49 49 20
Width: 323
GlyphClass: 2
Flags: W
LayerCount: 2
Fore
SplineSet
228 81 m 2,0,1
 228 59 228 59 246 49 c 0,2,3
 262 41 262 41 310 29 c 1,4,-1
 302 -8 l 1,5,6
 236 0 236 0 165 0 c 128,-1,7
 94 0 94 0 28 -8 c 1,8,-1
 20 29 l 1,9,10
 68 39 68 39 87 49 c 128,-1,11
 106 59 106 59 106 81 c 2,12,-1
 106 327 l 2,13,14
 106 347 106 347 98.5 355 c 128,-1,15
 91 363 91 363 72 363 c 2,16,-1
 25 363 l 1,17,-1
 19 397 l 1,18,19
 49 408 49 408 110.5 423.5 c 128,-1,20
 172 439 172 439 207 445 c 1,21,-1
 228 424 l 1,22,-1
 228 81 l 2,0,1
EndSplineSet
EndChar

StartChar: two
Encoding: 50 50 21
Width: 439
GlyphClass: 2
Flags: W
LayerCount: 2
Fore
SplineSet
121 375 m 1,0,1
 111 355 111 355 111 320 c 128,-1,2
 111 285 111 285 112 275 c 1,3,-1
 61 267 l 1,4,5
 53 286 53 286 42.5 332 c 128,-1,6
 32 378 32 378 30 400 c 1,7,8
 135 445 135 445 204 445 c 128,-1,9
 273 445 273 445 322 414 c 128,-1,10
 371 383 371 383 371 324 c 128,-1,11
 371 265 371 265 344 228 c 128,-1,12
 317 191 317 191 262 148 c 0,13,14
 245 134 245 134 157 81 c 1,15,-1
 161 72 l 1,16,-1
 317 72 l 1,17,18
 327 81 327 81 344.5 109.5 c 128,-1,19
 362 138 362 138 366 153 c 1,20,-1
 408 146 l 1,21,22
 407 130 407 130 398.5 74.5 c 128,-1,23
 390 19 390 19 386 0 c 1,24,-1
 31 0 l 1,25,-1
 25 52 l 1,26,27
 126 128 126 128 169 172 c 0,28,29
 239 245 239 245 239 311 c 0,30,31
 239 347 239 347 225 368.5 c 128,-1,32
 211 390 211 390 178 390 c 128,-1,33
 145 390 145 390 121 375 c 1,0,1
EndSplineSet
EndChar

StartChar: three
Encoding: 51 51 22
Width: 425
GlyphClass: 2
Flags: W
LayerCount: 2
Fore
SplineSet
242 305 m 0,0,1
 242 390 242 390 181 390 c 0,2,3
 136 390 136 390 112 379 c 1,4,5
 103 355 103 355 103 323.5 c 128,-1,6
 103 292 103 292 105 280 c 1,7,-1
 58 272 l 1,8,9
 50 289 50 289 40 335.5 c 128,-1,10
 30 382 30 382 27 405 c 1,11,12
 135 445 135 445 204 445 c 128,-1,13
 273 445 273 445 320.5 414.5 c 128,-1,14
 368 384 368 384 368 327.5 c 128,-1,15
 368 271 368 271 328 233 c 128,-1,16
 288 195 288 195 235 179 c 1,17,-1
 235 170 l 1,18,19
 301 170 301 170 349.5 130 c 128,-1,20
 398 90 398 90 398 13 c 128,-1,21
 398 -64 398 -64 334 -117 c 128,-1,22
 270 -170 270 -170 185.5 -170 c 128,-1,23
 101 -170 101 -170 8 -139 c 1,24,25
 12 -89 12 -89 42 6 c 1,26,-1
 89 -2 l 1,27,28
 89 -83 89 -83 93 -100 c 1,29,30
 125 -115 125 -115 167.5 -115 c 128,-1,31
 210 -115 210 -115 238 -82.5 c 128,-1,32
 266 -50 266 -50 266 0 c 0,33,34
 266 74 266 74 227 99.5 c 128,-1,35
 188 125 188 125 116 125 c 1,36,-1
 118 169 l 1,37,38
 164 180 164 180 203 217.5 c 128,-1,39
 242 255 242 255 242 305 c 0,0,1
EndSplineSet
EndChar

StartChar: four
Encoding: 52 52 23
Width: 460
GlyphClass: 2
Flags: W
LayerCount: 2
Fore
SplineSet
370 0 m 1,0,-1
 370 -75 l 2,1,2
 370 -97 370 -97 388 -108 c 0,3,4
 406 -118 406 -118 432 -127 c 1,5,-1
 424 -164 l 1,6,7
 364 -156 364 -156 321.5 -156 c 128,-1,8
 279 -156 279 -156 172 -164 c 1,9,-1
 164 -127 l 1,10,11
 212 -117 212 -117 231 -107 c 128,-1,12
 250 -97 250 -97 250 -75 c 2,13,-1
 250 0 l 1,14,-1
 36 0 l 1,15,-1
 5 47 l 1,16,-1
 267 432 l 1,17,-1
 370 432 l 1,18,-1
 370 67 l 1,19,-1
 447 67 l 1,20,-1
 429 0 l 1,21,-1
 370 0 l 1,0,-1
250 67 m 1,22,-1
 250 316 l 1,23,-1
 246 317 l 1,24,-1
 237 294 l 1,25,-1
 90 76 l 1,26,-1
 95 67 l 1,27,-1
 250 67 l 1,22,-1
EndSplineSet
EndChar

StartChar: five
Encoding: 53 53 24
Width: 405
GlyphClass: 2
Flags: W
LayerCount: 2
Fore
SplineSet
207 208 m 0,0,1
 271 208 271 208 319 176 c 0,2,3
 386 131 386 131 386 27 c 0,4,5
 386 -58 386 -58 324.5 -114 c 128,-1,6
 263 -170 263 -170 174 -170 c 0,7,8
 109 -170 109 -170 -3 -139 c 1,9,10
 -1 -118 -1 -118 11 -65 c 128,-1,11
 23 -12 23 -12 31 9 c 1,12,-1
 80 1 l 1,13,14
 78 -30 78 -30 78 -57 c 128,-1,15
 78 -84 78 -84 82 -99 c 1,16,17
 123 -115 123 -115 163.5 -115 c 128,-1,18
 204 -115 204 -115 229.5 -79 c 128,-1,19
 255 -43 255 -43 255 11 c 0,20,21
 255 144 255 144 129 144 c 0,22,23
 107 144 107 144 81 140 c 1,24,-1
 48 180 l 1,25,-1
 91 431 l 1,26,-1
 284 442 l 2,27,28
 340 446 340 446 366 459 c 1,29,-1
 378 444 l 1,30,31
 377 434 377 434 367 403 c 128,-1,32
 357 372 357 372 351 361 c 1,33,-1
 168 361 l 1,34,-1
 147 210 l 1,35,-1
 153 203 l 1,36,37
 181 208 181 208 207 208 c 0,0,1
EndSplineSet
EndChar

StartChar: six
Encoding: 54 54 25
Width: 475
GlyphClass: 2
Flags: W
LayerCount: 2
Fore
SplineSet
182 314 m 1,0,1
 221 364 221 364 264 364 c 0,2,3
 351 364 351 364 399.5 315.5 c 128,-1,4
 448 267 448 267 448 182 c 128,-1,5
 448 97 448 97 388 41.5 c 128,-1,6
 328 -14 328 -14 242 -14 c 0,7,8
 139 -14 139 -14 85 53 c 128,-1,9
 31 120 31 120 31 218 c 128,-1,10
 31 316 31 316 61 388.5 c 128,-1,11
 91 461 91 461 141 508 c 0,12,13
 245 604 245 604 384 610 c 1,14,-1
 388 572 l 1,15,16
 278 555 278 555 220.5 468.5 c 128,-1,17
 163 382 163 382 163 230 c 0,18,19
 163 125 163 125 196 70 c 1,20,21
 216 39 216 39 249.5 39 c 128,-1,22
 283 39 283 39 301.5 75 c 128,-1,23
 320 111 320 111 320 169.5 c 128,-1,24
 320 228 320 228 300.5 269 c 128,-1,25
 281 310 281 310 246.5 310 c 128,-1,26
 212 310 212 310 186 293 c 1,27,-1
 182 314 l 1,0,1
EndSplineSet
EndChar

StartChar: seven
Encoding: 55 55 26
Width: 414
GlyphClass: 2
Flags: W
LayerCount: 2
Fore
SplineSet
23 267 m 1,0,1
 19 307 19 307 19 360 c 128,-1,2
 19 413 19 413 22 437 c 1,3,4
 64 429 64 429 126 429 c 2,5,-1
 393 429 l 1,6,-1
 420 393 l 1,7,8
 185 29 185 29 180 -156 c 1,9,10
 131 -170 131 -170 61 -170 c 1,11,-1
 47 -153 l 1,12,13
 59 3 59 3 308 348 c 1,14,-1
 303 355 l 1,15,-1
 92 355 l 1,16,17
 80 330 80 330 71 263 c 1,18,-1
 23 267 l 1,0,1
EndSplineSet
PairPos2: "'kern' Horizontal Kerning lookup 0 subtable" four dx=0 dy=0 dh=0 dv=0 dx=0 dy=0 dh=0 dv=0
EndChar

StartChar: eight
Encoding: 56 56 27
Width: 473
GlyphClass: 2
Flags: W
LayerCount: 2
Fore
SplineSet
30 142 m 0,0,1
 30 193 30 193 64.5 233.5 c 128,-1,2
 99 274 99 274 154 296 c 1,3,4
 107 327 107 327 80.5 363 c 128,-1,5
 54 399 54 399 54 459 c 128,-1,6
 54 519 54 519 109.5 564.5 c 128,-1,7
 165 610 165 610 240.5 610 c 128,-1,8
 316 610 316 610 365.5 575.5 c 128,-1,9
 415 541 415 541 415 477 c 0,10,11
 415 428 415 428 385.5 390 c 128,-1,12
 356 352 356 352 310 331 c 1,13,14
 351 308 351 308 376 289 c 128,-1,15
 401 270 401 270 422 234.5 c 128,-1,16
 443 199 443 199 443 155 c 0,17,18
 443 82 443 82 379 34 c 128,-1,19
 315 -14 315 -14 228.5 -14 c 128,-1,20
 142 -14 142 -14 86 25.5 c 128,-1,21
 30 65 30 65 30 142 c 0,0,1
296.5 65.5 m 128,-1,23
 319 92 319 92 319 124 c 128,-1,24
 319 156 319 156 310 176 c 128,-1,25
 301 196 301 196 279.5 214.5 c 128,-1,26
 258 233 258 233 244 242 c 128,-1,27
 230 251 230 251 197 271 c 1,28,29
 152 223 152 223 152 152 c 0,30,31
 152 102 152 102 174 70.5 c 128,-1,32
 196 39 196 39 235 39 c 128,-1,22
 274 39 274 39 296.5 65.5 c 128,-1,23
188 534 m 128,-1,34
 171 512 171 512 171 474.5 c 128,-1,35
 171 437 171 437 195 409.5 c 128,-1,36
 219 382 219 382 263 357 c 1,37,38
 302 408 302 408 302 459 c 0,39,40
 302 556 302 556 232 556 c 0,41,33
 205 556 205 556 188 534 c 128,-1,34
EndSplineSet
EndChar

StartChar: nine
Encoding: 57 57 28
Width: 477
GlyphClass: 2
Flags: W
LayerCount: 2
Fore
SplineSet
209 72 m 0,0,1
 126 72 126 72 75.5 119.5 c 128,-1,2
 25 167 25 167 25 247 c 128,-1,3
 25 327 25 327 87 386 c 128,-1,4
 149 445 149 445 233 445 c 0,5,6
 337 445 337 445 389.5 375.5 c 128,-1,7
 442 306 442 306 442 194 c 0,8,9
 442 109 442 109 410.5 39 c 128,-1,10
 379 -31 379 -31 326 -75 c 0,11,12
 221 -164 221 -164 80 -170 c 1,13,-1
 77 -133 l 1,14,15
 162 -119 162 -119 222 -63 c 128,-1,16
 282 -7 282 -7 302 95 c 1,17,18
 258 72 258 72 209 72 c 0,0,1
310 197 m 0,19,20
 310 391 310 391 229 391 c 0,21,22
 191 391 191 391 172 355 c 128,-1,23
 153 319 153 319 153 260.5 c 128,-1,24
 153 202 153 202 172.5 163.5 c 128,-1,25
 192 125 192 125 231.5 125 c 128,-1,26
 271 125 271 125 309 149 c 1,27,28
 310 162 310 162 310 197 c 0,19,20
EndSplineSet
EndChar

StartChar: colon
Encoding: 58 58 29
Width: 247
GlyphClass: 2
Flags: W
LayerCount: 2
Fore
SplineSet
40 58 m 128,-1,1
 40 91 40 91 63 111.5 c 128,-1,2
 86 132 86 132 123 132 c 128,-1,3
 160 132 160 132 183.5 111.5 c 128,-1,4
 207 91 207 91 207 58 c 128,-1,5
 207 25 207 25 183.5 4.5 c 128,-1,6
 160 -16 160 -16 123 -16 c 128,-1,7
 86 -16 86 -16 63 4.5 c 128,-1,0
 40 25 40 25 40 58 c 128,-1,1
40 353 m 128,-1,9
 40 386 40 386 63 406.5 c 128,-1,10
 86 427 86 427 123 427 c 128,-1,11
 160 427 160 427 183.5 406.5 c 128,-1,12
 207 386 207 386 207 353 c 128,-1,13
 207 320 207 320 183.5 299.5 c 128,-1,14
 160 279 160 279 123 279 c 128,-1,15
 86 279 86 279 63 299.5 c 128,-1,8
 40 320 40 320 40 353 c 128,-1,9
EndSplineSet
EndChar

StartChar: semicolon
Encoding: 59 59 30
Width: 255
GlyphClass: 2
Flags: W
LayerCount: 2
Fore
SplineSet
40 353 m 128,-1,1
 40 386 40 386 63 406.5 c 128,-1,2
 86 427 86 427 123 427 c 128,-1,3
 160 427 160 427 183.5 406.5 c 128,-1,4
 207 386 207 386 207 353 c 128,-1,5
 207 320 207 320 183.5 299.5 c 128,-1,6
 160 279 160 279 123 279 c 128,-1,7
 86 279 86 279 63 299.5 c 128,-1,0
 40 320 40 320 40 353 c 128,-1,1
182 92 m 128,-1,9
 215 67 215 67 215 28.5 c 128,-1,10
 215 -10 215 -10 167.5 -76 c 128,-1,11
 120 -142 120 -142 75 -182 c 1,12,-1
 45 -158 l 1,13,14
 112 -57 112 -57 112 -10 c 0,15,16
 112 12 112 12 49 17 c 1,17,-1
 35 48 l 1,18,19
 47 65 47 65 71.5 87.5 c 128,-1,20
 96 110 96 110 114 120 c 1,21,8
 149 117 149 117 182 92 c 128,-1,9
EndSplineSet
EndChar

StartChar: less
Encoding: 60 60 31
Width: 478
GlyphClass: 2
Flags: W
LayerCount: 2
Fore
SplineSet
432 -16 m 1,0,-1
 46 182 l 1,1,-1
 46 240 l 1,2,-1
 432 438 l 1,3,-1
 432 355 l 1,4,-1
 142 211 l 1,5,-1
 432 67 l 1,6,-1
 432 -16 l 1,0,-1
EndSplineSet
EndChar

StartChar: equal
Encoding: 61 61 32
Width: 464
GlyphClass: 2
Flags: W
LayerCount: 2
Fore
SplineSet
417 93 m 1,0,-1
 47 93 l 1,1,-1
 47 168 l 1,2,-1
 417 168 l 1,3,-1
 417 93 l 1,0,-1
417 271 m 1,4,-1
 47 271 l 1,5,-1
 47 346 l 1,6,-1
 417 346 l 1,7,-1
 417 271 l 1,4,-1
EndSplineSet
EndChar

StartChar: greater
Encoding: 62 62 33
Width: 478
GlyphClass: 2
Flags: W
LayerCount: 2
Fore
SplineSet
432 182 m 1,0,-1
 46 -16 l 1,1,-1
 46 67 l 1,2,-1
 336 211 l 1,3,-1
 46 355 l 1,4,-1
 46 438 l 1,5,-1
 432 240 l 1,6,-1
 432 182 l 1,0,-1
EndSplineSet
EndChar

StartChar: question
Encoding: 63 63 34
Width: 442
GlyphClass: 2
Flags: W
LayerCount: 2
Fore
SplineSet
217 421 m 0,0,1
 283 487 283 487 283 528 c 128,-1,2
 283 569 283 569 262.5 592 c 128,-1,3
 242 615 242 615 207 615 c 128,-1,4
 172 615 172 615 153.5 588 c 128,-1,5
 135 561 135 561 133 495 c 1,6,-1
 79 484 l 1,7,8
 53 577 53 577 53 619 c 1,9,10
 159 666 159 666 235.5 666 c 128,-1,11
 312 666 312 666 357.5 628.5 c 128,-1,12
 403 591 403 591 403 517 c 0,13,14
 403 488 403 488 384.5 458.5 c 128,-1,15
 366 429 366 429 348 412 c 128,-1,16
 330 395 330 395 297.5 369 c 128,-1,17
 265 343 265 343 252 330 c 0,18,19
 210 292 210 292 210 262 c 1,20,-1
 215 215 l 1,21,-1
 176 182 l 1,22,23
 132 226 132 226 113 279 c 1,24,25
 115 310 115 310 133.5 333 c 128,-1,26
 152 356 152 356 159 364 c 128,-1,27
 166 372 166 372 189.5 394.5 c 128,-1,28
 213 417 213 417 217 421 c 0,0,1
108 58 m 128,-1,30
 108 91 108 91 131 111.5 c 128,-1,31
 154 132 154 132 191 132 c 128,-1,32
 228 132 228 132 251.5 111.5 c 128,-1,33
 275 91 275 91 275 58 c 128,-1,34
 275 25 275 25 251.5 4.5 c 128,-1,35
 228 -16 228 -16 191 -16 c 128,-1,36
 154 -16 154 -16 131 4.5 c 128,-1,29
 108 25 108 25 108 58 c 128,-1,30
EndSplineSet
EndChar

StartChar: at
Encoding: 64 64 35
Width: 879
GlyphClass: 2
Flags: W
LayerCount: 2
Fore
SplineSet
642 342 m 1,0,1
 587 98 587 98 585 90 c 128,-1,2
 583 82 583 82 583 71.5 c 128,-1,3
 583 61 583 61 595.5 61 c 128,-1,4
 608 61 608 61 640 86 c 1,5,6
 695 126 695 126 731.5 178 c 128,-1,7
 768 230 768 230 768 281 c 0,8,9
 768 404 768 404 695 476.5 c 128,-1,10
 622 549 622 549 493 549 c 0,11,12
 337 549 337 549 234 449 c 128,-1,13
 131 349 131 349 131 192 c 128,-1,14
 131 35 131 35 212.5 -53 c 128,-1,15
 294 -141 294 -141 451 -141 c 0,16,17
 493 -141 493 -141 542 -125 c 128,-1,18
 591 -109 591 -109 626 -85 c 1,19,-1
 650 -115 l 1,20,21
 610 -151 610 -151 547 -177.5 c 128,-1,22
 484 -204 484 -204 428 -204 c 0,23,24
 244 -204 244 -204 141 -98 c 128,-1,25
 38 8 38 8 38 188 c 0,26,27
 38 306 38 306 102.5 403.5 c 128,-1,28
 167 501 167 501 274 555.5 c 128,-1,29
 381 610 381 610 504 610 c 0,30,31
 670 610 670 610 767.5 523 c 128,-1,32
 865 436 865 436 865 288 c 0,33,34
 865 238 865 238 795.5 166.5 c 128,-1,35
 726 95 726 95 645 44 c 1,36,37
 554 -16 554 -16 510 -16 c 0,38,39
 477 -16 477 -16 477 24 c 0,40,41
 477 48 477 48 488 89 c 1,42,-1
 502 149 l 1,43,-1
 496 151 l 1,44,45
 416 31 416 31 364 0 c 0,46,47
 339 -16 339 -16 315 -16 c 0,48,49
 228 -16 228 -16 228 84 c 0,50,51
 228 217 228 217 321.5 327 c 128,-1,52
 415 437 415 437 533 437 c 0,53,54
 576 437 576 437 652 423 c 1,55,-1
 668 402 l 1,56,57
 652 373 652 373 642 342 c 1,0,1
549 369 m 1,58,59
 537 377 537 377 489.5 377 c 128,-1,60
 442 377 442 377 403 330 c 128,-1,61
 364 283 364 283 346 222.5 c 128,-1,62
 328 162 328 162 328 108.5 c 128,-1,63
 328 55 328 55 352 55 c 0,64,65
 381 55 381 55 429 111 c 128,-1,66
 477 167 477 167 524 243 c 1,67,68
 531 262 531 262 539 304.5 c 128,-1,69
 547 347 547 347 549 369 c 1,58,59
EndSplineSet
EndChar

StartChar: A
Encoding: 65 65 36
Width: 652
GlyphClass: 2
Flags: W
LayerCount: 2
Fore
SplineSet
148 75 m 0,0,1
 148 57 148 57 173 48 c 2,2,-1
 229 30 l 1,3,-1
 223 -9 l 1,4,5
 158 0 158 0 113 0 c 128,-1,6
 68 0 68 0 -1 -9 c 1,7,-1
 -9 30 l 1,8,9
 36 39 36 39 48 51 c 128,-1,10
 60 63 60 63 77 111 c 2,11,-1
 273 645 l 1,12,13
 320 654 320 654 362 675 c 1,14,-1
 580 111 l 2,15,16
 598 64 598 64 610 51.5 c 128,-1,17
 622 39 622 39 661 30 c 1,18,-1
 654 -9 l 1,19,20
 585 0 585 0 519.5 0 c 128,-1,21
 454 0 454 0 379 -9 c 1,22,-1
 373 30 l 1,23,24
 406 40 406 40 429.5 49 c 128,-1,25
 453 58 453 58 453 75 c 0,26,27
 453 82 453 82 450 89 c 2,28,-1
 399 228 l 1,29,-1
 197 228 l 1,30,-1
 150 89 l 2,31,32
 148 84 148 84 148 75 c 0,0,1
286 485 m 1,33,-1
 219 292 l 1,34,-1
 376 292 l 1,35,-1
 309 478 l 1,36,-1
 298 520 l 1,37,-1
 291 523 l 1,38,-1
 286 485 l 1,33,-1
EndSplineSet
EndChar

StartChar: B
Encoding: 66 66 37
Width: 617
GlyphClass: 2
Flags: W
LayerCount: 2
Fore
SplineSet
94 650 m 1,0,-1
 289 658 l 1,1,2
 536 658 536 658 536 510 c 0,3,4
 536 445 536 445 495 412.5 c 128,-1,5
 454 380 454 380 399 369 c 1,6,-1
 399 362 l 1,7,8
 472 358 472 358 527 315.5 c 128,-1,9
 582 273 582 273 582 184 c 128,-1,10
 582 95 582 95 507 43.5 c 128,-1,11
 432 -8 432 -8 319 -8 c 1,12,-1
 180 0 l 1,13,14
 130 0 130 0 56 -8 c 1,15,-1
 48 30 l 1,16,17
 86 38 86 38 103 47.5 c 128,-1,18
 120 57 120 57 120 79 c 2,19,-1
 120 568 l 2,20,21
 120 590 120 590 108 596 c 0,22,23
 89 607 89 607 48 617 c 1,24,-1
 56 653 l 1,25,26
 66 650 66 650 94 650 c 1,0,-1
249 319 m 1,27,-1
 249 91 l 2,28,29
 249 65 249 65 270 53.5 c 128,-1,30
 291 42 291 42 316 42 c 0,31,32
 368 42 368 42 404.5 77 c 128,-1,33
 441 112 441 112 441 180 c 0,34,35
 441 319 441 319 311 319 c 2,36,-1
 249 319 l 1,27,-1
249 376 m 1,37,-1
 287 376 l 2,38,39
 340 376 340 376 370.5 408 c 128,-1,40
 401 440 401 440 401 499 c 0,41,42
 401 609 401 609 289 609 c 0,43,44
 268 609 268 609 249 602 c 1,45,-1
 249 376 l 1,37,-1
EndSplineSet
EndChar

StartChar: C
Encoding: 67 67 38
Width: 680
GlyphClass: 2
Flags: W
LayerCount: 2
Fore
SplineSet
403 -16 m 0,0,1
 243 -16 243 -16 141.5 69.5 c 128,-1,2
 40 155 40 155 40 299 c 0,3,4
 40 461 40 461 141 563.5 c 128,-1,5
 242 666 242 666 411 666 c 0,6,7
 465 666 465 666 502.5 660 c 128,-1,8
 540 654 540 654 553 652 c 128,-1,9
 566 650 566 650 601 642.5 c 128,-1,10
 636 635 636 635 643 634 c 1,11,12
 633 522 633 522 616 458 c 1,13,-1
 562 448 l 1,14,15
 548 555 548 555 528 584 c 1,16,17
 487 610 487 610 393 610 c 128,-1,18
 299 610 299 610 245 534 c 128,-1,19
 191 458 191 458 191 335.5 c 128,-1,20
 191 213 191 213 252.5 126.5 c 128,-1,21
 314 40 314 40 413 40 c 0,22,23
 485 40 485 40 523.5 76.5 c 128,-1,24
 562 113 562 113 584 196 c 1,25,-1
 638 191 l 1,26,27
 637 124 637 124 617 17 c 1,28,29
 518 -16 518 -16 403 -16 c 0,0,1
EndSplineSet
EndChar

StartChar: D
Encoding: 68 68 39
Width: 768
GlyphClass: 2
Flags: W
LayerCount: 2
Fore
SplineSet
249 98 m 2,0,1
 249 46 249 46 359.5 46 c 128,-1,2
 470 46 470 46 528.5 122 c 128,-1,3
 587 198 587 198 587 333.5 c 128,-1,4
 587 469 587 469 522 537 c 128,-1,5
 457 605 457 605 320 605 c 0,6,7
 274 605 274 605 249 596 c 1,8,-1
 249 98 l 2,0,1
99 653 m 2,9,-1
 339 660 l 1,10,11
 517 660 517 660 620 590 c 0,12,13
 728 517 728 517 728 353 c 128,-1,14
 728 189 728 189 632 90.5 c 128,-1,15
 536 -8 536 -8 367 -8 c 0,16,17
 321 -8 321 -8 258 -4 c 128,-1,18
 195 0 195 0 170 0 c 128,-1,19
 145 0 145 0 57 -9 c 1,20,-1
 49 30 l 1,21,22
 86 38 86 38 103 47.5 c 128,-1,23
 120 57 120 57 120 79 c 2,24,-1
 120 569 l 2,25,26
 120 581 120 581 117.5 585.5 c 128,-1,27
 115 590 115 590 106 596 c 0,28,29
 88 607 88 607 48 617 c 1,30,-1
 56 654 l 1,31,32
 73 653 73 653 99 653 c 2,9,-1
EndSplineSet
EndChar

StartChar: E
Encoding: 69 69 40
Width: 594
GlyphClass: 2
Flags: W
LayerCount: 2
Fore
SplineSet
518 656 m 1,0,-1
 520 569 l 2,1,2
 520 534 520 534 517 499 c 1,3,-1
 471 491 l 1,4,5
 457 568 457 568 439 589 c 1,6,-1
 249 589 l 1,7,-1
 249 369 l 1,8,-1
 364 369 l 2,9,10
 389 369 389 369 397 384 c 0,11,12
 403 395 403 395 414 440 c 1,13,-1
 457 435 l 1,14,15
 449 382 449 382 449 336.5 c 128,-1,16
 449 291 449 291 457 241 c 1,17,-1
 414 237 l 1,18,19
 405 276 405 276 397.5 291.5 c 128,-1,20
 390 307 390 307 364 307 c 2,21,-1
 249 307 l 1,22,-1
 249 62 l 1,23,-1
 449 62 l 1,24,25
 462 73 462 73 479.5 113.5 c 128,-1,26
 497 154 497 154 504 179 c 1,27,-1
 550 171 l 1,28,29
 549 142 549 142 542 81.5 c 128,-1,30
 535 21 535 21 529 0 c 1,31,-1
 180 0 l 2,32,33
 139 0 139 0 53 -9 c 1,34,-1
 45 30 l 1,35,36
 110 43 110 43 118 60 c 0,37,38
 120 65 120 65 120 79 c 2,39,-1
 120 573 l 2,40,41
 120 596 120 596 104 603 c 0,42,43
 85 612 85 612 45 621 c 1,44,-1
 54 660 l 1,45,46
 150 650 150 650 180 650 c 2,47,-1
 426 650 l 2,48,49
 474 650 474 650 518 656 c 1,0,-1
EndSplineSet
EndChar

StartChar: F
Encoding: 70 70 41
Width: 523
GlyphClass: 2
Flags: W
LayerCount: 2
Fore
SplineSet
355 302 m 2,0,-1
 249 302 l 1,1,-1
 249 87 l 2,2,3
 249 72 249 72 253 64.5 c 128,-1,4
 257 57 257 57 271 52 c 1,5,-1
 351 33 l 1,6,-1
 344 -9 l 1,7,8
 268 0 268 0 197.5 0 c 128,-1,9
 127 0 127 0 55 -9 c 1,10,-1
 48 30 l 1,11,12
 86 38 86 38 103 47.5 c 128,-1,13
 120 57 120 57 120 79 c 2,14,-1
 120 573 l 2,15,16
 120 598 120 598 100 606 c 128,-1,17
 80 614 80 614 48 621 c 1,18,-1
 57 660 l 1,19,20
 139 650 139 650 180 650 c 2,21,-1
 421 650 l 2,22,23
 468 650 468 650 508 656 c 1,24,25
 510 633 510 633 510 593 c 128,-1,26
 510 553 510 553 508 496 c 1,27,-1
 462 488 l 1,28,29
 443 572 443 572 428 588 c 1,30,-1
 249 588 l 1,31,-1
 249 364 l 1,32,-1
 355 364 l 2,33,34
 382 364 382 364 388 379 c 1,35,-1
 400 436 l 1,36,-1
 438 431 l 1,37,38
 430 378 430 378 430 331.5 c 128,-1,39
 430 285 430 285 438 235 c 1,40,-1
 400 230 l 1,41,42
 394 272 394 272 388 287 c 128,-1,43
 382 302 382 302 355 302 c 2,0,-1
EndSplineSet
EndChar

StartChar: G
Encoding: 71 71 42
Width: 707
GlyphClass: 2
Flags: W
LayerCount: 2
Fore
SplineSet
401 666 m 0,0,1
 488 666 488 666 632 634 c 1,2,3
 624 542 624 542 606 468 c 1,4,-1
 552 460 l 1,5,6
 541 552 541 552 519 584 c 1,7,8
 478 610 478 610 383.5 610 c 128,-1,9
 289 610 289 610 235 534 c 128,-1,10
 181 458 181 458 181 335.5 c 128,-1,11
 181 213 181 213 242.5 126.5 c 128,-1,12
 304 40 304 40 403 40 c 0,13,14
 460 40 460 40 497 66 c 1,15,-1
 497 192 l 2,16,17
 497 219 497 219 475 227 c 1,18,-1
 402 246 l 1,19,-1
 411 288 l 1,20,21
 505 279 505 279 568.5 279 c 128,-1,22
 632 279 632 279 677 288 c 1,23,-1
 684 249 l 1,24,25
 656 240 656 240 641 230.5 c 128,-1,26
 626 221 626 221 626 200 c 2,27,-1
 626 19 l 1,28,29
 528 -16 528 -16 393 -16 c 0,30,31
 237 -16 237 -16 138.5 69.5 c 128,-1,32
 40 155 40 155 40 299 c 0,33,34
 40 461 40 461 138.5 563.5 c 128,-1,35
 237 666 237 666 401 666 c 0,0,1
EndSplineSet
EndChar

StartChar: H
Encoding: 72 72 43
Width: 815
GlyphClass: 2
Flags: W
LayerCount: 2
Fore
SplineSet
566 373 m 1,0,-1
 566 570 l 2,1,2
 566 584 566 584 563.5 590 c 128,-1,3
 561 596 561 596 552 600 c 0,4,5
 533 609 533 609 485 615 c 1,6,-1
 494 659 l 1,7,8
 568 650 568 650 630 650 c 128,-1,9
 692 650 692 650 759 659 c 1,10,-1
 767 620 l 1,11,12
 729 612 729 612 712 602.5 c 128,-1,13
 695 593 695 593 695 572 c 2,14,-1
 695 78 l 2,15,16
 695 57 695 57 707 50 c 0,17,18
 726 40 726 40 767 30 c 1,19,-1
 759 -9 l 1,20,21
 692 0 692 0 630 0 c 128,-1,22
 568 0 568 0 493 -9 c 1,23,-1
 485 35 l 1,24,25
 557 44 557 44 564 60 c 0,26,27
 566 66 566 66 566 80 c 2,28,-1
 566 305 l 1,29,-1
 249 305 l 1,30,-1
 249 80 l 2,31,32
 249 66 249 66 251.5 60 c 128,-1,33
 254 54 254 54 264 50 c 1,34,35
 281 41 281 41 330 35 c 1,36,-1
 322 -9 l 1,37,38
 247 0 247 0 185.5 0 c 128,-1,39
 124 0 124 0 56 -9 c 1,40,-1
 48 30 l 1,41,42
 86 38 86 38 103 47.5 c 128,-1,43
 120 57 120 57 120 78 c 2,44,-1
 120 572 l 2,45,46
 120 593 120 593 108 600 c 0,47,48
 89 610 89 610 48 620 c 1,49,-1
 57 659 l 1,50,51
 123 650 123 650 185.5 650 c 128,-1,52
 248 650 248 650 321 659 c 1,53,-1
 330 615 l 1,54,55
 283 609 283 609 266 601.5 c 128,-1,56
 249 594 249 594 249 572 c 2,57,-1
 249 373 l 1,58,-1
 566 373 l 1,0,-1
EndSplineSet
EndChar

StartChar: I
Encoding: 73 73 44
Width: 369
GlyphClass: 2
Flags: W
LayerCount: 2
Fore
SplineSet
249 572 m 2,0,-1
 249 78 l 2,1,2
 249 65 249 65 251.5 59.5 c 128,-1,3
 254 54 254 54 264 49 c 0,4,5
 280 40 280 40 323 30 c 1,6,-1
 316 -9 l 1,7,8
 247 0 247 0 185.5 0 c 128,-1,9
 124 0 124 0 55 -9 c 1,10,-1
 48 30 l 1,11,12
 110 43 110 43 118 60 c 0,13,14
 120 65 120 65 120 78 c 2,15,-1
 120 572 l 2,16,17
 120 585 120 585 117.5 590.5 c 128,-1,18
 115 596 115 596 106 601 c 0,19,20
 89 610 89 610 48 620 c 1,21,-1
 55 659 l 1,22,23
 124 650 124 650 185.5 650 c 128,-1,24
 247 650 247 650 316 659 c 1,25,-1
 323 620 l 1,26,27
 259 608 259 608 252 590 c 0,28,29
 249 585 249 585 249 572 c 2,0,-1
EndSplineSet
EndChar

StartChar: J
Encoding: 74 74 45
Width: 303
GlyphClass: 2
Flags: W
LayerCount: 2
Fore
SplineSet
82 0 m 2,0,-1
 82 572 l 2,1,2
 82 585 82 585 79.5 590.5 c 128,-1,3
 77 596 77 596 68 601 c 0,4,5
 51 610 51 610 10 620 c 1,6,-1
 17 659 l 1,7,8
 86 650 86 650 147.5 650 c 128,-1,9
 209 650 209 650 278 659 c 1,10,-1
 285 620 l 1,11,12
 221 608 221 608 214 590 c 0,13,14
 211 585 211 585 211 572 c 2,15,-1
 211 50 l 2,16,17
 211 7 211 7 209 -15.5 c 128,-1,18
 207 -38 207 -38 196.5 -70.5 c 128,-1,19
 186 -103 186 -103 161.5 -130.5 c 128,-1,20
 137 -158 137 -158 96 -189 c 2,21,-1
 0 -260 l 1,22,-1
 -30 -230 l 1,23,24
 82 -109 82 -109 82 0 c 2,0,-1
EndSplineSet
EndChar

StartChar: K
Encoding: 75 75 46
Width: 717
GlyphClass: 2
Flags: W
LayerCount: 2
Fore
SplineSet
494 602 m 0,0,1
 494 616 494 616 438 625 c 1,2,-1
 445 658 l 1,3,4
 494 650 494 650 546 650 c 128,-1,5
 598 650 598 650 649 658 c 1,6,-1
 656 625 l 1,7,8
 622 620 622 620 602 609.5 c 128,-1,9
 582 599 582 599 561 576 c 2,10,-1
 367 371 l 1,11,-1
 618 96 l 2,12,13
 652 59 652 59 674 46.5 c 128,-1,14
 696 34 696 34 732 25 c 1,15,-1
 725 -8 l 1,16,17
 658 0 658 0 576.5 0 c 128,-1,18
 495 0 495 0 440 -8 c 1,19,-1
 431 25 l 1,20,21
 435 26 435 26 443 27.5 c 128,-1,22
 451 29 451 29 455 30 c 128,-1,23
 459 31 459 31 465.5 32.5 c 128,-1,24
 472 34 472 34 475.5 35.5 c 128,-1,25
 479 37 479 37 482 39 c 0,26,27
 489 43 489 43 489 51.5 c 128,-1,28
 489 60 489 60 471 80 c 2,29,-1
 263 317 l 1,30,-1
 263 350 l 1,31,-1
 479 576 l 2,32,33
 494 592 494 592 494 602 c 0,0,1
249 572 m 2,34,-1
 249 78 l 2,35,36
 249 65 249 65 251.5 59.5 c 128,-1,37
 254 54 254 54 264 49 c 0,38,39
 280 40 280 40 333 30 c 1,40,-1
 326 -9 l 1,41,42
 251 0 251 0 187.5 0 c 128,-1,43
 124 0 124 0 55 -9 c 1,44,-1
 48 30 l 1,45,46
 110 43 110 43 118 60 c 0,47,48
 120 65 120 65 120 78 c 2,49,-1
 120 572 l 2,50,51
 120 585 120 585 117.5 590.5 c 128,-1,52
 115 596 115 596 106 601 c 0,53,54
 89 610 89 610 48 620 c 1,55,-1
 55 659 l 1,56,57
 124 650 124 650 185.5 650 c 128,-1,58
 247 650 247 650 316 659 c 1,59,-1
 323 620 l 1,60,61
 259 608 259 608 252 590 c 0,62,63
 249 585 249 585 249 572 c 2,34,-1
EndSplineSet
EndChar

StartChar: L
Encoding: 76 76 47
Width: 540
GlyphClass: 2
Flags: W
LayerCount: 2
Fore
SplineSet
249 563 m 2,0,-1
 249 63 l 1,1,-1
 425 63 l 1,2,3
 438 74 438 74 458.5 114.5 c 128,-1,4
 479 155 479 155 486 178 c 1,5,-1
 534 169 l 1,6,7
 533 144 533 144 525 82.5 c 128,-1,8
 517 21 517 21 511 0 c 1,9,-1
 177 0 l 2,10,11
 155 0 155 0 56 -9 c 1,12,-1
 48 29 l 1,13,14
 86 37 86 37 103 46.5 c 128,-1,15
 120 56 120 56 120 79 c 2,16,-1
 120 571 l 2,17,18
 120 593 120 593 108 600 c 0,19,20
 89 610 89 610 48 620 c 1,21,-1
 57 659 l 1,22,23
 126 650 126 650 198.5 650 c 128,-1,24
 271 650 271 650 343 659 c 1,25,-1
 351 617 l 1,26,27
 289 605 289 605 269 597.5 c 128,-1,28
 249 590 249 590 249 563 c 2,0,-1
EndSplineSet
EndChar

StartChar: M
Encoding: 77 77 48
Width: 944
GlyphClass: 2
Flags: W
LayerCount: 2
Fore
SplineSet
657 660 m 1,0,1
 709 650 709 650 762.5 650 c 128,-1,2
 816 650 816 650 874 660 c 1,3,-1
 881 621 l 1,4,5
 844 612 844 612 826 603 c 128,-1,6
 808 594 808 594 810 569 c 2,7,-1
 840 82 l 2,8,9
 841 58 841 58 858 48 c 1,10,11
 874 40 874 40 910 30 c 1,12,-1
 903 -9 l 1,13,14
 840 0 840 0 778 0 c 128,-1,15
 716 0 716 0 637 -9 c 1,16,-1
 630 32 l 1,17,18
 702 47 702 47 712 64 c 0,19,20
 716 69 716 69 715 82 c 2,21,-1
 691 511 l 1,22,-1
 685 516 l 1,23,24
 674 466 674 466 664 442 c 2,25,-1
 545 142 l 2,26,27
 528 100 528 100 502 6 c 1,28,-1
 407 -18 l 1,29,30
 379 77 379 77 358 129 c 2,31,-1
 238 437 l 1,32,-1
 219 503 l 1,33,-1
 212 498 l 1,34,-1
 183 82 l 2,35,36
 182 69 182 69 185.5 63.5 c 128,-1,37
 189 58 189 58 198 53 c 0,38,39
 215 44 215 44 268 32 c 1,40,-1
 260 -9 l 1,41,42
 195 0 195 0 146.5 0 c 128,-1,43
 98 0 98 0 35 -9 c 1,44,-1
 27 30 l 1,45,46
 64 38 64 38 81.5 47 c 128,-1,47
 99 56 99 56 100 79 c 2,48,-1
 137 572 l 2,49,50
 138 594 138 594 121 603 c 0,51,52
 105 611 105 611 61 621 c 1,53,-1
 68 660 l 1,54,55
 123 650 123 650 183.5 650 c 128,-1,56
 244 650 244 650 300 660 c 1,57,58
 308 623 308 623 320 591 c 2,59,-1
 464 202 l 1,60,-1
 477 155 l 1,61,-1
 484 153 l 1,62,63
 486 186 486 186 493 201 c 1,64,-1
 636 585 l 1,65,-1
 657 660 l 1,0,1
EndSplineSet
EndChar

StartChar: N
Encoding: 78 78 49
Width: 769
GlyphClass: 2
Flags: W
LayerCount: 2
Fore
SplineSet
205 87 m 2,0,1
 205 72 205 72 209 64 c 0,2,3
 215 53 215 53 245 46 c 128,-1,4
 275 39 275 39 307 33 c 1,5,-1
 299 -9 l 1,6,7
 230 0 230 0 176 0 c 128,-1,8
 122 0 122 0 50 -9 c 1,9,-1
 42 30 l 1,10,11
 83 37 83 37 104 48 c 1,12,13
 120 55 120 55 120 79 c 2,14,-1
 120 573 l 2,15,16
 120 595 120 595 104 603 c 1,17,-1
 45 621 l 1,18,-1
 52 660 l 1,19,20
 107 650 107 650 159.5 650 c 128,-1,21
 212 650 212 650 268 660 c 1,22,23
 291 620 291 620 330 563 c 2,24,-1
 538 263 l 2,25,26
 553 240 553 240 570 192 c 1,27,-1
 575 196 l 1,28,-1
 575 570 l 2,29,30
 575 592 575 592 558 600 c 0,31,32
 547 606 547 606 491 619 c 1,33,-1
 498 660 l 1,34,35
 575 650 575 650 617.5 650 c 128,-1,36
 660 650 660 650 728 660 c 1,37,-1
 735 621 l 1,38,39
 697 613 697 613 678.5 603.5 c 128,-1,40
 660 594 660 594 660 573 c 2,41,-1
 660 193 l 2,42,43
 660 115 660 115 668 7 c 1,44,-1
 560 -14 l 1,45,46
 523 68 523 68 446 178 c 2,47,-1
 246 464 l 2,48,49
 229 488 229 488 210 529 c 1,50,-1
 205 525 l 1,51,-1
 205 87 l 2,0,1
EndSplineSet
EndChar

StartChar: O
Encoding: 79 79 50
Width: 771
GlyphClass: 2
Flags: W
LayerCount: 2
Fore
SplineSet
134 71 m 128,-1,1
 40 158 40 158 40 311 c 128,-1,2
 40 464 40 464 133.5 565 c 128,-1,3
 227 666 227 666 385 666 c 128,-1,4
 543 666 543 666 637 579 c 128,-1,5
 731 492 731 492 731 339 c 128,-1,6
 731 186 731 186 637.5 85 c 128,-1,7
 544 -16 544 -16 386 -16 c 128,-1,0
 228 -16 228 -16 134 71 c 128,-1,1
229.5 534.5 m 128,-1,9
 181 461 181 461 181 338.5 c 128,-1,10
 181 216 181 216 236 129 c 128,-1,11
 291 42 291 42 392 42 c 128,-1,12
 493 42 493 42 541.5 115.5 c 128,-1,13
 590 189 590 189 590 311.5 c 128,-1,14
 590 434 590 434 535 521 c 128,-1,15
 480 608 480 608 379 608 c 128,-1,8
 278 608 278 608 229.5 534.5 c 128,-1,9
EndSplineSet
EndChar

StartChar: P
Encoding: 80 80 51
Width: 558
GlyphClass: 2
Flags: W
LayerCount: 2
Fore
SplineSet
263 319 m 1,0,-1
 296 315 l 1,1,2
 407 315 407 315 407 462 c 128,-1,3
 407 609 407 609 286 609 c 0,4,5
 270 609 270 609 249 602 c 1,6,-1
 249 87 l 2,7,8
 249 72 249 72 253 64.5 c 128,-1,9
 257 57 257 57 271 52 c 1,10,-1
 352 33 l 1,11,-1
 344 -9 l 1,12,13
 250 0 250 0 198 0 c 128,-1,14
 146 0 146 0 56 -9 c 1,15,-1
 48 30 l 1,16,17
 86 38 86 38 103 47.5 c 128,-1,18
 120 57 120 57 120 79 c 2,19,-1
 120 569 l 2,20,21
 120 590 120 590 108 596 c 0,22,23
 90 606 90 606 47 617 c 1,24,-1
 55 654 l 1,25,26
 58 651 58 651 90 651 c 1,27,-1
 287 658 l 1,28,29
 546 658 546 658 546 474 c 0,30,31
 546 392 546 392 480 332.5 c 128,-1,32
 414 273 414 273 333 273 c 0,33,34
 320 273 320 273 298.5 282 c 128,-1,35
 277 291 277 291 267 298 c 1,36,-1
 263 319 l 1,0,-1
EndSplineSet
EndChar

StartChar: Q
Encoding: 81 81 52
Width: 771
GlyphClass: 2
Flags: W
LayerCount: 2
Fore
SplineSet
129 75.5 m 128,-1,1
 40 162 40 162 40 313 c 128,-1,2
 40 464 40 464 133.5 565 c 128,-1,3
 227 666 227 666 385 666 c 128,-1,4
 543 666 543 666 637 579 c 128,-1,5
 731 492 731 492 731 340.5 c 128,-1,6
 731 189 731 189 641 89 c 128,-1,7
 551 -11 551 -11 401 -15 c 1,8,9
 424 -21 424 -21 496.5 -68 c 128,-1,10
 569 -115 569 -115 607 -115 c 128,-1,11
 645 -115 645 -115 686 -58 c 1,12,-1
 714 -94 l 1,13,14
 664 -163 664 -163 632 -188 c 128,-1,15
 600 -213 600 -213 567.5 -213 c 128,-1,16
 535 -213 535 -213 495 -187.5 c 128,-1,17
 455 -162 455 -162 420.5 -136.5 c 128,-1,18
 386 -111 386 -111 367 -111 c 128,-1,19
 348 -111 348 -111 324.5 -128.5 c 128,-1,20
 301 -146 301 -146 287 -163 c 1,21,-1
 252 -136 l 1,22,23
 270 -111 270 -111 310.5 -69.5 c 128,-1,24
 351 -28 351 -28 371 -16 c 1,25,0
 218 -11 218 -11 129 75.5 c 128,-1,1
229.5 534.5 m 128,-1,27
 181 461 181 461 181 338.5 c 128,-1,28
 181 216 181 216 236 128 c 128,-1,29
 291 40 291 40 392 40 c 128,-1,30
 493 40 493 40 541.5 113.5 c 128,-1,31
 590 187 590 187 590 310.5 c 128,-1,32
 590 434 590 434 535 521 c 128,-1,33
 480 608 480 608 379 608 c 128,-1,26
 278 608 278 608 229.5 534.5 c 128,-1,27
EndSplineSet
EndChar

StartChar: R
Encoding: 82 82 53
Width: 665
GlyphClass: 2
Flags: W
LayerCount: 2
Fore
SplineSet
249 341 m 1,0,-1
 279 341 l 2,1,2
 407 341 407 341 407 475 c 0,3,4
 407 544 407 544 379 576.5 c 128,-1,5
 351 609 351 609 289 609 c 0,6,7
 266 609 266 609 249 602 c 1,8,-1
 249 341 l 1,0,-1
88 651 m 1,9,-1
 289 658 l 1,10,11
 404 658 404 658 475 618.5 c 128,-1,12
 546 579 546 579 546 489 c 0,13,14
 546 423 546 423 498 374 c 128,-1,15
 450 325 450 325 383 320 c 1,16,-1
 383 313 l 1,17,18
 413 306 413 306 444 271 c 128,-1,19
 475 236 475 236 497 196 c 0,20,21
 558 85 558 85 597 58 c 128,-1,22
 636 31 636 31 677 31 c 1,23,-1
 671 -6 l 1,24,-1
 494 -6 l 2,25,26
 470 -6 470 -6 434 50 c 0,27,28
 402 101 402 101 375 152.5 c 128,-1,29
 348 204 348 204 333.5 230.5 c 128,-1,30
 319 257 319 257 305 270.5 c 128,-1,31
 291 284 291 284 267 284 c 2,32,-1
 249 284 l 1,33,-1
 249 87 l 2,34,35
 249 72 249 72 253 64.5 c 128,-1,36
 257 57 257 57 271 52 c 1,37,-1
 351 33 l 1,38,-1
 344 -9 l 1,39,40
 250 0 250 0 197.5 0 c 128,-1,41
 145 0 145 0 55 -9 c 1,42,-1
 48 30 l 1,43,44
 110 43 110 43 118 60 c 0,45,46
 120 65 120 65 120 79 c 2,47,-1
 120 569 l 2,48,49
 120 591 120 591 108 598 c 0,50,51
 86 609 86 609 48 617 c 1,52,-1
 55 654 l 1,53,54
 58 651 58 651 88 651 c 1,9,-1
EndSplineSet
EndChar

StartChar: S
Encoding: 83 83 54
Width: 524
GlyphClass: 2
Flags: W
LayerCount: 2
Fore
SplineSet
248 40 m 0,0,1
 293 40 293 40 322.5 68 c 128,-1,2
 352 96 352 96 352 145 c 0,3,4
 352 191 352 191 312 225 c 0,5,6
 279 253 279 253 236.5 277.5 c 128,-1,7
 194 302 194 302 183 308.5 c 128,-1,8
 172 315 172 315 146 333 c 128,-1,9
 120 351 120 351 108.5 364 c 128,-1,10
 97 377 97 377 82 396 c 0,11,12
 55 432 55 432 55 487 c 0,13,14
 55 571 55 571 117.5 618.5 c 128,-1,15
 180 666 180 666 277 666 c 0,16,17
 312 666 312 666 459 640 c 1,18,19
 458 616 458 616 448.5 560 c 128,-1,20
 439 504 439 504 433 482 c 1,21,-1
 384 475 l 1,22,23
 377 556 377 556 365 587 c 1,24,25
 331 612 331 612 269 612 c 0,26,27
 230 612 230 612 204.5 587.5 c 128,-1,28
 179 563 179 563 179 520 c 0,29,30
 179 478 179 478 222 446 c 0,31,32
 254 422 254 422 303 394.5 c 128,-1,33
 352 367 352 367 375 352 c 128,-1,34
 398 337 398 337 428 312 c 0,35,36
 484 263 484 263 484 187 c 0,37,38
 484 88 484 88 413.5 36 c 128,-1,39
 343 -16 343 -16 240 -16 c 128,-1,40
 137 -16 137 -16 50 21 c 1,41,42
 48 34 48 34 48 101.5 c 128,-1,43
 48 169 48 169 52 188 c 1,44,-1
 104 199 l 1,45,46
 110 129 110 129 145 84.5 c 128,-1,47
 180 40 180 40 248 40 c 0,0,1
EndSplineSet
EndChar

StartChar: T
Encoding: 84 84 55
Width: 579
GlyphClass: 2
Flags: W
LayerCount: 2
Fore
SplineSet
441 -9 m 1,0,1
 364 0 364 0 289.5 0 c 128,-1,2
 215 0 215 0 138 -9 c 1,3,-1
 129 31 l 1,4,5
 212 47 212 47 222 64 c 0,6,7
 225 69 225 69 225 82 c 2,8,-1
 225 588 l 1,9,-1
 93 588 l 1,10,11
 83 561 83 561 72 470 c 1,12,-1
 15 479 l 1,13,14
 6 550 6 550 6 593.5 c 128,-1,15
 6 637 6 637 7 658 c 1,16,17
 74 650 74 650 113 650 c 2,18,-1
 466 650 l 2,19,20
 505 650 505 650 572 658 c 1,21,22
 573 646 573 646 573 609.5 c 128,-1,23
 573 573 573 573 563 479 c 1,24,-1
 507 470 l 1,25,26
 501 550 501 550 486 588 c 1,27,-1
 354 588 l 1,28,-1
 354 82 l 2,29,30
 354 62 354 62 366 56 c 0,31,32
 385 45 385 45 450 31 c 1,33,-1
 441 -9 l 1,0,1
EndSplineSet
EndChar

StartChar: U
Encoding: 85 85 56
Width: 754
GlyphClass: 2
Flags: W
LayerCount: 2
Fore
SplineSet
648 572 m 2,0,-1
 648 245 l 2,1,2
 648 118 648 118 578 52 c 128,-1,3
 508 -14 508 -14 374 -14 c 128,-1,4
 240 -14 240 -14 173 45.5 c 128,-1,5
 106 105 106 105 106 233 c 2,6,-1
 106 572 l 2,7,8
 106 585 106 585 103.5 590.5 c 128,-1,9
 101 596 101 596 92 601 c 0,10,11
 75 610 75 610 34 620 c 1,12,-1
 41 659 l 1,13,14
 110 650 110 650 171.5 650 c 128,-1,15
 233 650 233 650 302 659 c 1,16,-1
 309 620 l 1,17,18
 245 608 245 608 238 590 c 0,19,20
 235 585 235 585 235 572 c 2,21,-1
 235 249 l 2,22,23
 235 152 235 152 275 106.5 c 128,-1,24
 315 61 315 61 397 61 c 128,-1,25
 479 61 479 61 521 106 c 128,-1,26
 563 151 563 151 563 229 c 2,27,-1
 563 572 l 2,28,29
 563 585 563 585 560.5 590.5 c 128,-1,30
 558 596 558 596 549 601 c 0,31,32
 533 610 533 610 491 620 c 1,33,-1
 498 659 l 1,34,35
 549 650 549 650 602 650 c 128,-1,36
 655 650 655 650 715 659 c 1,37,-1
 722 620 l 1,38,39
 658 608 658 608 650 590 c 0,40,41
 648 585 648 585 648 572 c 2,0,-1
EndSplineSet
EndChar

StartChar: V
Encoding: 86 86 57
Width: 640
GlyphClass: 2
Flags: W
LayerCount: 2
Fore
SplineSet
498 575 m 0,0,1
 498 594 498 594 472 602 c 2,2,-1
 413 620 l 1,3,-1
 420 659 l 1,4,5
 484 650 484 650 531 650 c 128,-1,6
 578 650 578 650 638 659 c 1,7,-1
 646 620 l 1,8,9
 607 611 607 611 596 598.5 c 128,-1,10
 585 586 585 586 570 539 c 1,11,-1
 363 -7 l 1,12,-1
 269 -7 l 1,13,-1
 72 539 l 2,14,15
 55 586 55 586 43.5 598.5 c 128,-1,16
 32 611 32 611 -6 620 c 1,17,-1
 3 659 l 1,18,19
 69 650 69 650 135 650 c 128,-1,20
 201 650 201 650 276 659 c 1,21,-1
 283 620 l 1,22,23
 247 610 247 610 224 600.5 c 128,-1,24
 201 591 201 591 201 573 c 0,25,26
 201 567 201 567 203 561 c 2,27,-1
 336 177 l 1,28,-1
 346 136 l 1,29,-1
 353 133 l 1,30,-1
 359 177 l 1,31,-1
 495 561 l 2,32,33
 498 568 498 568 498 575 c 0,0,1
EndSplineSet
EndChar

StartChar: W
Encoding: 87 87 58
Width: 1020
GlyphClass: 2
Flags: W
LayerCount: 2
Fore
SplineSet
2 659 m 1,0,1
 68 650 68 650 133.5 650 c 128,-1,2
 199 650 199 650 274 659 c 1,3,-1
 281 620 l 1,4,5
 245 611 245 611 224 602 c 1,6,7
 199 593 199 593 199 574 c 0,8,9
 199 566 199 566 201 561 c 2,10,-1
 320 179 l 1,11,-1
 326 150 l 1,12,-1
 332 149 l 1,13,-1
 336 182 l 1,14,-1
 488 649 l 1,15,-1
 590 649 l 1,16,-1
 742 182 l 1,17,-1
 748 156 l 1,18,-1
 753 155 l 1,19,-1
 759 185 l 1,20,-1
 877 561 l 2,21,22
 879 566 879 566 879 574 c 0,23,24
 879 595 879 595 854 602 c 2,25,-1
 795 620 l 1,26,-1
 802 659 l 1,27,28
 867 650 867 650 912.5 650 c 128,-1,29
 958 650 958 650 1018 659 c 1,30,-1
 1026 620 l 1,31,32
 987 610 987 610 976 598 c 128,-1,33
 965 586 965 586 950 539 c 2,34,-1
 764 -8 l 1,35,-1
 671 -8 l 1,36,-1
 517 453 l 1,37,-1
 511 480 l 1,38,-1
 506 481 l 1,39,-1
 498 447 l 1,40,-1
 348 -8 l 1,41,-1
 254 -8 l 1,42,-1
 72 539 l 2,43,44
 57 585 57 585 45 597.5 c 128,-1,45
 33 610 33 610 -6 620 c 1,46,-1
 2 659 l 1,0,1
EndSplineSet
EndChar

StartChar: X
Encoding: 88 88 59
Width: 696
GlyphClass: 2
Flags: W
LayerCount: 2
Fore
SplineSet
376 30 m 1,0,1
 454 50 454 50 454 72 c 0,2,3
 454 83 454 83 449 89 c 2,4,-1
 318 274 l 1,5,-1
 180 89 l 2,6,7
 175 81 175 81 175 73 c 0,8,9
 175 58 175 58 203 46 c 1,10,-1
 253 30 l 1,11,-1
 246 -9 l 1,12,13
 181 0 181 0 132.5 0 c 128,-1,14
 84 0 84 0 17 -10 c 1,15,-1
 9 29 l 1,16,17
 36 36 36 36 55.5 50 c 128,-1,18
 75 64 75 64 102 98 c 2,19,-1
 281 326 l 1,20,-1
 130 541 l 2,21,22
 101 582 101 582 81 597.5 c 128,-1,23
 61 613 61 613 27 620 c 1,24,-1
 35 659 l 1,25,26
 101 650 101 650 177 650 c 128,-1,27
 253 650 253 650 321 659 c 1,28,-1
 328 620 l 1,29,30
 296 614 296 614 278.5 604.5 c 128,-1,31
 261 595 261 595 261 581.5 c 128,-1,32
 261 568 261 568 265 561 c 2,33,-1
 382 397 l 1,34,-1
 503 561 l 2,35,36
 507 566 507 566 507 577 c 0,37,38
 507 608 507 608 438 620 c 1,39,-1
 445 659 l 1,40,41
 509 650 509 650 557 650 c 128,-1,42
 605 650 605 650 665 659 c 1,43,-1
 674 620 l 1,44,45
 633 610 633 610 618.5 600 c 128,-1,46
 604 590 604 590 576 552 c 1,47,-1
 418 347 l 1,48,-1
 589 109 l 2,49,50
 619 66 619 66 637.5 51.5 c 128,-1,51
 656 37 656 37 687 30 c 1,52,-1
 679 -9 l 1,53,54
 613 0 613 0 532.5 0 c 128,-1,55
 452 0 452 0 383 -9 c 1,56,-1
 376 30 l 1,0,1
EndSplineSet
EndChar

StartChar: Y
Encoding: 89 89 60
Width: 608
GlyphClass: 2
Flags: W
LayerCount: 2
Fore
SplineSet
-4 660 m 1,0,1
 66 650 66 650 135.5 650 c 128,-1,2
 205 650 205 650 289 660 c 1,3,-1
 286 622 l 1,4,5
 257 616 257 616 240 606.5 c 128,-1,6
 223 597 223 597 223 581.5 c 128,-1,7
 223 566 223 566 231 553 c 2,8,-1
 342 360 l 1,9,-1
 448 554 l 2,10,11
 458 571 458 571 458 582.5 c 128,-1,12
 458 594 458 594 447.5 601.5 c 128,-1,13
 437 609 437 609 383 622 c 1,14,-1
 380 660 l 1,15,16
 462 650 462 650 503 650 c 128,-1,17
 544 650 544 650 612 660 c 1,18,-1
 608 622 l 1,19,20
 577 619 577 619 558 605 c 128,-1,21
 539 591 539 591 521 552 c 1,22,-1
 364 276 l 1,23,-1
 364 78 l 2,24,25
 364 64 364 64 366.5 58.5 c 128,-1,26
 369 53 369 53 378 48 c 0,27,28
 398 38 398 38 450 28 c 1,29,-1
 441 -8 l 1,30,31
 366 0 366 0 302.5 0 c 128,-1,32
 239 0 239 0 170 -8 c 1,33,-1
 162 29 l 1,34,35
 235 41 235 41 242 58 c 0,36,37
 245 64 245 64 245 78 c 2,38,-1
 245 274 l 1,39,-1
 80 559 l 1,40,41
 63 594 63 594 46 606.5 c 128,-1,42
 29 619 29 619 0 622 c 1,43,-1
 -4 660 l 1,0,1
EndSplineSet
EndChar

StartChar: Z
Encoding: 90 90 61
Width: 595
GlyphClass: 2
Flags: W
LayerCount: 2
Fore
SplineSet
168 650 m 2,0,-1
 530 650 l 1,1,-1
 539 595 l 1,2,-1
 188 68 l 1,3,-1
 428 68 l 1,4,5
 443 82 443 82 472 134 c 128,-1,6
 501 186 501 186 511 214 c 1,7,-1
 562 202 l 1,8,9
 561 174 561 174 548 100.5 c 128,-1,10
 535 27 535 27 527 0 c 1,11,-1
 46 0 l 1,12,-1
 32 52 l 1,13,-1
 386 582 l 1,14,-1
 158 582 l 1,15,16
 129 543 129 543 107 450 c 1,17,-1
 57 459 l 1,18,19
 57 607 57 607 63 645 c 1,20,-1
 97 663 l 1,21,22
 127 650 127 650 168 650 c 2,0,-1
EndSplineSet
EndChar

StartChar: bracketleft
Encoding: 91 91 62
Width: 327
GlyphClass: 2
Flags: W
LayerCount: 2
Fore
SplineSet
96 -156 m 1,0,-1
 96 650 l 1,1,-1
 305 650 l 1,2,-1
 305 586 l 1,3,-1
 186 586 l 1,4,-1
 186 -92 l 1,5,-1
 305 -92 l 1,6,-1
 305 -156 l 1,7,-1
 96 -156 l 1,0,-1
EndSplineSet
EndChar

StartChar: backslash
Encoding: 92 92 63
Width: 441
GlyphClass: 2
Flags: W
LayerCount: 2
Fore
SplineSet
101 667 m 1,0,-1
 414 -131 l 1,1,-1
 340 -170 l 1,2,-1
 27 628 l 1,3,-1
 101 667 l 1,0,-1
EndSplineSet
EndChar

StartChar: bracketright
Encoding: 93 93 64
Width: 327
GlyphClass: 2
Flags: W
LayerCount: 2
Fore
SplineSet
231 650 m 1,0,-1
 231 -156 l 1,1,-1
 22 -156 l 1,2,-1
 22 -92 l 1,3,-1
 141 -92 l 1,4,-1
 141 586 l 1,5,-1
 22 586 l 1,6,-1
 22 650 l 1,7,-1
 231 650 l 1,0,-1
EndSplineSet
EndChar

StartChar: asciicircum
Encoding: 94 94 65
Width: 476
GlyphClass: 2
Flags: W
LayerCount: 2
Fore
SplineSet
32 311 m 1,0,-1
 204 671 l 1,1,-1
 272 671 l 1,2,-1
 444 311 l 1,3,-1
 370 280 l 1,4,-1
 238 575 l 1,5,-1
 106 280 l 1,6,-1
 32 311 l 1,0,-1
EndSplineSet
EndChar

StartChar: underscore
Encoding: 95 95 66
Width: 500
GlyphClass: 2
Flags: W
LayerCount: 2
Fore
SplineSet
0 -156 m 1,0,-1
 0 -87 l 1,1,-1
 500 -87 l 1,2,-1
 500 -156 l 1,3,-1
 0 -156 l 1,0,-1
EndSplineSet
EndChar

StartChar: grave
Encoding: 96 96 67
Width: 322
GlyphClass: 2
Flags: W
LayerCount: 2
Fore
SplineSet
66 658 m 1,0,-1
 79 685 l 1,1,2
 141 685 141 685 184 676 c 1,3,4
 193 667 193 667 225 605 c 128,-1,5
 257 543 257 543 266 521 c 1,6,-1
 219 494 l 1,7,-1
 66 658 l 1,0,-1
EndSplineSet
EndChar

StartChar: a
Encoding: 97 97 68
Width: 459
GlyphClass: 2
Flags: W
LayerCount: 2
Fore
SplineSet
162 74.5 m 128,-1,1
 174 59 174 59 200 59 c 128,-1,2
 226 59 226 59 260 88 c 1,3,-1
 260 190 l 1,4,-1
 208 179 l 2,5,6
 150 166 150 166 150 112 c 0,7,0
 150 90 150 90 162 74.5 c 128,-1,1
380 291 m 2,8,-1
 380 92 l 2,9,10
 380 71 380 71 388 64 c 0,11,12
 399 55 399 55 441 52 c 1,13,-1
 450 18 l 1,14,15
 396 9 396 9 315 -16 c 1,16,17
 273 9 273 9 263 48 c 1,18,19
 199 -16 199 -16 158 -16 c 0,20,21
 100 -16 100 -16 65 16 c 128,-1,22
 30 48 30 48 30 104 c 128,-1,23
 30 160 30 160 72 186.5 c 128,-1,24
 114 213 114 213 193 222 c 2,25,-1
 260 230 l 1,26,-1
 260 277 l 2,27,28
 260 330 260 330 248.5 356 c 128,-1,29
 237 382 237 382 204 382 c 128,-1,30
 171 382 171 382 145 369 c 1,31,32
 139 348 139 348 139 278 c 1,33,-1
 77 261 l 1,34,35
 48 351 48 351 47 383 c 1,36,37
 165 437 165 437 223 437 c 0,38,39
 304 437 304 437 342 401.5 c 128,-1,40
 380 366 380 366 380 291 c 2,8,-1
EndSplineSet
EndChar

StartChar: b
Encoding: 98 98 69
Width: 515
GlyphClass: 2
Flags: W
LayerCount: 2
Fore
SplineSet
419.5 53.5 m 128,-1,1
 355 -16 355 -16 261 -16 c 128,-1,2
 167 -16 167 -16 62 25 c 1,3,-1
 62 612 l 2,4,5
 62 630 62 630 57 637.5 c 128,-1,6
 52 645 52 645 37 645 c 1,7,-1
 0 640 l 1,8,-1
 -6 678 l 1,9,10
 28 691 28 691 84.5 703.5 c 128,-1,11
 141 716 141 716 175 718 c 1,12,-1
 195 695 l 1,13,14
 182 670 182 670 182 602 c 2,15,-1
 182 383 l 1,16,17
 247 437 247 437 302 437 c 0,18,19
 392 437 392 437 438 381 c 128,-1,20
 484 325 484 325 484 224 c 128,-1,0
 484 123 484 123 419.5 53.5 c 128,-1,1
261 363 m 0,21,22
 222 363 222 363 192 344 c 1,23,-1
 182 337 l 1,24,-1
 182 107 l 2,25,26
 182 77 182 77 203.5 58.5 c 128,-1,27
 225 40 225 40 262.5 40 c 128,-1,28
 300 40 300 40 327.5 82 c 128,-1,29
 355 124 355 124 355 206 c 0,30,31
 355 363 355 363 261 363 c 0,21,22
EndSplineSet
EndChar

StartChar: c
Encoding: 99 99 70
Width: 437
GlyphClass: 2
Flags: W
LayerCount: 2
Fore
SplineSet
322 264 m 1,0,1
 323 273 323 273 323 286 c 0,2,3
 323 348 323 348 312 368 c 1,4,5
 286 385 286 385 239 385 c 0,6,7
 160 385 160 385 160 228 c 0,8,9
 160 146 160 146 192 104 c 128,-1,10
 224 62 224 62 279.5 62 c 128,-1,11
 335 62 335 62 398 98 c 1,12,-1
 418 69 l 1,13,14
 324 -16 324 -16 246 -16 c 0,15,16
 150 -16 150 -16 90.5 44.5 c 128,-1,17
 31 105 31 105 31 203.5 c 128,-1,18
 31 302 31 302 89.5 369.5 c 128,-1,19
 148 437 148 437 247 437 c 0,20,21
 279 437 279 437 331.5 423.5 c 128,-1,22
 384 410 384 410 412 399 c 1,23,24
 410 377 410 377 397.5 325.5 c 128,-1,25
 385 274 385 274 376 254 c 1,26,-1
 322 264 l 1,0,1
EndSplineSet
EndChar

StartChar: d
Encoding: 100 100 71
Width: 542
GlyphClass: 2
Flags: W
LayerCount: 2
Fore
SplineSet
461 95 m 2,0,1
 461 69 461 69 477 62 c 1,2,3
 490 53 490 53 530 53 c 1,4,-1
 537 18 l 1,5,6
 455 6 455 6 395 -16 c 1,7,8
 355 10 355 10 344 49 c 1,9,10
 286 -16 286 -16 232 -16 c 0,11,12
 140 -16 140 -16 90.5 41.5 c 128,-1,13
 41 99 41 99 41 201 c 128,-1,14
 41 303 41 303 103.5 370 c 128,-1,15
 166 437 166 437 272 437 c 0,16,17
 312 437 312 437 341 419 c 1,18,-1
 341 607 l 2,19,20
 341 644 341 644 323.5 644 c 128,-1,21
 306 644 306 644 267 635 c 1,22,-1
 260 675 l 1,23,24
 293 689 293 689 354.5 702.5 c 128,-1,25
 416 716 416 716 453 718 c 1,26,-1
 473 695 l 1,27,28
 461 670 461 670 461 602 c 2,29,-1
 461 95 l 2,0,1
196.5 98.5 m 128,-1,31
 223 58 223 58 264 58 c 128,-1,32
 305 58 305 58 341 87 c 1,33,-1
 341 333 l 1,34,35
 327 353 327 353 305 367 c 128,-1,36
 283 381 283 381 263 381 c 0,37,38
 222 381 222 381 196 340.5 c 128,-1,39
 170 300 170 300 170 219.5 c 128,-1,30
 170 139 170 139 196.5 98.5 c 128,-1,31
EndSplineSet
EndChar

StartChar: e
Encoding: 101 101 72
Width: 450
GlyphClass: 2
Flags: W
LayerCount: 2
Fore
SplineSet
275 62 m 0,0,1
 338 62 338 62 400 105 c 1,2,-1
 421 73 l 1,3,4
 325 -16 325 -16 242 -16 c 0,5,6
 144 -16 144 -16 85.5 44 c 128,-1,7
 27 104 27 104 27 202 c 128,-1,8
 27 300 27 300 86 368.5 c 128,-1,9
 145 437 145 437 239.5 437 c 128,-1,10
 334 437 334 437 381 379.5 c 128,-1,11
 428 322 428 322 428 225 c 1,12,-1
 156 207 l 1,13,14
 164 62 164 62 275 62 c 0,0,1
298 275 m 1,15,16
 298 386 298 386 232 386 c 0,17,18
 195 386 195 386 175.5 347.5 c 128,-1,19
 156 309 156 309 156 255 c 1,20,-1
 298 275 l 1,15,16
EndSplineSet
EndChar

StartChar: f
Encoding: 102 102 73
Width: 326
GlyphClass: 2
Flags: W
LayerCount: 2
Fore
SplineSet
95 479 m 2,0,1
 95 578 95 578 150.5 648 c 128,-1,2
 206 718 206 718 304 718 c 0,3,4
 350 718 350 718 419 695 c 1,5,6
 412 654 412 654 377 565 c 1,7,-1
 336 573 l 1,8,9
 336 614 336 614 321 639.5 c 128,-1,10
 306 665 306 665 275 665 c 128,-1,11
 244 665 244 665 229.5 626 c 128,-1,12
 215 587 215 587 215 536 c 2,13,-1
 215 416 l 1,14,-1
 327 426 l 1,15,-1
 318 361 l 1,16,-1
 215 365 l 1,17,-1
 215 77 l 2,18,19
 215 64 215 64 218 59 c 128,-1,20
 221 54 221 54 230 48 c 0,21,22
 247 37 247 37 299 27 c 1,23,-1
 291 -9 l 1,24,25
 181 0 181 0 157.5 0 c 128,-1,26
 134 0 134 0 35 -9 c 1,27,-1
 27 27 l 1,28,29
 63 35 63 35 79 45 c 128,-1,30
 95 55 95 55 95 76 c 2,31,-1
 95 367 l 1,32,-1
 39 367 l 1,33,-1
 34 407 l 1,34,-1
 95 422 l 1,35,-1
 95 479 l 2,0,1
EndSplineSet
EndChar

StartChar: g
Encoding: 103 103 74
Width: 471
GlyphClass: 2
Flags: W
LayerCount: 2
Fore
SplineSet
464 377 m 1,0,1
 449 374 449 374 426.5 374 c 128,-1,2
 404 374 404 374 385 375 c 1,3,4
 423 335 423 335 423 281 c 0,5,6
 423 205 423 205 367.5 162.5 c 128,-1,7
 312 120 312 120 226 120 c 0,8,9
 204 120 204 120 192 123 c 1,10,11
 155 92 155 92 155 75 c 0,12,13
 155 52 155 52 221 48 c 2,14,-1
 320 41 l 2,15,16
 389 36 389 36 426.5 4.5 c 128,-1,17
 464 -27 464 -27 464 -75 c 0,18,19
 464 -152 464 -152 378 -206 c 128,-1,20
 292 -260 292 -260 200 -260 c 128,-1,21
 108 -260 108 -260 57 -229.5 c 128,-1,22
 6 -199 6 -199 6 -140 c 0,23,24
 6 -109 6 -109 15 -94 c 1,25,-1
 99 -34 l 1,26,27
 43 -13 43 -13 43 45 c 0,28,29
 43 62 43 62 50 72 c 1,30,-1
 139 137 l 1,31,32
 128 140 128 140 106 153.5 c 128,-1,33
 84 167 84 167 70.5 182 c 128,-1,34
 57 197 57 197 45.5 223.5 c 128,-1,35
 34 250 34 250 34 281 c 0,36,37
 34 355 34 355 89 396 c 128,-1,38
 144 437 144 437 231 437 c 0,39,40
 272 437 272 437 315 421 c 1,41,-1
 338 421 l 1,42,43
 405 427 405 427 462 453 c 1,44,-1
 480 434 l 1,45,-1
 464 377 l 1,0,1
163 -52 m 1,46,47
 126 -96 126 -96 126 -126.5 c 128,-1,48
 126 -157 126 -157 156 -179 c 128,-1,49
 186 -201 186 -201 237 -201 c 128,-1,50
 288 -201 288 -201 322.5 -175.5 c 128,-1,51
 357 -150 357 -150 357 -110.5 c 128,-1,52
 357 -71 357 -71 293 -66 c 1,53,-1
 163 -52 l 1,46,47
158 287 m 0,54,55
 158 236 158 236 176.5 202.5 c 128,-1,56
 195 169 195 169 231 169 c 0,57,58
 298 169 298 169 298 274 c 0,59,60
 298 323 298 323 279.5 356 c 128,-1,61
 261 389 261 389 226 389 c 0,62,63
 158 389 158 389 158 287 c 0,54,55
EndSplineSet
EndChar

StartChar: h
Encoding: 104 104 75
Width: 570
GlyphClass: 2
Flags: W
LayerCount: 2
Fore
SplineSet
491 286 m 2,0,-1
 491 76 l 2,1,2
 491 63 491 63 493.5 58 c 128,-1,3
 496 53 496 53 506 47 c 0,4,5
 520 38 520 38 559 27 c 1,6,-1
 551 -9 l 1,7,8
 452 0 452 0 439 0 c 128,-1,9
 426 0 426 0 323 -9 c 1,10,-1
 315 26 l 1,11,12
 340 33 340 33 356 44 c 0,13,14
 371 55 371 55 371 74 c 2,15,-1
 371 266 l 2,16,17
 371 316 371 316 355.5 338.5 c 128,-1,18
 340 361 340 361 304.5 361 c 128,-1,19
 269 361 269 361 214 322 c 1,20,-1
 214 74 l 2,21,22
 214 44 214 44 271 26 c 1,23,-1
 263 -9 l 1,24,25
 160 0 160 0 147 0 c 128,-1,26
 134 0 134 0 35 -9 c 1,27,-1
 26 27 l 1,28,29
 62 34 62 34 79 46 c 1,30,31
 94 55 94 55 94 76 c 2,32,-1
 94 607 l 2,33,34
 94 642 94 642 69 642 c 1,35,-1
 31 635 l 1,36,-1
 24 675 l 1,37,38
 56 689 56 689 114 702.5 c 128,-1,39
 172 716 172 716 207 718 c 1,40,-1
 226 695 l 1,41,42
 214 670 214 670 214 602 c 2,43,-1
 214 366 l 1,44,-1
 246 393 l 2,45,46
 298 437 298 437 343 437 c 0,47,48
 416 437 416 437 453.5 401.5 c 128,-1,49
 491 366 491 366 491 286 c 2,0,-1
EndSplineSet
EndChar

StartChar: i
Encoding: 105 105 76
Width: 298
GlyphClass: 2
Flags: W
LayerCount: 2
Fore
SplineSet
217 321 m 2,0,-1
 217 76 l 2,1,2
 217 63 217 63 219.5 58 c 128,-1,3
 222 53 222 53 232 48 c 0,4,5
 250 37 250 37 285 27 c 1,6,-1
 278 -9 l 1,7,8
 192 0 192 0 157 0 c 128,-1,9
 122 0 122 0 37 -9 c 1,10,-1
 29 27 l 1,11,12
 65 35 65 35 82 47 c 1,13,14
 97 56 97 56 97 76 c 2,15,-1
 97 326 l 2,16,17
 97 361 97 361 70 361 c 1,18,-1
 35 354 l 1,19,-1
 27 394 l 1,20,21
 63 409 63 409 122 423 c 128,-1,22
 181 437 181 437 213 437 c 1,23,-1
 233 414 l 1,24,25
 217 372 217 372 217 321 c 2,0,-1
62 591 m 128,-1,27
 62 622 62 622 83.5 641 c 128,-1,28
 105 660 105 660 140 660 c 128,-1,29
 175 660 175 660 197 641 c 128,-1,30
 219 622 219 622 219 591 c 128,-1,31
 219 560 219 560 197 541 c 128,-1,32
 175 522 175 522 140 522 c 128,-1,33
 105 522 105 522 83.5 541 c 128,-1,26
 62 560 62 560 62 591 c 128,-1,27
EndSplineSet
EndChar

StartChar: j
Encoding: 106 106 77
Width: 272
GlyphClass: 2
Flags: W
LayerCount: 2
Fore
SplineSet
87 -28 m 2,0,-1
 87 326 l 2,1,2
 87 361 87 361 60 361 c 1,3,-1
 25 354 l 1,4,-1
 17 394 l 1,5,6
 53 409 53 409 112 423 c 128,-1,7
 171 437 171 437 203 437 c 1,8,-1
 223 414 l 1,9,10
 207 372 207 372 207 321 c 2,11,-1
 207 2 l 2,12,13
 207 -69 207 -69 194 -96 c 1,14,15
 162 -147 162 -147 112 -190 c 0,16,17
 90 -209 90 -209 82 -216 c 0,18,19
 31 -260 31 -260 27 -260 c 1,20,-1
 1 -234 l 1,21,22
 61 -169 61 -169 80 -103 c 0,23,24
 87 -80 87 -80 87 -28 c 2,0,-1
52 591 m 128,-1,26
 52 622 52 622 73.5 641 c 128,-1,27
 95 660 95 660 130 660 c 128,-1,28
 165 660 165 660 187 641 c 128,-1,29
 209 622 209 622 209 591 c 128,-1,30
 209 560 209 560 187 541 c 128,-1,31
 165 522 165 522 130 522 c 128,-1,32
 95 522 95 522 73.5 541 c 128,-1,25
 52 560 52 560 52 591 c 128,-1,26
EndSplineSet
EndChar

StartChar: k
Encoding: 107 107 78
Width: 565
GlyphClass: 2
Flags: W
LayerCount: 2
Fore
SplineSet
217 602 m 2,0,-1
 217 254 l 1,1,-1
 338 358 l 2,2,3
 357 375 357 375 357 381 c 0,4,5
 357 390 357 390 327 394 c 1,6,-1
 324 428 l 1,7,8
 355 422 355 422 417.5 422 c 128,-1,9
 480 422 480 422 522 428 c 1,10,-1
 519 393 l 1,11,12
 498 388 498 388 483 384.5 c 128,-1,13
 468 381 468 381 443 359 c 2,14,-1
 325 256 l 1,15,-1
 491 76 l 2,16,17
 513 52 513 52 532 42 c 1,18,-1
 574 27 l 1,19,-1
 566 -9 l 1,20,21
 501 0 501 0 453.5 0 c 128,-1,22
 406 0 406 0 348 -9 c 1,23,-1
 340 27 l 1,24,25
 349 28 349 28 360 34 c 128,-1,26
 371 40 371 40 371 48 c 128,-1,27
 371 56 371 56 352 76 c 2,28,-1
 217 224 l 1,29,-1
 217 76 l 2,30,31
 217 63 217 63 220 58 c 128,-1,32
 223 53 223 53 232 47 c 0,33,34
 244 38 244 38 280 27 c 1,35,-1
 273 -9 l 1,36,37
 190 0 190 0 156 0 c 128,-1,38
 122 0 122 0 37 -9 c 1,39,-1
 29 27 l 1,40,41
 65 35 65 35 82 47 c 1,42,43
 97 56 97 56 97 76 c 2,44,-1
 97 607 l 2,45,46
 97 642 97 642 70 642 c 1,47,-1
 35 635 l 1,48,-1
 27 675 l 1,49,50
 63 690 63 690 122 704 c 128,-1,51
 181 718 181 718 213 718 c 1,52,-1
 233 695 l 1,53,54
 217 653 217 653 217 602 c 2,0,-1
EndSplineSet
EndChar

StartChar: l
Encoding: 108 108 79
Width: 298
GlyphClass: 2
Flags: W
LayerCount: 2
Fore
SplineSet
217 602 m 2,0,-1
 217 76 l 2,1,2
 217 63 217 63 219.5 58 c 128,-1,3
 222 53 222 53 232 48 c 0,4,5
 250 37 250 37 285 27 c 1,6,-1
 278 -9 l 1,7,8
 192 0 192 0 157 0 c 128,-1,9
 122 0 122 0 37 -9 c 1,10,-1
 29 27 l 1,11,12
 65 35 65 35 82 47 c 1,13,14
 97 56 97 56 97 76 c 2,15,-1
 97 607 l 2,16,17
 97 642 97 642 70 642 c 1,18,-1
 35 635 l 1,19,-1
 27 675 l 1,20,21
 63 690 63 690 122 704 c 128,-1,22
 181 718 181 718 213 718 c 1,23,-1
 233 695 l 1,24,25
 217 653 217 653 217 602 c 2,0,-1
EndSplineSet
EndChar

StartChar: m
Encoding: 109 109 80
Width: 838
GlyphClass: 2
Flags: W
LayerCount: 2
Fore
SplineSet
624 338.5 m 128,-1,1
 609 361 609 361 573.5 361 c 128,-1,2
 538 361 538 361 486 319 c 1,3,4
 488 299 488 299 488 286 c 2,5,-1
 488 76 l 2,6,7
 488 57 488 57 499 49 c 0,8,9
 515 37 515 37 542 27 c 1,10,-1
 534 -9 l 1,11,12
 446 0 446 0 433.5 0 c 128,-1,13
 421 0 421 0 322 -9 c 1,14,-1
 315 26 l 1,15,16
 339 34 339 34 353.5 45 c 128,-1,17
 368 56 368 56 368 74 c 2,18,-1
 368 266 l 2,19,20
 368 316 368 316 353 338.5 c 128,-1,21
 338 361 338 361 303 361 c 128,-1,22
 268 361 268 361 217 322 c 1,23,-1
 217 74 l 2,24,25
 217 43 217 43 264 28 c 1,26,-1
 271 26 l 1,27,-1
 264 -9 l 1,28,29
 165 0 165 0 151.5 0 c 128,-1,30
 138 0 138 0 39 -9 c 1,31,-1
 29 27 l 1,32,33
 65 35 65 35 81 45 c 128,-1,34
 97 55 97 55 97 76 c 2,35,-1
 97 326 l 2,36,37
 97 360 97 360 71 360 c 1,38,-1
 25 354 l 1,39,-1
 20 392 l 1,40,41
 53 407 53 407 103 420.5 c 128,-1,42
 153 434 153 434 185 437 c 1,43,-1
 206 414 l 1,44,45
 206 394 206 394 216 366 c 1,46,-1
 249 393 l 2,47,48
 302 437 302 437 343 437 c 0,49,50
 449 437 449 437 477 358 c 1,51,-1
 520 393 l 2,52,53
 573 437 573 437 614 437 c 0,54,55
 685 437 685 437 722 401.5 c 128,-1,56
 759 366 759 366 759 286 c 2,57,-1
 759 76 l 2,58,59
 759 63 759 63 762 58 c 128,-1,60
 765 53 765 53 774 47 c 0,61,62
 788 38 788 38 827 27 c 1,63,-1
 819 -9 l 1,64,65
 720 0 720 0 706 0 c 128,-1,66
 692 0 692 0 593 -9 c 1,67,-1
 586 26 l 1,68,69
 610 34 610 34 624.5 45 c 128,-1,70
 639 56 639 56 639 74 c 2,71,-1
 639 266 l 2,72,0
 639 316 639 316 624 338.5 c 128,-1,1
EndSplineSet
EndChar

StartChar: n
Encoding: 110 110 81
Width: 573
GlyphClass: 2
Flags: W
LayerCount: 2
Fore
SplineSet
217 74 m 2,0,1
 217 44 217 44 274 26 c 1,2,-1
 267 -9 l 1,3,4
 164 0 164 0 151 0 c 128,-1,5
 138 0 138 0 39 -9 c 1,6,-1
 29 27 l 1,7,8
 65 35 65 35 81 45 c 128,-1,9
 97 55 97 55 97 76 c 2,10,-1
 97 326 l 2,11,12
 97 360 97 360 71 360 c 1,13,-1
 25 354 l 1,14,-1
 20 392 l 1,15,16
 53 407 53 407 103 420.5 c 128,-1,17
 153 434 153 434 185 437 c 1,18,-1
 206 414 l 1,19,20
 206 394 206 394 216 366 c 1,21,-1
 249 393 l 2,22,23
 302 437 302 437 346 437 c 0,24,25
 419 437 419 437 456.5 401.5 c 128,-1,26
 494 366 494 366 494 286 c 2,27,-1
 494 76 l 2,28,29
 494 63 494 63 496.5 58 c 128,-1,30
 499 53 499 53 508 48 c 0,31,32
 527 37 527 37 562 27 c 1,33,-1
 554 -9 l 1,34,35
 455 0 455 0 441.5 0 c 128,-1,36
 428 0 428 0 325 -9 c 1,37,-1
 318 26 l 1,38,39
 343 34 343 34 359 45 c 0,40,41
 374 56 374 56 374 74 c 2,42,-1
 374 266 l 2,43,44
 374 316 374 316 358.5 338.5 c 128,-1,45
 343 361 343 361 307.5 361 c 128,-1,46
 272 361 272 361 217 322 c 1,47,-1
 217 74 l 2,0,1
EndSplineSet
EndChar

StartChar: o
Encoding: 111 111 82
Width: 510
GlyphClass: 2
Flags: W
LayerCount: 2
Fore
SplineSet
89.5 42 m 128,-1,1
 31 100 31 100 31 200.5 c 128,-1,2
 31 301 31 301 92.5 366.5 c 128,-1,3
 154 432 154 432 257.5 432 c 128,-1,4
 361 432 361 432 420 373.5 c 128,-1,5
 479 315 479 315 479 215.5 c 128,-1,6
 479 116 479 116 416.5 50 c 128,-1,7
 354 -16 354 -16 251 -16 c 128,-1,0
 148 -16 148 -16 89.5 42 c 128,-1,1
160 219 m 0,8,9
 160 130 160 130 188.5 82.5 c 128,-1,10
 217 35 217 35 268 35 c 0,11,12
 350 35 350 35 350 197 c 0,13,14
 350 286 350 286 321 333.5 c 128,-1,15
 292 381 292 381 240 381 c 0,16,17
 160 381 160 381 160 219 c 0,8,9
EndSplineSet
EndChar

StartChar: p
Encoding: 112 112 83
Width: 532
GlyphClass: 2
Flags: W
LayerCount: 2
Fore
SplineSet
282 35 m 0,0,1
 321 35 321 35 348.5 78.5 c 128,-1,2
 376 122 376 122 376 206 c 0,3,4
 376 362 376 362 285 362 c 0,5,6
 248 362 248 362 204 321 c 1,7,-1
 204 91 l 1,8,9
 215 67 215 67 237 51 c 128,-1,10
 259 35 259 35 282 35 c 0,0,1
284 -253 m 1,11,12
 191 -244 191 -244 158 -244 c 128,-1,13
 125 -244 125 -244 26 -253 c 1,14,-1
 16 -217 l 1,15,16
 52 -209 52 -209 68 -199 c 128,-1,17
 84 -189 84 -189 84 -168 c 2,18,-1
 84 331 l 2,19,20
 84 365 84 365 58 365 c 1,21,-1
 12 359 l 1,22,-1
 7 397 l 1,23,24
 93 435 93 435 170 442 c 1,25,-1
 191 419 l 1,26,27
 191 397 191 397 201 369 c 1,28,-1
 245 402 l 2,29,30
 291 437 291 437 328 437 c 0,31,32
 419 437 419 437 462 382 c 128,-1,33
 505 327 505 327 505 224.5 c 128,-1,34
 505 122 505 122 440 53 c 128,-1,35
 375 -16 375 -16 273 -16 c 0,36,37
 240 -16 240 -16 204 6 c 1,38,-1
 204 -170 l 2,39,40
 204 -189 204 -189 220 -200 c 1,41,42
 243 -210 243 -210 291 -218 c 1,43,-1
 284 -253 l 1,11,12
EndSplineSet
EndChar

StartChar: q
Encoding: 113 113 84
Width: 505
GlyphClass: 2
Flags: W
LayerCount: 2
Fore
SplineSet
448 319 m 2,0,-1
 448 -169 l 2,1,2
 448 -182 448 -182 450.5 -187 c 128,-1,3
 453 -192 453 -192 463 -198 c 1,4,-1
 511 -218 l 1,5,-1
 504 -254 l 1,6,7
 437 -244 437 -244 396 -244 c 128,-1,8
 355 -244 355 -244 245 -254 c 1,9,-1
 237 -215 l 1,10,11
 292 -204 292 -204 311 -196 c 128,-1,12
 330 -188 330 -188 330 -168 c 2,13,-1
 330 42 l 1,14,15
 269 -16 269 -16 223 -16 c 0,16,17
 129 -16 129 -16 78 41 c 128,-1,18
 27 98 27 98 27 199.5 c 128,-1,19
 27 301 27 301 89.5 369 c 128,-1,20
 152 437 152 437 257 437 c 0,21,22
 284 437 284 437 319.5 429 c 128,-1,23
 355 421 355 421 373.5 421 c 128,-1,24
 392 421 392 421 440 437 c 1,25,-1
 460 424 l 1,26,27
 448 399 448 399 448 319 c 2,0,-1
182.5 93.5 m 128,-1,29
 209 53 209 53 249 53 c 128,-1,30
 289 53 289 53 328 83 c 1,31,-1
 328 315 l 2,32,33
 328 345 328 345 305 363 c 128,-1,34
 282 381 282 381 244.5 381 c 128,-1,35
 207 381 207 381 181.5 340.5 c 128,-1,36
 156 300 156 300 156 217 c 128,-1,28
 156 134 156 134 182.5 93.5 c 128,-1,29
EndSplineSet
EndChar

StartChar: r
Encoding: 114 114 85
Width: 408
GlyphClass: 2
Flags: W
LayerCount: 2
Fore
SplineSet
335 437 m 0,0,1
 365 437 365 437 413 413 c 1,2,3
 408 386 408 386 394.5 336 c 128,-1,4
 381 286 381 286 372 264 c 1,5,-1
 330 259 l 1,6,7
 330 354 330 354 303 354 c 0,8,9
 267 354 267 354 217 285 c 1,10,-1
 217 77 l 2,11,12
 217 64 217 64 221 58.5 c 128,-1,13
 225 53 225 53 236 48 c 0,14,15
 255 39 255 39 308 31 c 1,16,-1
 301 -9 l 1,17,18
 182 0 182 0 150 0 c 128,-1,19
 118 0 118 0 37 -9 c 1,20,-1
 28 27 l 1,21,22
 65 35 65 35 81 45 c 128,-1,23
 97 55 97 55 97 76 c 2,24,-1
 97 326 l 2,25,26
 97 360 97 360 71 360 c 1,27,-1
 25 354 l 1,28,-1
 20 392 l 1,29,30
 54 407 54 407 104.5 421 c 128,-1,31
 155 435 155 435 187 437 c 1,32,-1
 208 414 l 1,33,34
 208 377 208 377 217 345 c 1,35,-1
 245 384 l 2,36,37
 282 437 282 437 335 437 c 0,0,1
EndSplineSet
EndChar

StartChar: s
Encoding: 115 115 86
Width: 389
GlyphClass: 2
Flags: W
LayerCount: 2
Fore
SplineSet
183 32 m 0,0,1
 207 32 207 32 223 47 c 128,-1,2
 239 62 239 62 239 84.5 c 128,-1,3
 239 107 239 107 233 118.5 c 128,-1,4
 227 130 227 130 213 140 c 0,5,6
 193 156 193 156 156.5 174 c 128,-1,7
 120 192 120 192 99.5 205 c 128,-1,8
 79 218 79 218 59.5 247.5 c 128,-1,9
 40 277 40 277 40 316 c 0,10,11
 40 372 40 372 84.5 404.5 c 128,-1,12
 129 437 129 437 195 437 c 128,-1,13
 261 437 261 437 345 414 c 1,14,15
 342 349 342 349 328 304 c 1,16,-1
 288 295 l 1,17,18
 264 391 264 391 197 391 c 0,19,20
 152 391 152 391 152 338 c 0,21,22
 152 317 152 317 169.5 302 c 128,-1,23
 187 287 187 287 221 270.5 c 128,-1,24
 255 254 255 254 270 245.5 c 128,-1,25
 285 237 285 237 310 218 c 0,26,27
 356 182 356 182 356 117 c 128,-1,28
 356 52 356 52 306 18 c 128,-1,29
 256 -16 256 -16 174.5 -16 c 128,-1,30
 93 -16 93 -16 32 11 c 1,31,32
 30 28 30 28 30 70.5 c 128,-1,33
 30 113 30 113 32 130 c 1,34,-1
 81 141 l 1,35,36
 89 92 89 92 116 62 c 128,-1,37
 143 32 143 32 183 32 c 0,0,1
EndSplineSet
EndChar

StartChar: t
Encoding: 116 116 87
Width: 342
GlyphClass: 2
Flags: W
LayerCount: 2
Fore
SplineSet
193 124 m 2,0,1
 193 86 193 86 204 73 c 128,-1,2
 215 60 215 60 244.5 60 c 128,-1,3
 274 60 274 60 321 90 c 1,4,-1
 341 57 l 1,5,6
 253 -16 253 -16 196 -16 c 128,-1,7
 139 -16 139 -16 106 11.5 c 128,-1,8
 73 39 73 39 73 109 c 2,9,-1
 73 371 l 1,10,-1
 23 371 l 1,11,-1
 15 408 l 1,12,-1
 73 426 l 1,13,-1
 73 475 l 1,14,-1
 193 530 l 1,15,-1
 193 420 l 1,16,-1
 311 429 l 1,17,-1
 300 364 l 1,18,-1
 193 368 l 1,19,-1
 193 124 l 2,0,1
EndSplineSet
EndChar

StartChar: u
Encoding: 117 117 88
Width: 550
GlyphClass: 2
Flags: W
LayerCount: 2
Fore
SplineSet
467 321 m 2,0,-1
 467 95 l 2,1,2
 467 69 467 69 483 62 c 1,3,4
 496 53 496 53 536 53 c 1,5,-1
 544 19 l 1,6,7
 455 3 455 3 402 -16 c 1,8,9
 350 16 350 16 350 54 c 1,10,11
 276 -16 276 -16 226 -16 c 0,12,13
 154 -16 154 -16 116 19 c 128,-1,14
 78 54 78 54 78 135 c 2,15,-1
 78 326 l 2,16,17
 78 361 78 361 51 361 c 1,18,-1
 16 354 l 1,19,-1
 8 394 l 1,20,21
 44 409 44 409 103 423 c 128,-1,22
 162 437 162 437 194 437 c 1,23,-1
 214 414 l 1,24,25
 198 372 198 372 198 321 c 2,26,-1
 198 155 l 2,27,28
 198 105 198 105 213.5 82.5 c 128,-1,29
 229 60 229 60 264.5 60 c 128,-1,30
 300 60 300 60 347 96 c 1,31,-1
 347 326 l 2,32,33
 347 361 347 361 320 361 c 1,34,-1
 285 354 l 1,35,-1
 277 394 l 1,36,37
 313 409 313 409 372 423 c 128,-1,38
 431 437 431 437 463 437 c 1,39,-1
 483 414 l 1,40,41
 467 372 467 372 467 321 c 2,0,-1
EndSplineSet
EndChar

StartChar: v
Encoding: 118 118 89
Width: 464
GlyphClass: 2
Flags: W
LayerCount: 2
Fore
SplineSet
342 347 m 2,0,1
 347 358 347 358 347 366.5 c 128,-1,2
 347 375 347 375 341 379 c 1,3,4
 330 389 330 389 294 393 c 1,5,-1
 292 428 l 1,6,7
 348 421 348 421 386 421 c 128,-1,8
 424 421 424 421 483 428 c 1,9,-1
 476 391 l 1,10,11
 450 388 450 388 440.5 379.5 c 128,-1,12
 431 371 431 371 419 344 c 2,13,-1
 268 -9 l 1,14,-1
 195 -9 l 1,15,-1
 43 348 l 2,16,17
 33 373 33 373 23.5 381 c 128,-1,18
 14 389 14 389 -12 392 c 1,19,-1
 -19 429 l 1,20,21
 48 421 48 421 89 421 c 128,-1,22
 130 421 130 421 221 429 c 1,23,-1
 217 394 l 1,24,25
 186 386 186 386 175.5 381.5 c 128,-1,26
 165 377 165 377 165 368 c 128,-1,27
 165 359 165 359 170 348 c 2,28,-1
 248 150 l 1,29,-1
 254 124 l 1,30,-1
 260 123 l 1,31,-1
 267 152 l 1,32,-1
 342 347 l 2,0,1
EndSplineSet
EndChar

StartChar: w
Encoding: 119 119 90
Width: 730
GlyphClass: 2
Flags: W
LayerCount: 2
Fore
SplineSet
-17 429 m 1,0,1
 50 421 50 421 91 421 c 128,-1,2
 132 421 132 421 223 429 c 1,3,-1
 219 394 l 1,4,5
 188 386 188 386 176 381 c 0,6,7
 168 377 168 377 168 368 c 128,-1,8
 168 359 168 359 172 348 c 2,9,-1
 243 150 l 1,10,-1
 249 124 l 1,11,-1
 255 123 l 1,12,-1
 262 152 l 1,13,-1
 357 421 l 1,14,-1
 431 421 l 1,15,-1
 519 150 l 1,16,-1
 525 124 l 1,17,-1
 531 123 l 1,18,-1
 538 152 l 1,19,-1
 606 347 l 1,20,21
 611 358 611 358 611 366.5 c 128,-1,22
 611 375 611 375 605 379 c 1,23,24
 594 389 594 389 558 393 c 1,25,-1
 556 428 l 1,26,27
 612 421 612 421 650 421 c 128,-1,28
 688 421 688 421 747 428 c 1,29,-1
 740 391 l 1,30,31
 714 388 714 388 704.5 379.5 c 128,-1,32
 695 371 695 371 683 344 c 2,33,-1
 540 -9 l 1,34,-1
 466 -9 l 1,35,-1
 375 241 l 1,36,-1
 368 270 l 1,37,-1
 362 271 l 1,38,-1
 356 241 l 1,39,-1
 262 -9 l 1,40,-1
 190 -9 l 1,41,-1
 45 348 l 2,42,43
 35 373 35 373 25.5 381 c 128,-1,44
 16 389 16 389 -10 392 c 1,45,-1
 -17 429 l 1,0,1
EndSplineSet
EndChar

StartChar: x
Encoding: 120 120 91
Width: 520
GlyphClass: 2
Flags: W
LayerCount: 2
Fore
SplineSet
3 429 m 1,0,1
 63 421 63 421 131 421 c 128,-1,2
 199 421 199 421 253 429 c 1,3,-1
 250 393 l 1,4,5
 206 382 206 382 206 369 c 0,6,7
 206 362 206 362 217 349 c 2,8,-1
 281 272 l 1,9,-1
 339 348 l 2,10,11
 347 359 347 359 347 367 c 128,-1,12
 347 375 347 375 344 379 c 128,-1,13
 341 383 341 383 334.5 385 c 128,-1,14
 328 387 328 387 323 388 c 128,-1,15
 318 389 318 389 310.5 390 c 128,-1,16
 303 391 303 391 300 392 c 1,17,-1
 298 428 l 1,18,19
 328 421 328 421 385 421 c 128,-1,20
 442 421 442 421 487 428 c 1,21,-1
 483 392 l 1,22,23
 462 391 462 391 447.5 381.5 c 128,-1,24
 433 372 433 372 412 347 c 2,25,-1
 316 230 l 1,26,-1
 451 70 l 2,27,28
 486 30 486 30 525 27 c 1,29,-1
 517 -9 l 1,30,31
 447 0 447 0 390 0 c 128,-1,32
 333 0 333 0 270 -9 c 1,33,-1
 262 27 l 1,34,35
 320 37 320 37 320 56 c 0,36,37
 320 64 320 64 308 78 c 2,38,-1
 236 163 l 1,39,-1
 165 78 l 2,40,41
 152 63 152 63 152 55 c 128,-1,42
 152 47 152 47 156.5 43 c 128,-1,43
 161 39 161 39 169 36.5 c 128,-1,44
 177 34 177 34 183 32 c 0,45,46
 205 27 205 27 209 27 c 1,47,-1
 200 -9 l 1,48,49
 139 0 139 0 103.5 0 c 128,-1,50
 68 0 68 0 10 -9 c 1,51,-1
 2 27 l 1,52,53
 51 32 51 32 87 74 c 2,54,-1
 202 204 l 1,55,-1
 77 353 l 2,56,57
 45 392 45 392 8 393 c 1,58,-1
 3 429 l 1,0,1
EndSplineSet
EndChar

StartChar: y
Encoding: 121 121 92
Width: 465
GlyphClass: 2
Flags: W
LayerCount: 2
Fore
SplineSet
70 -244 m 2,0,-1
 53 -244 l 1,1,2
 29 -203 29 -203 16 -127 c 1,3,-1
 39 -113 l 1,4,5
 68 -131 68 -131 90 -131 c 0,6,7
 137 -131 137 -131 162 -88 c 1,8,-1
 196 -9 l 1,9,-1
 43 348 l 2,10,11
 31 375 31 375 22 382 c 128,-1,12
 13 389 13 389 -12 392 c 1,13,-1
 -19 429 l 1,14,15
 61 421 61 421 96 421 c 128,-1,16
 131 421 131 421 221 429 c 1,17,-1
 217 394 l 1,18,19
 215 393 215 393 206.5 391 c 128,-1,20
 198 389 198 389 192.5 387.5 c 128,-1,21
 187 386 187 386 180 384 c 0,22,23
 166 378 166 378 166 369 c 0,24,25
 166 362 166 362 170 348 c 1,26,-1
 258 123 l 1,27,-1
 344 352 l 2,28,29
 347 361 347 361 347 369 c 0,30,31
 347 387 347 387 294 393 c 1,32,-1
 292 428 l 1,33,34
 341 421 341 421 374 421 c 128,-1,35
 407 421 407 421 483 428 c 1,36,-1
 476 391 l 1,37,38
 452 390 452 390 442.5 382.5 c 128,-1,39
 433 375 433 375 423 352 c 2,40,-1
 213 -139 l 2,41,42
 168 -244 168 -244 70 -244 c 2,0,-1
EndSplineSet
EndChar

StartChar: z
Encoding: 122 122 93
Width: 419
GlyphClass: 2
Flags: W
LayerCount: 2
Fore
SplineSet
160 421 m 2,0,-1
 378 421 l 1,1,-1
 389 393 l 1,2,-1
 169 55 l 1,3,-1
 303 55 l 1,4,5
 312 64 312 64 330 97 c 128,-1,6
 348 130 348 130 354 147 c 1,7,-1
 400 139 l 1,8,9
 398 97 398 97 373 0 c 1,10,-1
 30 0 l 1,11,-1
 24 28 l 1,12,-1
 245 368 l 1,13,-1
 114 368 l 1,14,15
 106 359 106 359 93.5 329.5 c 128,-1,16
 81 300 81 300 76 280 c 1,17,-1
 32 287 l 1,18,19
 32 397 32 397 38 419 c 1,20,-1
 63 435 l 1,21,22
 110 421 110 421 160 421 c 2,0,-1
EndSplineSet
EndChar

StartChar: braceleft
Encoding: 123 123 94
Width: 336
GlyphClass: 2
Flags: W
LayerCount: 2
Fore
SplineSet
125 411 m 1,0,-1
 116 564 l 1,1,2
 116 599 116 599 144 624 c 0,3,4
 167 645 167 645 249 660 c 0,5,6
 276 665 276 665 281 666 c 1,7,-1
 296 637 l 1,8,9
 289 634 289 634 274.5 628.5 c 128,-1,10
 260 623 260 623 250 617.5 c 128,-1,11
 240 612 240 612 235 607 c 0,12,13
 222 594 222 594 222 574 c 128,-1,14
 222 554 222 554 229 499 c 128,-1,15
 236 444 236 444 236 421 c 0,16,17
 236 364 236 364 198.5 318.5 c 128,-1,18
 161 273 161 273 117 261 c 1,19,-1
 117 252 l 1,20,21
 161 240 161 240 198.5 193 c 128,-1,22
 236 146 236 146 236 87 c 0,23,24
 236 61 236 61 229 2.5 c 128,-1,25
 222 -56 222 -56 222 -73.5 c 128,-1,26
 222 -91 222 -91 226 -98.5 c 128,-1,27
 230 -106 230 -106 235 -111 c 128,-1,28
 240 -116 240 -116 250 -121.5 c 128,-1,29
 260 -127 260 -127 266 -129 c 0,30,31
 289 -138 289 -138 296 -141 c 1,32,-1
 281 -170 l 1,33,34
 276 -169 276 -169 249 -164 c 128,-1,35
 222 -159 222 -159 211 -156.5 c 128,-1,36
 200 -154 200 -154 177.5 -146 c 128,-1,37
 155 -138 155 -138 144 -128 c 0,38,39
 116 -103 116 -103 116 -68 c 1,40,-1
 125 97 l 1,41,42
 125 152 125 152 103 193.5 c 128,-1,43
 81 235 81 235 40 235 c 1,44,-1
 40 278 l 1,45,46
 81 278 81 278 103 318 c 128,-1,47
 125 358 125 358 125 411 c 1,0,-1
EndSplineSet
EndChar

StartChar: bar
Encoding: 124 124 95
Width: 309
GlyphClass: 2
Flags: W
LayerCount: 2
Fore
SplineSet
112 -170 m 1,0,-1
 112 666 l 1,1,-1
 197 666 l 1,2,-1
 197 -170 l 1,3,-1
 112 -170 l 1,0,-1
EndSplineSet
EndChar

StartChar: braceright
Encoding: 125 125 96
Width: 336
GlyphClass: 2
Flags: W
LayerCount: 2
Fore
SplineSet
211 97 m 1,0,-1
 220 -68 l 1,1,2
 220 -103 220 -103 192 -128 c 0,3,4
 169 -149 169 -149 87 -164 c 0,5,6
 60 -169 60 -169 55 -170 c 1,7,-1
 40 -141 l 1,8,9
 47 -138 47 -138 61.5 -132.5 c 128,-1,10
 76 -127 76 -127 86 -121.5 c 128,-1,11
 96 -116 96 -116 101 -111 c 0,12,13
 114 -98 114 -98 114 -77 c 128,-1,14
 114 -56 114 -56 107 2.5 c 128,-1,15
 100 61 100 61 100 87 c 0,16,17
 100 146 100 146 137.5 193 c 128,-1,18
 175 240 175 240 219 252 c 1,19,-1
 219 261 l 1,20,21
 175 273 175 273 137.5 318.5 c 128,-1,22
 100 364 100 364 100 421 c 0,23,24
 100 444 100 444 107 499 c 128,-1,25
 114 554 114 554 114 570.5 c 128,-1,26
 114 587 114 587 110 594.5 c 128,-1,27
 106 602 106 602 101 607 c 128,-1,28
 96 612 96 612 86 617.5 c 128,-1,29
 76 623 76 623 70 625 c 0,30,31
 47 634 47 634 40 637 c 1,32,-1
 55 666 l 1,33,34
 60 665 60 665 87 660 c 128,-1,35
 114 655 114 655 125 652.5 c 128,-1,36
 136 650 136 650 158.5 642 c 128,-1,37
 181 634 181 634 192 624 c 0,38,39
 220 599 220 599 220 564 c 1,40,-1
 211 411 l 1,41,42
 211 358 211 358 233 318 c 128,-1,43
 255 278 255 278 296 278 c 1,44,-1
 296 235 l 1,45,46
 255 235 255 235 233 193.5 c 128,-1,47
 211 152 211 152 211 97 c 1,0,-1
EndSplineSet
EndChar

StartChar: asciitilde
Encoding: 126 126 97
Width: 503
GlyphClass: 2
Flags: W
LayerCount: 2
Fore
SplineSet
157 237 m 0,0,1
 120 237 120 237 69 172 c 1,2,-1
 30 198 l 1,3,4
 45 225 45 225 81 270.5 c 128,-1,5
 117 316 117 316 137 333 c 1,6,-1
 172 339 l 1,7,8
 189 335 189 335 253.5 299 c 128,-1,9
 318 263 318 263 346 263 c 0,10,11
 384 263 384 263 434 328 c 1,12,-1
 473 307 l 1,13,14
 457 277 457 277 421 228.5 c 128,-1,15
 385 180 385 180 366 165 c 1,16,-1
 331 159 l 1,17,18
 314 164 314 164 249.5 200.5 c 128,-1,19
 185 237 185 237 157 237 c 0,0,1
EndSplineSet
EndChar

StartChar: exclamdown
Encoding: 161 161 98
Width: 271
GlyphClass: 2
Flags: W
LayerCount: 2
Fore
SplineSet
206 -244 m 1,0,-1
 193 -260 l 1,1,2
 170 -260 170 -260 122.5 -254 c 128,-1,3
 75 -248 75 -248 62 -242 c 1,4,5
 84 17 84 17 103 215 c 1,6,-1
 157 228 l 1,7,-1
 174 216 l 1,8,-1
 181 63 l 1,9,-1
 206 -244 l 1,0,-1
219 363 m 128,-1,11
 219 330 219 330 196 309.5 c 128,-1,12
 173 289 173 289 136 289 c 128,-1,13
 99 289 99 289 75.5 309.5 c 128,-1,14
 52 330 52 330 52 363 c 128,-1,15
 52 396 52 396 75.5 416.5 c 128,-1,16
 99 437 99 437 136 437 c 128,-1,17
 173 437 173 437 196 416.5 c 128,-1,10
 219 396 219 396 219 363 c 128,-1,11
EndSplineSet
EndChar

StartChar: cent
Encoding: 162 162 99
Width: 462
GlyphClass: 2
Flags: W
LayerCount: 2
Fore
SplineSet
331 355 m 1,0,1
 332 363 332 363 332 376 c 0,2,3
 332 431 332 431 321 449 c 1,4,5
 305 459 305 459 280 463 c 1,6,-1
 270 154 l 1,7,8
 276 153 276 153 288 153 c 0,9,10
 344 153 344 153 407 189 c 1,11,-1
 427 160 l 1,12,13
 340 82 340 82 267 75 c 1,14,-1
 264 -11 l 1,15,-1
 216 -16 l 1,16,-1
 219 77 l 1,17,18
 138 88 138 88 89 145 c 128,-1,19
 40 202 40 202 40 291 c 128,-1,20
 40 380 40 380 92.5 444.5 c 128,-1,21
 145 509 145 509 235 517 c 1,22,-1
 238 604 l 1,23,-1
 286 610 l 1,24,-1
 282 516 l 1,25,26
 353 507 353 507 421 480 c 1,27,28
 419 459 419 459 406.5 411.5 c 128,-1,29
 394 364 394 364 385 345 c 1,30,-1
 331 355 l 1,0,1
164 314 m 0,31,32
 164 209 164 209 222 170 c 1,33,-1
 233 464 l 1,34,35
 164 450 164 450 164 314 c 0,31,32
EndSplineSet
EndChar

StartChar: sterling
Encoding: 163 163 100
Width: 525
GlyphClass: 2
Flags: W
LayerCount: 2
Fore
SplineSet
119 335 m 1,0,-1
 119 366 l 2,1,2
 119 467 119 467 177 538.5 c 128,-1,3
 235 610 235 610 338 610 c 0,4,5
 384 610 384 610 458 592 c 1,6,7
 450 529 450 529 423 446 c 1,8,-1
 374 443 l 1,9,10
 374 478 374 478 364 538 c 1,11,12
 344 555 344 555 309.5 555 c 128,-1,13
 275 555 275 555 259.5 515 c 128,-1,14
 244 475 244 475 244 423 c 2,15,-1
 244 335 l 1,16,-1
 380 335 l 1,17,-1
 370 283 l 1,18,-1
 244 283 l 1,19,-1
 244 187 l 2,20,21
 244 152 244 152 231 124.5 c 128,-1,22
 218 97 218 97 201 84 c 1,23,-1
 180 77 l 1,24,-1
 183 71 l 1,25,-1
 390 71 l 1,26,27
 400 81 400 81 417 120 c 128,-1,28
 434 159 434 159 438 178 c 1,29,-1
 485 169 l 1,30,31
 483 97 483 97 466 0 c 1,32,-1
 157 0 l 2,33,34
 137 0 137 0 38 -9 c 1,35,-1
 30 29 l 1,36,37
 40 30 40 30 59.5 39.5 c 128,-1,38
 79 49 79 49 88 59 c 0,39,40
 119 94 119 94 119 135 c 2,41,-1
 119 283 l 1,42,-1
 50 283 l 1,43,-1
 60 335 l 1,44,-1
 119 335 l 1,0,-1
EndSplineSet
EndChar

StartChar: currency
Encoding: 164 164 101
Width: 586
GlyphClass: 2
Flags: W
LayerCount: 2
Fore
SplineSet
131 180 m 1,0,1
 93 234 93 234 93 303.5 c 128,-1,2
 93 373 93 373 132 426 c 1,3,4
 87 457 87 457 60 482 c 1,5,-1
 63 504 l 1,6,7
 79 526 79 526 93 533 c 1,8,-1
 115 537 l 1,9,10
 143 504 143 504 169 466 c 1,11,12
 223 509 223 509 292.5 509 c 128,-1,13
 362 509 362 509 416 466 c 1,14,15
 444 506 444 506 471 537 c 1,16,-1
 493 533 l 1,17,18
 507 526 507 526 523 504 c 1,19,-1
 526 482 l 1,20,21
 499 457 499 457 454 426 c 1,22,23
 494 372 494 372 494 303.5 c 128,-1,24
 494 235 494 235 455 180 c 1,25,26
 495 152 495 152 526 125 c 1,27,-1
 523 103 l 1,28,29
 507 81 507 81 493 74 c 1,30,-1
 471 70 l 1,31,32
 445 99 445 99 416 140 c 1,33,34
 361 98 361 98 292.5 98 c 128,-1,35
 224 98 224 98 169 140 c 1,36,37
 142 101 142 101 115 70 c 1,38,-1
 93 74 l 1,39,40
 79 81 79 81 63 103 c 1,41,-1
 60 125 l 1,42,43
 91 152 91 152 131 180 c 1,0,1
177 303 m 128,-1,45
 177 248 177 248 210.5 211.5 c 128,-1,46
 244 175 244 175 293.5 175 c 128,-1,47
 343 175 343 175 376.5 211.5 c 128,-1,48
 410 248 410 248 410 303 c 128,-1,49
 410 358 410 358 376.5 395 c 128,-1,50
 343 432 343 432 293.5 432 c 128,-1,51
 244 432 244 432 210.5 395 c 128,-1,44
 177 358 177 358 177 303 c 128,-1,45
EndSplineSet
EndChar

StartChar: yen
Encoding: 165 165 102
Width: 592
GlyphClass: 2
Flags: W
LayerCount: 2
Fore
SplineSet
250 251 m 1,0,-1
 250 279 l 1,1,-1
 89 515 l 1,2,3
 70 548 70 548 53.5 559 c 128,-1,4
 37 570 37 570 7 573 c 1,5,-1
 3 605 l 1,6,7
 49 596 49 596 118.5 596 c 128,-1,8
 188 596 188 596 256 605 c 1,9,-1
 253 573 l 1,10,11
 222 568 222 568 207 561.5 c 128,-1,12
 192 555 192 555 187 542.5 c 128,-1,13
 182 530 182 530 192 514 c 1,14,-1
 316 340 l 1,15,-1
 439 514 l 2,16,17
 448 526 448 526 446.5 538.5 c 128,-1,18
 445 551 445 551 437.5 555 c 128,-1,19
 430 559 430 559 379 573 c 1,20,-1
 376 605 l 1,21,22
 443 596 443 596 488 596 c 128,-1,23
 533 596 533 596 594 605 c 1,24,-1
 590 573 l 1,25,26
 556 570 556 570 537 557.5 c 128,-1,27
 518 545 518 545 495 508 c 1,28,-1
 339 281 l 1,29,-1
 339 251 l 1,30,-1
 477 251 l 1,31,-1
 469 209 l 1,32,-1
 339 209 l 1,33,-1
 339 156 l 1,34,-1
 463 156 l 1,35,-1
 455 114 l 1,36,-1
 339 114 l 1,37,-1
 339 68 l 2,38,39
 339 44 339 44 355 37 c 0,40,41
 371 29 371 29 427 23 c 1,42,-1
 419 -8 l 1,43,44
 353 0 353 0 295.5 0 c 128,-1,45
 238 0 238 0 172 -8 c 1,46,-1
 165 24 l 1,47,48
 215 29 215 29 232.5 36.5 c 128,-1,49
 250 44 250 44 250 68 c 2,50,-1
 250 114 l 1,51,-1
 115 114 l 1,52,-1
 123 156 l 1,53,-1
 250 156 l 1,54,-1
 250 209 l 1,55,-1
 129 209 l 1,56,-1
 137 251 l 1,57,-1
 250 251 l 1,0,-1
EndSplineSet
EndChar

StartChar: brokenbar
Encoding: 166 166 103
Width: 309
GlyphClass: 2
Flags: W
LayerCount: 2
Fore
SplineSet
112 -170 m 1,0,-1
 112 124 l 1,1,-1
 197 124 l 1,2,-1
 197 -170 l 1,3,-1
 112 -170 l 1,0,-1
112 379 m 1,4,-1
 112 666 l 1,5,-1
 197 666 l 1,6,-1
 197 379 l 1,7,-1
 112 379 l 1,4,-1
EndSplineSet
EndChar

StartChar: section
Encoding: 167 167 104
Width: 471
GlyphClass: 2
Flags: W
LayerCount: 2
Fore
SplineSet
53.5 209 m 128,-1,1
 45 235 45 235 45 267 c 128,-1,2
 45 299 45 299 67 331 c 128,-1,3
 89 363 89 363 122 382 c 1,4,5
 47 434 47 434 47 509 c 128,-1,6
 47 584 47 584 101.5 625 c 128,-1,7
 156 666 156 666 248 666 c 0,8,9
 293 666 293 666 390 639 c 1,10,11
 389 617 389 617 382.5 569.5 c 128,-1,12
 376 522 376 522 371 505 c 1,13,-1
 329 496 l 1,14,15
 314 575 314 575 306 590 c 1,16,17
 282 613 282 613 243.5 613 c 128,-1,18
 205 613 205 613 188 592 c 128,-1,19
 171 571 171 571 171 540 c 128,-1,20
 171 509 171 509 190 489 c 128,-1,21
 209 469 209 469 239 450.5 c 128,-1,22
 269 432 269 432 298.5 414.5 c 128,-1,23
 328 397 328 397 339 389.5 c 128,-1,24
 350 382 350 382 371.5 364 c 128,-1,25
 393 346 393 346 402 332 c 0,26,27
 427 291 427 291 427 250.5 c 128,-1,28
 427 210 427 210 403.5 177 c 128,-1,29
 380 144 380 144 346 124 c 1,30,31
 419 70 419 70 419 -8.5 c 128,-1,32
 419 -87 419 -87 359.5 -129 c 128,-1,33
 300 -171 300 -171 207.5 -171 c 128,-1,34
 115 -171 115 -171 55 -136 c 1,35,-1
 55 8 l 1,36,-1
 103 19 l 1,37,38
 112 -41 112 -41 141.5 -78.5 c 128,-1,39
 171 -116 171 -116 214 -116 c 0,40,41
 290 -116 290 -116 290 -36 c 0,42,43
 290 -2 290 -2 266 20.5 c 128,-1,44
 242 43 242 43 194.5 72 c 128,-1,45
 147 101 147 101 137 107.5 c 128,-1,46
 127 114 127 114 103 133.5 c 128,-1,47
 79 153 79 153 70.5 168 c 128,-1,0
 62 183 62 183 53.5 209 c 128,-1,1
293 158 m 1,48,49
 310 184 310 184 310 218 c 128,-1,50
 310 252 310 252 286 275 c 0,51,52
 256 304 256 304 175 350 c 1,53,54
 157 324 157 324 157 291.5 c 128,-1,55
 157 259 157 259 174 241 c 128,-1,56
 191 223 191 223 219 205 c 0,57,58
 255 182 255 182 293 158 c 1,48,49
EndSplineSet
EndChar

StartChar: dieresis
Encoding: 168 168 105
Width: 384
GlyphClass: 2
Flags: W
LayerCount: 2
Fore
SplineSet
5 587 m 128,-1,1
 5 617 5 617 25.5 635.5 c 128,-1,2
 46 654 46 654 80 654 c 128,-1,3
 114 654 114 654 135 635.5 c 128,-1,4
 156 617 156 617 156 587 c 128,-1,5
 156 557 156 557 135 538.5 c 128,-1,6
 114 520 114 520 80.5 520 c 128,-1,7
 47 520 47 520 26 538.5 c 128,-1,0
 5 557 5 557 5 587 c 128,-1,1
228 587 m 128,-1,9
 228 617 228 617 248.5 635.5 c 128,-1,10
 269 654 269 654 303 654 c 128,-1,11
 337 654 337 654 358 635.5 c 128,-1,12
 379 617 379 617 379 587 c 128,-1,13
 379 557 379 557 358 538.5 c 128,-1,14
 337 520 337 520 303.5 520 c 128,-1,15
 270 520 270 520 249 538.5 c 128,-1,8
 228 557 228 557 228 587 c 128,-1,9
EndSplineSet
EndChar

StartChar: copyright
Encoding: 169 169 106
Width: 706
GlyphClass: 2
Flags: W
LayerCount: 2
Fore
SplineSet
358 131 m 0,0,1
 281 131 281 131 231.5 174 c 128,-1,2
 182 217 182 217 182 293.5 c 128,-1,3
 182 370 182 370 231 422 c 128,-1,4
 280 474 280 474 361 474 c 0,5,6
 400 474 400 474 476 455 c 1,7,8
 472 396 472 396 463 360 c 1,9,-1
 425 353 l 1,10,11
 425 392 425 392 416 423 c 1,12,13
 393 433 393 433 354 433 c 128,-1,14
 315 433 315 433 293 397.5 c 128,-1,15
 271 362 271 362 271 306.5 c 128,-1,16
 271 251 271 251 296 211.5 c 128,-1,17
 321 172 321 172 357.5 172 c 128,-1,18
 394 172 394 172 412 188.5 c 128,-1,19
 430 205 430 205 442 244 c 1,20,-1
 474 242 l 1,21,22
 474 205 474 205 464 149 c 1,23,24
 414 131 414 131 358 131 c 0,0,1
35 297 m 128,-1,26
 35 427 35 427 128 518.5 c 128,-1,27
 221 610 221 610 353 610 c 128,-1,28
 485 610 485 610 578 518.5 c 128,-1,29
 671 427 671 427 671 297 c 128,-1,30
 671 167 671 167 578 75.5 c 128,-1,31
 485 -16 485 -16 353 -16 c 128,-1,32
 221 -16 221 -16 128 75.5 c 128,-1,25
 35 167 35 167 35 297 c 128,-1,26
94 297 m 128,-1,34
 94 188 94 188 170 110.5 c 128,-1,35
 246 33 246 33 353 33 c 128,-1,36
 460 33 460 33 536 110.5 c 128,-1,37
 612 188 612 188 612 297 c 128,-1,38
 612 406 612 406 536 483.5 c 128,-1,39
 460 561 460 561 353 561 c 128,-1,40
 246 561 246 561 170 483.5 c 128,-1,33
 94 406 94 406 94 297 c 128,-1,34
EndSplineSet
EndChar

StartChar: ordfeminine
Encoding: 170 170 107
Width: 381
GlyphClass: 2
Flags: W
LayerCount: 2
Fore
SplineSet
288 511 m 2,0,-1
 288 391 l 2,1,2
 288 376 288 376 295 370 c 1,3,4
 302 367 302 367 311.5 367 c 128,-1,5
 321 367 321 367 332 369 c 1,6,-1
 340 333 l 1,7,8
 298 326 298 326 252 306 c 1,9,10
 239 311 239 311 225.5 326 c 128,-1,11
 212 341 212 341 208 356 c 1,12,13
 158 306 158 306 123.5 306 c 128,-1,14
 89 306 89 306 67 327.5 c 128,-1,15
 45 349 45 349 45 388.5 c 128,-1,16
 45 428 45 428 74 446.5 c 128,-1,17
 103 465 103 465 157 471 c 1,18,-1
 203 478 l 1,19,-1
 203 502 l 2,20,21
 203 574 203 574 165 574 c 0,22,23
 141 574 141 574 123 566 c 1,24,25
 118 550 118 550 118 535 c 128,-1,26
 118 520 118 520 119 512 c 1,27,-1
 81 504 l 1,28,29
 76 514 76 514 69.5 541.5 c 128,-1,30
 63 569 63 569 62 580 c 1,31,32
 140 615 140 615 182 615 c 0,33,34
 288 615 288 615 288 511 c 2,0,-1
136 392 m 0,35,36
 136 363 136 363 161 363 c 0,37,38
 181 363 181 363 203 383 c 1,39,-1
 203 448 l 1,40,-1
 172 441 l 1,41,42
 136 431 136 431 136 392 c 0,35,36
EndSplineSet
EndChar

StartChar: guillemotleft
Encoding: 171 171 108
Width: 512
GlyphClass: 2
Flags: W
LayerCount: 2
Fore
SplineSet
225 24 m 1,0,-1
 38 196 l 1,1,-1
 38 230 l 1,2,-1
 225 402 l 1,3,-1
 255 373 l 1,4,-1
 157 213 l 1,5,-1
 255 53 l 1,6,-1
 225 24 l 1,0,-1
434 24 m 1,7,-1
 247 196 l 1,8,-1
 247 230 l 1,9,-1
 434 402 l 1,10,-1
 464 373 l 1,11,-1
 366 213 l 1,12,-1
 464 53 l 1,13,-1
 434 24 l 1,7,-1
EndSplineSet
EndChar

StartChar: logicalnot
Encoding: 172 172 109
Width: 573
GlyphClass: 2
Flags: W
LayerCount: 2
Fore
SplineSet
52 229 m 1,0,-1
 52 314 l 1,1,-1
 521 314 l 1,2,-1
 521 100 l 1,3,-1
 449 100 l 1,4,-1
 449 229 l 1,5,-1
 52 229 l 1,0,-1
EndSplineSet
EndChar

StartChar: registered
Encoding: 174 174 110
Width: 497
GlyphClass: 2
Flags: W
LayerCount: 2
Fore
SplineSet
228 471 m 1,0,-1
 241 471 l 2,1,2
 274 471 274 471 274 506 c 128,-1,3
 274 541 274 541 244 541 c 0,4,5
 234 541 234 541 228 538 c 1,6,-1
 228 471 l 1,0,-1
158 377 m 1,7,8
 180 377 180 377 180 389 c 2,9,-1
 180 531 l 2,10,11
 180 538 180 538 175 539 c 2,12,-1
 158 543 l 1,13,-1
 159 559 l 1,14,15
 163 559 163 559 171 559 c 2,16,-1
 244 561 l 1,17,18
 324 561 324 561 324 511 c 0,19,20
 324 491 324 491 310 477 c 128,-1,21
 296 463 296 463 275 462 c 1,22,-1
 275 459 l 1,23,24
 288 456 288 456 310 423.5 c 128,-1,25
 332 391 332 391 342 386 c 1,26,27
 349 380 349 380 362 380 c 1,28,-1
 357 361 l 1,29,-1
 307 361 l 2,30,31
 298 361 298 361 290 373.5 c 128,-1,32
 282 386 282 386 277.5 393.5 c 128,-1,33
 273 401 273 401 266 412.5 c 128,-1,34
 259 424 259 424 257 427 c 128,-1,35
 255 430 255 430 252.5 434.5 c 128,-1,36
 250 439 250 439 248 442 c 0,37,38
 242 451 242 451 235 451 c 2,39,-1
 228 451 l 1,40,-1
 228 392 l 2,41,42
 228 383 228 383 235 381 c 2,43,-1
 255 377 l 1,44,-1
 253 360 l 1,45,46
 221 362 221 362 208 362 c 128,-1,47
 195 362 195 362 159 360 c 1,48,-1
 158 377 l 1,7,8
32 449 m 128,-1,50
 32 540 32 540 95 603 c 128,-1,51
 158 666 158 666 249 666 c 128,-1,52
 340 666 340 666 402.5 603 c 128,-1,53
 465 540 465 540 465 449 c 128,-1,54
 465 358 465 358 402.5 295.5 c 128,-1,55
 340 233 340 233 249 233 c 128,-1,56
 158 233 158 233 95 295.5 c 128,-1,49
 32 358 32 358 32 449 c 128,-1,50
83 449 m 128,-1,58
 83 375 83 375 132 323 c 128,-1,59
 181 271 181 271 249 271 c 128,-1,60
 317 271 317 271 365.5 323 c 128,-1,61
 414 375 414 375 414 449 c 128,-1,62
 414 523 414 523 365.5 575 c 128,-1,63
 317 627 317 627 249 627 c 128,-1,64
 181 627 181 627 132 575 c 128,-1,57
 83 523 83 523 83 449 c 128,-1,58
EndSplineSet
EndChar

StartChar: degree
Encoding: 176 176 111
Width: 331
GlyphClass: 2
Flags: W
LayerCount: 2
Fore
SplineSet
36 541 m 128,-1,1
 36 593 36 593 73.5 629.5 c 128,-1,2
 111 666 111 666 164.5 666 c 128,-1,3
 218 666 218 666 256.5 629.5 c 128,-1,4
 295 593 295 593 295 541 c 128,-1,5
 295 489 295 489 256.5 452.5 c 128,-1,6
 218 416 218 416 164.5 416 c 128,-1,7
 111 416 111 416 73.5 452.5 c 128,-1,0
 36 489 36 489 36 541 c 128,-1,1
104 541 m 128,-1,9
 104 514 104 514 122 494.5 c 128,-1,10
 140 475 140 475 165 475 c 128,-1,11
 190 475 190 475 208.5 494.5 c 128,-1,12
 227 514 227 514 227 540.5 c 128,-1,13
 227 567 227 567 208.5 587 c 128,-1,14
 190 607 190 607 165 607 c 128,-1,15
 140 607 140 607 122 587.5 c 128,-1,8
 104 568 104 568 104 541 c 128,-1,9
EndSplineSet
EndChar

StartChar: plusminus
Encoding: 177 177 112
Width: 472
GlyphClass: 2
Flags: W
LayerCount: 2
Fore
SplineSet
276 502 m 1,0,-1
 276 353 l 1,1,-1
 418 353 l 1,2,-1
 418 277 l 1,3,-1
 276 277 l 1,4,-1
 276 126 l 1,5,-1
 196 126 l 1,6,-1
 196 277 l 1,7,-1
 54 277 l 1,8,-1
 54 353 l 1,9,-1
 196 353 l 1,10,-1
 196 502 l 1,11,-1
 276 502 l 1,0,-1
425 11 m 1,12,-1
 47 11 l 1,13,-1
 47 86 l 1,14,-1
 425 86 l 1,15,-1
 425 11 l 1,12,-1
EndSplineSet
EndChar

StartChar: twosuperior
Encoding: 178 178 113
Width: 367
GlyphClass: 2
Flags: W
LayerCount: 2
Fore
SplineSet
40 355 m 1,0,1
 196 490 196 490 196 563 c 0,2,3
 196 619 196 619 156 619 c 0,4,5
 128 619 128 619 106 607 c 1,6,7
 103 591 103 591 103 573.5 c 128,-1,8
 103 556 103 556 105 538 c 1,9,-1
 68 534 l 1,10,11
 49 572 49 572 40 635 c 1,12,13
 121 665 121 665 171 665 c 128,-1,14
 221 665 221 665 255.5 641 c 128,-1,15
 290 617 290 617 290 568 c 0,16,17
 290 540 290 540 278 515 c 128,-1,18
 266 490 266 490 253 476 c 0,19,20
 217 436 217 436 137 373 c 1,21,-1
 140 366 l 1,22,-1
 256 366 l 1,23,24
 264 373 264 373 279 394.5 c 128,-1,25
 294 416 294 416 298 427 c 1,26,-1
 325 422 l 1,27,28
 325 410 325 410 317 370.5 c 128,-1,29
 309 331 309 331 304 315 c 1,30,-1
 45 315 l 1,31,-1
 40 355 l 1,0,1
EndSplineSet
EndChar

StartChar: threesuperior
Encoding: 179 179 114
Width: 347
GlyphClass: 2
Flags: W
LayerCount: 2
Fore
SplineSet
193 574 m 0,0,1
 193 620 193 620 153 620 c 0,2,3
 117 620 117 620 102 613 c 1,4,5
 99 580 99 580 99 567.5 c 128,-1,6
 99 555 99 555 99 551 c 1,7,-1
 66 546 l 1,8,9
 50 575 50 575 43 641 c 1,10,11
 136 666 136 666 176 666 c 128,-1,12
 216 666 216 666 249.5 646 c 128,-1,13
 283 626 283 626 283 592.5 c 128,-1,14
 283 559 283 559 257 537 c 128,-1,15
 231 515 231 515 198 509 c 1,16,-1
 198 502 l 1,17,18
 241 502 241 502 273 481 c 128,-1,19
 305 460 305 460 305 414.5 c 128,-1,20
 305 369 305 369 261.5 337.5 c 128,-1,21
 218 306 218 306 162.5 306 c 128,-1,22
 107 306 107 306 38 324 c 1,23,24
 39 340 39 340 47.5 377.5 c 128,-1,25
 56 415 56 415 62 430 c 1,26,-1
 96 426 l 1,27,28
 95 411 95 411 95 390.5 c 128,-1,29
 95 370 95 370 99 359 c 1,30,31
 120 352 120 352 147 352 c 128,-1,32
 174 352 174 352 192.5 367 c 128,-1,33
 211 382 211 382 211 406 c 0,34,35
 211 475 211 475 141 475 c 0,36,37
 134 475 134 475 126 474 c 1,38,-1
 128 509 l 1,39,40
 150 514 150 514 171.5 533 c 128,-1,41
 193 552 193 552 193 574 c 0,0,1
EndSplineSet
EndChar

StartChar: acute
Encoding: 180 180 115
Width: 322
GlyphClass: 2
Flags: W
LayerCount: 2
Fore
SplineSet
243 685 m 1,0,-1
 256 658 l 1,1,-1
 103 494 l 1,2,-1
 56 521 l 1,3,4
 65 543 65 543 97 605 c 128,-1,5
 129 667 129 667 138 676 c 1,6,7
 181 685 181 685 243 685 c 1,0,-1
EndSplineSet
EndChar

StartChar: mu
Encoding: 181 181 116
AltUni2: 0003bc.ffffffff.0
Width: 527
GlyphClass: 2
Flags: W
LayerCount: 2
Fore
SplineSet
129 0 m 1,0,1
 131 -187 131 -187 174 -244 c 1,2,-1
 155 -260 l 1,3,4
 135 -260 135 -260 102 -254.5 c 128,-1,5
 69 -249 69 -249 56 -243 c 1,6,7
 58 -71 58 -71 72 124 c 1,8,-1
 72 405 l 1,9,-1
 84 422 l 1,10,11
 120 433 120 433 182 437 c 1,12,-1
 202 414 l 1,13,14
 192 389 192 389 192 321 c 2,15,-1
 192 155 l 2,16,17
 192 65 192 65 232 65 c 0,18,19
 264 65 264 65 292.5 108.5 c 128,-1,20
 321 152 321 152 321 194 c 2,21,-1
 321 404 l 1,22,-1
 332 422 l 1,23,24
 368 432 368 432 432 437 c 1,25,-1
 452 414 l 1,26,27
 442 389 442 389 442 321 c 2,28,-1
 442 110 l 2,29,30
 442 67 442 67 466 67 c 0,31,32
 483 67 483 67 517 112 c 1,33,-1
 543 90 l 1,34,35
 470 -16 470 -16 403 -16 c 0,36,37
 368 -16 368 -16 346 7 c 128,-1,38
 324 30 324 30 324 62 c 2,39,-1
 324 92 l 1,40,41
 272 -16 272 -16 200 -16 c 0,42,43
 157 -16 157 -16 129 0 c 1,0,1
EndSplineSet
EndChar

StartChar: paragraph
Encoding: 182 182 117
Width: 535
GlyphClass: 2
Flags: W
LayerCount: 2
Fore
SplineSet
78.5 285 m 128,-1,1
 26 332 26 332 26 415.5 c 128,-1,2
 26 499 26 499 79.5 554.5 c 128,-1,3
 133 610 133 610 222 610 c 2,4,-1
 262 610 l 1,5,-1
 285 591 l 1,6,-1
 285 257 l 1,7,-1
 262 238 l 1,8,-1
 222 238 l 2,9,0
 131 238 131 238 78.5 285 c 128,-1,1
437 555 m 2,10,-1
 437 42 l 2,11,12
 437 -15 437 -15 421 -60 c 1,13,14
 399 -107 399 -107 354 -138.5 c 128,-1,15
 309 -170 309 -170 252 -170 c 2,16,-1
 235 -170 l 1,17,18
 207 -133 207 -133 186 -48 c 1,19,-1
 211 -38 l 1,20,21
 242 -62 242 -62 266.5 -62 c 128,-1,22
 291 -62 291 -62 310 -44.5 c 128,-1,23
 329 -27 329 -27 335 0 c 1,24,25
 342 22 342 22 342 77 c 2,26,-1
 342 522 l 2,27,28
 342 609 342 609 329 643 c 1,29,-1
 349 666 l 1,30,31
 456 657 456 657 535 631 c 1,32,-1
 526 586 l 1,33,34
 487 592 487 592 466.5 592 c 128,-1,35
 446 592 446 592 441.5 583 c 128,-1,36
 437 574 437 574 437 555 c 2,10,-1
EndSplineSet
EndChar

StartChar: periodcentered
Encoding: 183 183 118
Width: 285
GlyphClass: 2
Flags: W
LayerCount: 2
Fore
SplineSet
57 277 m 128,-1,1
 57 309 57 309 80 329.5 c 128,-1,2
 103 350 103 350 140 350 c 128,-1,3
 177 350 177 350 200.5 329.5 c 128,-1,4
 224 309 224 309 224 277 c 128,-1,5
 224 245 224 245 200.5 224.5 c 128,-1,6
 177 204 177 204 140 204 c 128,-1,7
 103 204 103 204 80 224.5 c 128,-1,0
 57 245 57 245 57 277 c 128,-1,1
EndSplineSet
EndChar

StartChar: cedilla
Encoding: 184 184 119
Width: 322
GlyphClass: 2
Flags: W
LayerCount: 2
Fore
SplineSet
233.5 -93.5 m 128,-1,1
 256 -116 256 -116 256 -155 c 128,-1,2
 256 -194 256 -194 225.5 -219.5 c 128,-1,3
 195 -245 195 -245 147 -245 c 128,-1,4
 99 -245 99 -245 43 -207 c 1,5,-1
 62 -170 l 1,6,7
 108 -193 108 -193 140 -193 c 0,8,9
 178 -193 178 -193 178 -158 c 0,10,11
 178 -135 178 -135 161 -125 c 128,-1,12
 144 -115 144 -115 131 -115 c 128,-1,13
 118 -115 118 -115 107 -118 c 1,14,-1
 89 -92 l 1,15,-1
 141 0 l 1,16,-1
 201 0 l 1,17,-1
 179 -71 l 1,18,0
 211 -71 211 -71 233.5 -93.5 c 128,-1,1
EndSplineSet
EndChar

StartChar: onesuperior
Encoding: 185 185 120
Width: 293
GlyphClass: 2
Flags: W
LayerCount: 2
Fore
SplineSet
41 346 m 1,0,1
 108 352 108 352 108 384 c 2,2,-1
 108 565 l 2,3,4
 108 581 108 581 102 587.5 c 128,-1,5
 96 594 96 594 80 594 c 2,6,-1
 40 594 l 1,7,-1
 36 623 l 1,8,9
 105 653 105 653 176 666 c 1,10,-1
 193 649 l 1,11,-1
 193 384 l 2,12,13
 193 367 193 367 204 361 c 0,14,15
 223 350 223 350 256 346 c 1,16,-1
 251 310 l 1,17,18
 211 315 211 315 149 315 c 128,-1,19
 87 315 87 315 48 310 c 1,20,-1
 41 346 l 1,0,1
EndSplineSet
EndChar

StartChar: ordmasculine
Encoding: 186 186 121
Width: 382
GlyphClass: 2
Flags: W
LayerCount: 2
Fore
SplineSet
38 457 m 128,-1,1
 38 526 38 526 80 570.5 c 128,-1,2
 122 615 122 615 192.5 615 c 128,-1,3
 263 615 263 615 303.5 575.5 c 128,-1,4
 344 536 344 536 344 467 c 128,-1,5
 344 398 344 398 301.5 351.5 c 128,-1,6
 259 305 259 305 188.5 305 c 128,-1,7
 118 305 118 305 78 346.5 c 128,-1,0
 38 388 38 388 38 457 c 128,-1,1
132 471 m 0,8,9
 132 413 132 413 150 382 c 128,-1,10
 168 351 168 351 200 351 c 0,11,12
 249 351 249 351 249 457 c 0,13,14
 249 511 249 511 231 540 c 128,-1,15
 213 569 213 569 181 569 c 0,16,17
 132 569 132 569 132 471 c 0,8,9
EndSplineSet
EndChar

StartChar: guillemotright
Encoding: 187 187 122
Width: 512
GlyphClass: 2
Flags: W
LayerCount: 2
Fore
SplineSet
474 196 m 1,0,-1
 287 24 l 1,1,-1
 257 53 l 1,2,-1
 355 213 l 1,3,-1
 257 373 l 1,4,-1
 287 402 l 1,5,-1
 474 230 l 1,6,-1
 474 196 l 1,0,-1
265 196 m 1,7,-1
 78 24 l 1,8,-1
 48 53 l 1,9,-1
 146 213 l 1,10,-1
 48 373 l 1,11,-1
 78 402 l 1,12,-1
 265 230 l 1,13,-1
 265 196 l 1,7,-1
EndSplineSet
EndChar

StartChar: onequarter
Encoding: 188 188 123
Width: 731
GlyphClass: 2
Flags: W
LayerCount: 2
Fore
SplineSet
179 15 m 1,0,-1
 535 687 l 1,1,-1
 588 657 l 1,2,-1
 231 -16 l 1,3,-1
 179 15 l 1,0,-1
57 346 m 1,4,5
 124 352 124 352 124 384 c 2,6,-1
 124 565 l 2,7,8
 124 581 124 581 118 587.5 c 128,-1,9
 112 594 112 594 96 594 c 2,10,-1
 56 594 l 1,11,-1
 52 623 l 1,12,13
 121 653 121 653 192 666 c 1,14,-1
 209 649 l 1,15,-1
 209 384 l 2,16,17
 209 367 209 367 220 361 c 0,18,19
 239 350 239 350 272 346 c 1,20,-1
 267 310 l 1,21,22
 227 315 227 315 165 315 c 128,-1,23
 103 315 103 315 64 310 c 1,24,-1
 57 346 l 1,4,5
621 98 m 1,25,-1
 621 58 l 2,26,27
 621 44 621 44 632 39 c 1,28,-1
 661 29 l 1,29,-1
 657 -5 l 1,30,31
 604 0 604 0 575.5 0 c 128,-1,32
 547 0 547 0 487 -5 c 1,33,-1
 483 29 l 1,34,35
 514 34 514 34 525 39.5 c 128,-1,36
 536 45 536 45 536 58 c 2,37,-1
 536 98 l 1,38,-1
 409 98 l 1,39,-1
 385 137 l 1,40,-1
 541 351 l 1,41,-1
 621 351 l 1,42,-1
 621 148 l 1,43,-1
 670 148 l 1,44,-1
 660 98 l 1,45,-1
 621 98 l 1,25,-1
536 148 m 1,46,-1
 536 286 l 1,47,-1
 534 287 l 1,48,-1
 528 273 l 1,49,-1
 441 153 l 1,50,-1
 444 148 l 1,51,-1
 536 148 l 1,46,-1
EndSplineSet
EndChar

StartChar: onehalf
Encoding: 189 189 124
Width: 779
GlyphClass: 2
Flags: W
LayerCount: 2
Fore
SplineSet
157 15 m 1,0,-1
 513 687 l 1,1,-1
 566 657 l 1,2,-1
 209 -16 l 1,3,-1
 157 15 l 1,0,-1
57 346 m 1,4,5
 124 352 124 352 124 384 c 2,6,-1
 124 565 l 2,7,8
 124 581 124 581 118 587.5 c 128,-1,9
 112 594 112 594 96 594 c 2,10,-1
 56 594 l 1,11,-1
 52 623 l 1,12,13
 121 653 121 653 192 666 c 1,14,-1
 209 649 l 1,15,-1
 209 384 l 2,16,17
 209 367 209 367 220 361 c 0,18,19
 239 350 239 350 272 346 c 1,20,-1
 267 310 l 1,21,22
 227 315 227 315 165 315 c 128,-1,23
 103 315 103 315 64 310 c 1,24,-1
 57 346 l 1,4,5
431 40 m 1,25,26
 587 175 587 175 587 248 c 0,27,28
 587 304 587 304 547 304 c 0,29,30
 519 304 519 304 497 292 c 1,31,32
 494 276 494 276 494 258.5 c 128,-1,33
 494 241 494 241 496 223 c 1,34,-1
 459 219 l 1,35,36
 440 257 440 257 431 320 c 1,37,38
 512 350 512 350 562 350 c 128,-1,39
 612 350 612 350 646.5 326 c 128,-1,40
 681 302 681 302 681 253 c 0,41,42
 681 225 681 225 669 200 c 128,-1,43
 657 175 657 175 644 160 c 0,44,45
 608 121 608 121 528 58 c 1,46,-1
 531 51 l 1,47,-1
 647 51 l 1,48,49
 655 58 655 58 670 79.5 c 128,-1,50
 685 101 685 101 689 112 c 1,51,-1
 716 107 l 1,52,53
 716 95 716 95 708 55.5 c 128,-1,54
 700 16 700 16 695 0 c 1,55,-1
 436 0 l 1,56,-1
 431 40 l 1,25,26
EndSplineSet
EndChar

StartChar: threequarters
Encoding: 190 190 125
Width: 738
GlyphClass: 2
Flags: W
LayerCount: 2
Fore
SplineSet
185 15 m 1,0,-1
 541 687 l 1,1,-1
 594 657 l 1,2,-1
 237 -16 l 1,3,-1
 185 15 l 1,0,-1
206 574 m 0,4,5
 206 620 206 620 166 620 c 0,6,7
 130 620 130 620 115 613 c 1,8,9
 112 580 112 580 112 567.5 c 128,-1,10
 112 555 112 555 112 551 c 1,11,-1
 79 546 l 1,12,13
 63 575 63 575 56 641 c 1,14,15
 149 666 149 666 189 666 c 128,-1,16
 229 666 229 666 262.5 646 c 128,-1,17
 296 626 296 626 296 592.5 c 128,-1,18
 296 559 296 559 270 537 c 128,-1,19
 244 515 244 515 211 509 c 1,20,-1
 211 502 l 1,21,22
 254 502 254 502 286 481 c 128,-1,23
 318 460 318 460 318 414.5 c 128,-1,24
 318 369 318 369 274.5 337.5 c 128,-1,25
 231 306 231 306 175.5 306 c 128,-1,26
 120 306 120 306 51 324 c 1,27,28
 52 340 52 340 60.5 377.5 c 128,-1,29
 69 415 69 415 75 430 c 1,30,-1
 109 426 l 1,31,32
 108 411 108 411 108 390.5 c 128,-1,33
 108 370 108 370 112 359 c 1,34,35
 133 352 133 352 160 352 c 128,-1,36
 187 352 187 352 205.5 367 c 128,-1,37
 224 382 224 382 224 406 c 0,38,39
 224 475 224 475 154 475 c 0,40,41
 147 475 147 475 139 474 c 1,42,-1
 141 509 l 1,43,44
 163 514 163 514 184.5 533 c 128,-1,45
 206 552 206 552 206 574 c 0,4,5
628 98 m 1,46,-1
 628 58 l 2,47,48
 628 44 628 44 639 39 c 1,49,-1
 668 29 l 1,50,-1
 664 -5 l 1,51,52
 612 0 612 0 583 0 c 128,-1,53
 554 0 554 0 494 -5 c 1,54,-1
 490 29 l 1,55,56
 521 34 521 34 532 39.5 c 128,-1,57
 543 45 543 45 543 58 c 2,58,-1
 543 98 l 1,59,-1
 416 98 l 1,60,-1
 392 137 l 1,61,-1
 548 351 l 1,62,-1
 628 351 l 1,63,-1
 628 148 l 1,64,-1
 677 148 l 1,65,-1
 667 98 l 1,66,-1
 628 98 l 1,46,-1
543 148 m 1,67,-1
 543 286 l 1,68,-1
 541 287 l 1,69,-1
 535 273 l 1,70,-1
 448 153 l 1,71,-1
 451 148 l 1,72,-1
 543 148 l 1,67,-1
EndSplineSet
EndChar

StartChar: questiondown
Encoding: 191 191 126
Width: 432
GlyphClass: 2
Flags: W
LayerCount: 2
Fore
SplineSet
205 -5 m 0,0,1
 139 -71 139 -71 139 -112 c 128,-1,2
 139 -153 139 -153 159.5 -176 c 128,-1,3
 180 -199 180 -199 215 -199 c 128,-1,4
 250 -199 250 -199 268.5 -172 c 128,-1,5
 287 -145 287 -145 289 -79 c 1,6,-1
 343 -68 l 1,7,8
 369 -161 369 -161 369 -203 c 1,9,10
 263 -250 263 -250 186.5 -250 c 128,-1,11
 110 -250 110 -250 64.5 -212.5 c 128,-1,12
 19 -175 19 -175 19 -101 c 0,13,14
 19 -72 19 -72 37.5 -42.5 c 128,-1,15
 56 -13 56 -13 74 4 c 128,-1,16
 92 21 92 21 124.5 47 c 128,-1,17
 157 73 157 73 170 86 c 0,18,19
 212 124 212 124 212 154 c 1,20,-1
 207 201 l 1,21,-1
 246 234 l 1,22,23
 290 190 290 190 309 137 c 1,24,25
 307 106 307 106 288.5 83 c 128,-1,26
 270 60 270 60 263 52 c 128,-1,27
 256 44 256 44 232.5 21.5 c 128,-1,28
 209 -1 209 -1 205 -5 c 0,0,1
314 358 m 128,-1,30
 314 325 314 325 291 304.5 c 128,-1,31
 268 284 268 284 231 284 c 128,-1,32
 194 284 194 284 170.5 304.5 c 128,-1,33
 147 325 147 325 147 358 c 128,-1,34
 147 391 147 391 170.5 411.5 c 128,-1,35
 194 432 194 432 231 432 c 128,-1,36
 268 432 268 432 291 411.5 c 128,-1,29
 314 391 314 391 314 358 c 128,-1,30
EndSplineSet
EndChar

StartChar: Agrave
Encoding: 192 192 127
Width: 650
GlyphClass: 2
Flags: W
LayerCount: 2
Fore
SplineSet
147 75 m 0,0,1
 147 57 147 57 172 48 c 2,2,-1
 228 30 l 1,3,-1
 222 -9 l 1,4,5
 158 0 158 0 112.5 0 c 128,-1,6
 67 0 67 0 -2 -9 c 1,7,-1
 -10 30 l 1,8,9
 35 39 35 39 47 51 c 128,-1,10
 59 63 59 63 76 111 c 2,11,-1
 272 645 l 1,12,13
 319 654 319 654 361 675 c 1,14,-1
 579 111 l 2,15,16
 597 64 597 64 609 51.5 c 128,-1,17
 621 39 621 39 660 30 c 1,18,-1
 653 -9 l 1,19,20
 584 0 584 0 518.5 0 c 128,-1,21
 453 0 453 0 378 -9 c 1,22,-1
 372 30 l 1,23,24
 405 40 405 40 428.5 49 c 128,-1,25
 452 58 452 58 452 75 c 0,26,27
 452 82 452 82 449 89 c 2,28,-1
 398 228 l 1,29,-1
 196 228 l 1,30,-1
 149 89 l 2,31,32
 147 84 147 84 147 75 c 0,0,1
149 799 m 1,33,-1
 154 828 l 1,34,35
 210 844 210 844 258 847 c 1,36,37
 269 841 269 841 316 788.5 c 128,-1,38
 363 736 363 736 377 718 c 1,39,-1
 339 680 l 1,40,-1
 149 799 l 1,33,-1
285 485 m 1,41,-1
 218 292 l 1,42,-1
 375 292 l 1,43,-1
 308 478 l 1,44,-1
 297 520 l 1,45,-1
 290 523 l 1,46,-1
 285 485 l 1,41,-1
EndSplineSet
EndChar

StartChar: Aacute
Encoding: 193 193 128
Width: 650
GlyphClass: 2
Flags: W
LayerCount: 2
Fore
SplineSet
147 75 m 0,0,1
 147 57 147 57 172 48 c 2,2,-1
 228 30 l 1,3,-1
 222 -9 l 1,4,5
 158 0 158 0 112.5 0 c 128,-1,6
 67 0 67 0 -2 -9 c 1,7,-1
 -10 30 l 1,8,9
 35 39 35 39 47 51 c 128,-1,10
 59 63 59 63 76 111 c 2,11,-1
 272 645 l 1,12,13
 319 654 319 654 361 675 c 1,14,-1
 579 111 l 2,15,16
 597 64 597 64 609 51.5 c 128,-1,17
 621 39 621 39 660 30 c 1,18,-1
 653 -9 l 1,19,20
 584 0 584 0 518.5 0 c 128,-1,21
 453 0 453 0 378 -9 c 1,22,-1
 372 30 l 1,23,24
 405 40 405 40 428.5 49 c 128,-1,25
 452 58 452 58 452 75 c 0,26,27
 452 82 452 82 449 89 c 2,28,-1
 398 228 l 1,29,-1
 196 228 l 1,30,-1
 149 89 l 2,31,32
 147 84 147 84 147 75 c 0,0,1
438 828 m 1,33,-1
 443 799 l 1,34,-1
 253 680 l 1,35,-1
 215 718 l 1,36,37
 229 736 229 736 276 788.5 c 128,-1,38
 323 841 323 841 334 847 c 1,39,40
 382 844 382 844 438 828 c 1,33,-1
285 485 m 1,41,-1
 218 292 l 1,42,-1
 375 292 l 1,43,-1
 308 478 l 1,44,-1
 297 520 l 1,45,-1
 290 523 l 1,46,-1
 285 485 l 1,41,-1
EndSplineSet
EndChar

StartChar: Acircumflex
Encoding: 194 194 129
Width: 650
GlyphClass: 2
Flags: W
LayerCount: 2
Fore
SplineSet
147 75 m 0,0,1
 147 57 147 57 172 48 c 2,2,-1
 228 30 l 1,3,-1
 222 -9 l 1,4,5
 158 0 158 0 112.5 0 c 128,-1,6
 67 0 67 0 -2 -9 c 1,7,-1
 -10 30 l 1,8,9
 35 39 35 39 47 51 c 128,-1,10
 59 63 59 63 76 111 c 2,11,-1
 272 645 l 1,12,13
 319 654 319 654 361 675 c 1,14,-1
 579 111 l 2,15,16
 597 64 597 64 609 51.5 c 128,-1,17
 621 39 621 39 660 30 c 1,18,-1
 653 -9 l 1,19,20
 584 0 584 0 518.5 0 c 128,-1,21
 453 0 453 0 378 -9 c 1,22,-1
 372 30 l 1,23,24
 405 40 405 40 428.5 49 c 128,-1,25
 452 58 452 58 452 75 c 0,26,27
 452 82 452 82 449 89 c 2,28,-1
 398 228 l 1,29,-1
 196 228 l 1,30,-1
 149 89 l 2,31,32
 147 84 147 84 147 75 c 0,0,1
250 847 m 1,33,34
 270 852 270 852 303.5 852 c 128,-1,35
 337 852 337 852 356 847 c 1,36,37
 368 839 368 839 406.5 786.5 c 128,-1,38
 445 734 445 734 454 719 c 1,39,-1
 411 688 l 1,40,-1
 303 777 l 1,41,-1
 195 688 l 1,42,-1
 151 719 l 1,43,44
 158 732 158 732 198 785 c 128,-1,45
 238 838 238 838 250 847 c 1,33,34
285 485 m 1,46,-1
 218 292 l 1,47,-1
 375 292 l 1,48,-1
 308 478 l 1,49,-1
 297 520 l 1,50,-1
 290 523 l 1,51,-1
 285 485 l 1,46,-1
EndSplineSet
EndChar

StartChar: Atilde
Encoding: 195 195 130
Width: 650
GlyphClass: 2
Flags: W
LayerCount: 2
Fore
SplineSet
147 75 m 0,0,1
 147 57 147 57 172 48 c 2,2,-1
 228 30 l 1,3,-1
 222 -9 l 1,4,5
 158 0 158 0 112.5 0 c 128,-1,6
 67 0 67 0 -2 -9 c 1,7,-1
 -10 30 l 1,8,9
 35 39 35 39 47 51 c 128,-1,10
 59 63 59 63 76 111 c 2,11,-1
 272 645 l 1,12,13
 319 654 319 654 361 675 c 1,14,-1
 579 111 l 2,15,16
 597 64 597 64 609 51.5 c 128,-1,17
 621 39 621 39 660 30 c 1,18,-1
 653 -9 l 1,19,20
 584 0 584 0 518.5 0 c 128,-1,21
 453 0 453 0 378 -9 c 1,22,-1
 372 30 l 1,23,24
 405 40 405 40 428.5 49 c 128,-1,25
 452 58 452 58 452 75 c 0,26,27
 452 82 452 82 449 89 c 2,28,-1
 398 228 l 1,29,-1
 196 228 l 1,30,-1
 149 89 l 2,31,32
 147 84 147 84 147 75 c 0,0,1
303 708 m 128,-1,34
 258 729 258 729 232.5 729 c 128,-1,35
 207 729 207 729 170 683 c 1,36,-1
 139 702 l 1,37,38
 151 724 151 724 180.5 766 c 128,-1,39
 210 808 210 808 224 821 c 1,40,-1
 247 825 l 1,41,42
 259 823 259 823 304 800 c 128,-1,43
 349 777 349 777 374 777 c 128,-1,44
 399 777 399 777 434 817 c 1,45,-1
 466 795 l 1,46,47
 454 774 454 774 425 737 c 128,-1,48
 396 700 396 700 383 689 c 1,49,-1
 360 685 l 1,50,33
 348 687 348 687 303 708 c 128,-1,34
285 485 m 1,51,-1
 218 292 l 1,52,-1
 375 292 l 1,53,-1
 308 478 l 1,54,-1
 297 520 l 1,55,-1
 290 523 l 1,56,-1
 285 485 l 1,51,-1
EndSplineSet
EndChar

StartChar: Adieresis
Encoding: 196 196 131
Width: 650
GlyphClass: 2
Flags: W
LayerCount: 2
Fore
SplineSet
147 75 m 0,0,1
 147 57 147 57 172 48 c 2,2,-1
 228 30 l 1,3,-1
 222 -9 l 1,4,5
 158 0 158 0 112.5 0 c 128,-1,6
 67 0 67 0 -2 -9 c 1,7,-1
 -10 30 l 1,8,9
 35 39 35 39 47 51 c 128,-1,10
 59 63 59 63 76 111 c 2,11,-1
 272 645 l 1,12,13
 319 654 319 654 361 675 c 1,14,-1
 579 111 l 2,15,16
 597 64 597 64 609 51.5 c 128,-1,17
 621 39 621 39 660 30 c 1,18,-1
 653 -9 l 1,19,20
 584 0 584 0 518.5 0 c 128,-1,21
 453 0 453 0 378 -9 c 1,22,-1
 372 30 l 1,23,24
 405 40 405 40 428.5 49 c 128,-1,25
 452 58 452 58 452 75 c 0,26,27
 452 82 452 82 449 89 c 2,28,-1
 398 228 l 1,29,-1
 196 228 l 1,30,-1
 149 89 l 2,31,32
 147 84 147 84 147 75 c 0,0,1
285 485 m 1,33,-1
 218 292 l 1,34,-1
 375 292 l 1,35,-1
 308 478 l 1,36,-1
 297 520 l 1,37,-1
 290 523 l 1,38,-1
 285 485 l 1,33,-1
116 755 m 128,-1,40
 116 785 116 785 136.5 803.5 c 128,-1,41
 157 822 157 822 191 822 c 128,-1,42
 225 822 225 822 246 803.5 c 128,-1,43
 267 785 267 785 267 755 c 128,-1,44
 267 725 267 725 246 706.5 c 128,-1,45
 225 688 225 688 191.5 688 c 128,-1,46
 158 688 158 688 137 706.5 c 128,-1,39
 116 725 116 725 116 755 c 128,-1,40
339 755 m 128,-1,48
 339 785 339 785 359.5 803.5 c 128,-1,49
 380 822 380 822 414 822 c 128,-1,50
 448 822 448 822 469 803.5 c 128,-1,51
 490 785 490 785 490 755 c 128,-1,52
 490 725 490 725 469 706.5 c 128,-1,53
 448 688 448 688 414.5 688 c 128,-1,54
 381 688 381 688 360 706.5 c 128,-1,47
 339 725 339 725 339 755 c 128,-1,48
EndSplineSet
EndChar

StartChar: Aring
Encoding: 197 197 132
Width: 650
GlyphClass: 2
Flags: W
LayerCount: 2
Fore
SplineSet
147 75 m 0,0,1
 147 57 147 57 172 48 c 2,2,-1
 228 30 l 1,3,-1
 222 -9 l 1,4,5
 158 0 158 0 112.5 0 c 128,-1,6
 67 0 67 0 -2 -9 c 1,7,-1
 -10 30 l 1,8,9
 35 39 35 39 47 51 c 128,-1,10
 59 63 59 63 76 111 c 2,11,-1
 272 645 l 1,12,13
 319 654 319 654 361 675 c 1,14,-1
 579 111 l 2,15,16
 597 64 597 64 609 51.5 c 128,-1,17
 621 39 621 39 660 30 c 1,18,-1
 653 -9 l 1,19,20
 584 0 584 0 518.5 0 c 128,-1,21
 453 0 453 0 378 -9 c 1,22,-1
 372 30 l 1,23,24
 405 40 405 40 428.5 49 c 128,-1,25
 452 58 452 58 452 75 c 0,26,27
 452 82 452 82 449 89 c 2,28,-1
 398 228 l 1,29,-1
 196 228 l 1,30,-1
 149 89 l 2,31,32
 147 84 147 84 147 75 c 0,0,1
209 766 m 128,-1,34
 209 803 209 803 239 829.5 c 128,-1,35
 269 856 269 856 310 856 c 128,-1,36
 351 856 351 856 381.5 829.5 c 128,-1,37
 412 803 412 803 412 766 c 128,-1,38
 412 729 412 729 381.5 702.5 c 128,-1,39
 351 676 351 676 310 676 c 128,-1,40
 269 676 269 676 239 702.5 c 128,-1,33
 209 729 209 729 209 766 c 128,-1,34
285 485 m 1,41,-1
 218 292 l 1,42,-1
 375 292 l 1,43,-1
 308 478 l 1,44,-1
 297 520 l 1,45,-1
 290 523 l 1,46,-1
 285 485 l 1,41,-1
269 766 m 128,-1,48
 269 747 269 747 281 734 c 128,-1,49
 293 721 293 721 310 721 c 128,-1,50
 327 721 327 721 339.5 734 c 128,-1,51
 352 747 352 747 352 766 c 128,-1,52
 352 785 352 785 339.5 798 c 128,-1,53
 327 811 327 811 310 811 c 128,-1,54
 293 811 293 811 281 798 c 128,-1,47
 269 785 269 785 269 766 c 128,-1,48
EndSplineSet
EndChar

StartChar: AE
Encoding: 198 198 133
Width: 854
GlyphClass: 2
Flags: W
LayerCount: 2
Fore
SplineSet
441 650 m 2,0,-1
 692 650 l 2,1,2
 742 650 742 650 779 656 c 1,3,-1
 779 499 l 1,4,-1
 727 490 l 1,5,6
 713 567 713 567 695 588 c 1,7,-1
 525 588 l 1,8,-1
 525 368 l 1,9,-1
 625 368 l 2,10,11
 650 368 650 368 658 383 c 0,12,13
 664 394 664 394 675 439 c 1,14,-1
 718 433 l 1,15,16
 710 380 710 380 710 335 c 128,-1,17
 710 290 710 290 718 234 c 1,18,-1
 675 228 l 1,19,20
 667 272 667 272 659 288.5 c 128,-1,21
 651 305 651 305 625 305 c 2,22,-1
 525 305 l 1,23,-1
 525 63 l 1,24,-1
 705 63 l 1,25,26
 718 74 718 74 735.5 113.5 c 128,-1,27
 753 153 753 153 760 178 c 1,28,-1
 810 170 l 1,29,30
 809 140 809 140 802.5 80 c 128,-1,31
 796 20 796 20 790 0 c 1,32,-1
 441 0 l 2,33,34
 403 0 403 0 331 -9 c 1,35,-1
 324 30 l 1,36,37
 362 38 362 38 379 47.5 c 128,-1,38
 396 57 396 57 396 79 c 2,39,-1
 396 305 l 1,40,-1
 248 305 l 1,41,-1
 149 89 l 2,42,43
 141 72 141 72 141 62 c 128,-1,44
 141 52 141 52 149 48 c 0,45,46
 163 40 163 40 204 30 c 1,47,-1
 198 -8 l 1,48,49
 135 0 135 0 84 0 c 128,-1,50
 33 0 33 0 -15 -8 c 1,51,-1
 -22 30 l 1,52,53
 14 38 14 38 32 51.5 c 128,-1,54
 50 65 50 65 72 111 c 2,55,-1
 328 657 l 1,56,57
 383 650 383 650 441 650 c 2,0,-1
396 588 m 1,58,-1
 377 588 l 1,59,-1
 277 368 l 1,60,-1
 396 368 l 1,61,-1
 396 588 l 1,58,-1
EndSplineSet
EndChar

StartChar: Ccedilla
Encoding: 199 199 134
Width: 660
GlyphClass: 2
Flags: W
LayerCount: 2
Fore
SplineSet
22 299 m 0,0,1
 22 461 22 461 123 563.5 c 128,-1,2
 224 666 224 666 393 666 c 0,3,4
 447 666 447 666 484.5 660 c 128,-1,5
 522 654 522 654 535 652 c 128,-1,6
 548 650 548 650 583 642.5 c 128,-1,7
 618 635 618 635 625 634 c 1,8,9
 615 522 615 522 598 458 c 1,10,-1
 544 448 l 1,11,12
 530 555 530 555 510 584 c 1,13,14
 469 610 469 610 375 610 c 128,-1,15
 281 610 281 610 227 534 c 128,-1,16
 173 458 173 458 173 335.5 c 128,-1,17
 173 213 173 213 234.5 126.5 c 128,-1,18
 296 40 296 40 395 40 c 0,19,20
 467 40 467 40 505.5 76.5 c 128,-1,21
 544 113 544 113 566 196 c 1,22,-1
 620 191 l 1,23,24
 619 124 619 124 599 17 c 1,25,26
 507 -14 507 -14 392 -16 c 1,27,-1
 375 -71 l 1,28,29
 407 -71 407 -71 429.5 -93.5 c 128,-1,30
 452 -116 452 -116 452 -155 c 128,-1,31
 452 -194 452 -194 421.5 -219.5 c 128,-1,32
 391 -245 391 -245 343 -245 c 128,-1,33
 295 -245 295 -245 239 -207 c 1,34,-1
 258 -170 l 1,35,36
 304 -193 304 -193 336 -193 c 0,37,38
 374 -193 374 -193 374 -158 c 0,39,40
 374 -135 374 -135 357 -125 c 128,-1,41
 340 -115 340 -115 327 -115 c 128,-1,42
 314 -115 314 -115 303 -118 c 1,43,-1
 285 -92 l 1,44,-1
 329 -13 l 1,45,46
 191 2 191 2 106.5 85 c 128,-1,47
 22 168 22 168 22 299 c 0,0,1
EndSplineSet
EndChar

StartChar: Egrave
Encoding: 200 200 135
Width: 583
GlyphClass: 2
Flags: W
LayerCount: 2
Fore
SplineSet
508 656 m 1,0,-1
 510 569 l 2,1,2
 510 534 510 534 507 499 c 1,3,-1
 461 491 l 1,4,5
 447 568 447 568 429 589 c 1,6,-1
 239 589 l 1,7,-1
 239 369 l 1,8,-1
 354 369 l 2,9,10
 379 369 379 369 387 384 c 0,11,12
 393 395 393 395 404 440 c 1,13,-1
 447 435 l 1,14,15
 439 382 439 382 439 336.5 c 128,-1,16
 439 291 439 291 447 241 c 1,17,-1
 404 237 l 1,18,19
 395 276 395 276 387.5 291.5 c 128,-1,20
 380 307 380 307 354 307 c 2,21,-1
 239 307 l 1,22,-1
 239 62 l 1,23,-1
 439 62 l 1,24,25
 452 73 452 73 469.5 113.5 c 128,-1,26
 487 154 487 154 494 179 c 1,27,-1
 540 171 l 1,28,29
 539 142 539 142 532 81.5 c 128,-1,30
 525 21 525 21 519 0 c 1,31,-1
 170 0 l 2,32,33
 129 0 129 0 43 -9 c 1,34,-1
 35 30 l 1,35,36
 100 43 100 43 108 60 c 0,37,38
 110 65 110 65 110 79 c 2,39,-1
 110 573 l 2,40,41
 110 596 110 596 94 603 c 0,42,43
 75 612 75 612 35 621 c 1,44,-1
 44 660 l 1,45,46
 140 650 140 650 170 650 c 2,47,-1
 416 650 l 2,48,49
 464 650 464 650 508 656 c 1,0,-1
140 799 m 1,50,-1
 145 828 l 1,51,52
 201 844 201 844 249 847 c 1,53,54
 260 841 260 841 307 788.5 c 128,-1,55
 354 736 354 736 368 718 c 1,56,-1
 330 680 l 1,57,-1
 140 799 l 1,50,-1
EndSplineSet
EndChar

StartChar: Eacute
Encoding: 201 201 136
Width: 583
GlyphClass: 2
Flags: W
LayerCount: 2
Fore
SplineSet
508 656 m 1,0,-1
 510 569 l 2,1,2
 510 534 510 534 507 499 c 1,3,-1
 461 491 l 1,4,5
 447 568 447 568 429 589 c 1,6,-1
 239 589 l 1,7,-1
 239 369 l 1,8,-1
 354 369 l 2,9,10
 379 369 379 369 387 384 c 0,11,12
 393 395 393 395 404 440 c 1,13,-1
 447 435 l 1,14,15
 439 382 439 382 439 336.5 c 128,-1,16
 439 291 439 291 447 241 c 1,17,-1
 404 237 l 1,18,19
 395 276 395 276 387.5 291.5 c 128,-1,20
 380 307 380 307 354 307 c 2,21,-1
 239 307 l 1,22,-1
 239 62 l 1,23,-1
 439 62 l 1,24,25
 452 73 452 73 469.5 113.5 c 128,-1,26
 487 154 487 154 494 179 c 1,27,-1
 540 171 l 1,28,29
 539 142 539 142 532 81.5 c 128,-1,30
 525 21 525 21 519 0 c 1,31,-1
 170 0 l 2,32,33
 129 0 129 0 43 -9 c 1,34,-1
 35 30 l 1,35,36
 100 43 100 43 108 60 c 0,37,38
 110 65 110 65 110 79 c 2,39,-1
 110 573 l 2,40,41
 110 596 110 596 94 603 c 0,42,43
 75 612 75 612 35 621 c 1,44,-1
 44 660 l 1,45,46
 140 650 140 650 170 650 c 2,47,-1
 416 650 l 2,48,49
 464 650 464 650 508 656 c 1,0,-1
429 828 m 1,50,-1
 434 799 l 1,51,-1
 244 680 l 1,52,-1
 206 718 l 1,53,54
 220 736 220 736 267 788.5 c 128,-1,55
 314 841 314 841 325 847 c 1,56,57
 373 844 373 844 429 828 c 1,50,-1
EndSplineSet
EndChar

StartChar: Ecircumflex
Encoding: 202 202 137
Width: 583
GlyphClass: 2
Flags: W
LayerCount: 2
Fore
SplineSet
508 656 m 1,0,-1
 510 569 l 2,1,2
 510 534 510 534 507 499 c 1,3,-1
 461 491 l 1,4,5
 447 568 447 568 429 589 c 1,6,-1
 239 589 l 1,7,-1
 239 369 l 1,8,-1
 354 369 l 2,9,10
 379 369 379 369 387 384 c 0,11,12
 393 395 393 395 404 440 c 1,13,-1
 447 435 l 1,14,15
 439 382 439 382 439 336.5 c 128,-1,16
 439 291 439 291 447 241 c 1,17,-1
 404 237 l 1,18,19
 395 276 395 276 387.5 291.5 c 128,-1,20
 380 307 380 307 354 307 c 2,21,-1
 239 307 l 1,22,-1
 239 62 l 1,23,-1
 439 62 l 1,24,25
 452 73 452 73 469.5 113.5 c 128,-1,26
 487 154 487 154 494 179 c 1,27,-1
 540 171 l 1,28,29
 539 142 539 142 532 81.5 c 128,-1,30
 525 21 525 21 519 0 c 1,31,-1
 170 0 l 2,32,33
 129 0 129 0 43 -9 c 1,34,-1
 35 30 l 1,35,36
 100 43 100 43 108 60 c 0,37,38
 110 65 110 65 110 79 c 2,39,-1
 110 573 l 2,40,41
 110 596 110 596 94 603 c 0,42,43
 75 612 75 612 35 621 c 1,44,-1
 44 660 l 1,45,46
 140 650 140 650 170 650 c 2,47,-1
 416 650 l 2,48,49
 464 650 464 650 508 656 c 1,0,-1
241 847 m 1,50,51
 261 852 261 852 294.5 852 c 128,-1,52
 328 852 328 852 347 847 c 1,53,54
 359 839 359 839 397.5 786.5 c 128,-1,55
 436 734 436 734 445 719 c 1,56,-1
 402 688 l 1,57,-1
 294 777 l 1,58,-1
 186 688 l 1,59,-1
 142 719 l 1,60,61
 149 732 149 732 189 785 c 128,-1,62
 229 838 229 838 241 847 c 1,50,51
EndSplineSet
EndChar

StartChar: Edieresis
Encoding: 203 203 138
Width: 583
GlyphClass: 2
Flags: W
LayerCount: 2
Fore
SplineSet
508 656 m 1,0,-1
 510 569 l 2,1,2
 510 534 510 534 507 499 c 1,3,-1
 461 491 l 1,4,5
 447 568 447 568 429 589 c 1,6,-1
 239 589 l 1,7,-1
 239 369 l 1,8,-1
 354 369 l 2,9,10
 379 369 379 369 387 384 c 0,11,12
 393 395 393 395 404 440 c 1,13,-1
 447 435 l 1,14,15
 439 382 439 382 439 336.5 c 128,-1,16
 439 291 439 291 447 241 c 1,17,-1
 404 237 l 1,18,19
 395 276 395 276 387.5 291.5 c 128,-1,20
 380 307 380 307 354 307 c 2,21,-1
 239 307 l 1,22,-1
 239 62 l 1,23,-1
 439 62 l 1,24,25
 452 73 452 73 469.5 113.5 c 128,-1,26
 487 154 487 154 494 179 c 1,27,-1
 540 171 l 1,28,29
 539 142 539 142 532 81.5 c 128,-1,30
 525 21 525 21 519 0 c 1,31,-1
 170 0 l 2,32,33
 129 0 129 0 43 -9 c 1,34,-1
 35 30 l 1,35,36
 100 43 100 43 108 60 c 0,37,38
 110 65 110 65 110 79 c 2,39,-1
 110 573 l 2,40,41
 110 596 110 596 94 603 c 0,42,43
 75 612 75 612 35 621 c 1,44,-1
 44 660 l 1,45,46
 140 650 140 650 170 650 c 2,47,-1
 416 650 l 2,48,49
 464 650 464 650 508 656 c 1,0,-1
107 754 m 128,-1,51
 107 784 107 784 127.5 802.5 c 128,-1,52
 148 821 148 821 182 821 c 128,-1,53
 216 821 216 821 237 802.5 c 128,-1,54
 258 784 258 784 258 754 c 128,-1,55
 258 724 258 724 237 705.5 c 128,-1,56
 216 687 216 687 182.5 687 c 128,-1,57
 149 687 149 687 128 705.5 c 128,-1,50
 107 724 107 724 107 754 c 128,-1,51
330 754 m 128,-1,59
 330 784 330 784 350.5 802.5 c 128,-1,60
 371 821 371 821 405 821 c 128,-1,61
 439 821 439 821 460 802.5 c 128,-1,62
 481 784 481 784 481 754 c 128,-1,63
 481 724 481 724 460 705.5 c 128,-1,64
 439 687 439 687 405.5 687 c 128,-1,65
 372 687 372 687 351 705.5 c 128,-1,58
 330 724 330 724 330 754 c 128,-1,59
EndSplineSet
EndChar

StartChar: Igrave
Encoding: 204 204 139
Width: 339
GlyphClass: 2
Flags: W
LayerCount: 2
Fore
SplineSet
234 572 m 2,0,-1
 234 78 l 2,1,2
 234 65 234 65 236.5 59.5 c 128,-1,3
 239 54 239 54 248 49 c 0,4,5
 265 40 265 40 308 30 c 1,6,-1
 301 -9 l 1,7,8
 232 0 232 0 170.5 0 c 128,-1,9
 109 0 109 0 40 -9 c 1,10,-1
 33 30 l 1,11,12
 95 43 95 43 102 60 c 0,13,14
 105 65 105 65 105 78 c 2,15,-1
 105 572 l 2,16,17
 105 585 105 585 102.5 590.5 c 128,-1,18
 100 596 100 596 90 601 c 0,19,20
 74 610 74 610 33 620 c 1,21,-1
 40 659 l 1,22,23
 109 650 109 650 170.5 650 c 128,-1,24
 232 650 232 650 301 659 c 1,25,-1
 308 620 l 1,26,27
 244 608 244 608 236 590 c 0,28,29
 234 585 234 585 234 572 c 2,0,-1
17 799 m 1,30,-1
 22 828 l 1,31,32
 78 844 78 844 126 847 c 1,33,34
 137 841 137 841 184 788.5 c 128,-1,35
 231 736 231 736 245 718 c 1,36,-1
 207 680 l 1,37,-1
 17 799 l 1,30,-1
EndSplineSet
EndChar

StartChar: Iacute
Encoding: 205 205 140
Width: 339
GlyphClass: 2
Flags: W
LayerCount: 2
Fore
SplineSet
234 572 m 2,0,-1
 234 78 l 2,1,2
 234 65 234 65 236.5 59.5 c 128,-1,3
 239 54 239 54 248 49 c 0,4,5
 265 40 265 40 308 30 c 1,6,-1
 301 -9 l 1,7,8
 232 0 232 0 170.5 0 c 128,-1,9
 109 0 109 0 40 -9 c 1,10,-1
 33 30 l 1,11,12
 95 43 95 43 102 60 c 0,13,14
 105 65 105 65 105 78 c 2,15,-1
 105 572 l 2,16,17
 105 585 105 585 102.5 590.5 c 128,-1,18
 100 596 100 596 90 601 c 0,19,20
 74 610 74 610 33 620 c 1,21,-1
 40 659 l 1,22,23
 109 650 109 650 170.5 650 c 128,-1,24
 232 650 232 650 301 659 c 1,25,-1
 308 620 l 1,26,27
 244 608 244 608 236 590 c 0,28,29
 234 585 234 585 234 572 c 2,0,-1
306 828 m 1,30,-1
 311 799 l 1,31,-1
 121 680 l 1,32,-1
 83 718 l 1,33,34
 97 736 97 736 144 788.5 c 128,-1,35
 191 841 191 841 202 847 c 1,36,37
 250 844 250 844 306 828 c 1,30,-1
EndSplineSet
EndChar

StartChar: Icircumflex
Encoding: 206 206 141
Width: 339
GlyphClass: 2
Flags: W
LayerCount: 2
Fore
SplineSet
234 572 m 2,0,-1
 234 78 l 2,1,2
 234 65 234 65 236.5 59.5 c 128,-1,3
 239 54 239 54 248 49 c 0,4,5
 265 40 265 40 308 30 c 1,6,-1
 301 -9 l 1,7,8
 232 0 232 0 170.5 0 c 128,-1,9
 109 0 109 0 40 -9 c 1,10,-1
 33 30 l 1,11,12
 95 43 95 43 102 60 c 0,13,14
 105 65 105 65 105 78 c 2,15,-1
 105 572 l 2,16,17
 105 585 105 585 102.5 590.5 c 128,-1,18
 100 596 100 596 90 601 c 0,19,20
 74 610 74 610 33 620 c 1,21,-1
 40 659 l 1,22,23
 109 650 109 650 170.5 650 c 128,-1,24
 232 650 232 650 301 659 c 1,25,-1
 308 620 l 1,26,27
 244 608 244 608 236 590 c 0,28,29
 234 585 234 585 234 572 c 2,0,-1
118 847 m 1,30,31
 138 852 138 852 171.5 852 c 128,-1,32
 205 852 205 852 224 847 c 1,33,34
 236 839 236 839 274.5 786.5 c 128,-1,35
 313 734 313 734 322 719 c 1,36,-1
 279 688 l 1,37,-1
 171 777 l 1,38,-1
 63 688 l 1,39,-1
 19 719 l 1,40,41
 26 732 26 732 66 785 c 128,-1,42
 106 838 106 838 118 847 c 1,30,31
EndSplineSet
EndChar

StartChar: Idieresis
Encoding: 207 207 142
Width: 339
GlyphClass: 2
Flags: W
LayerCount: 2
Fore
SplineSet
234 572 m 2,0,-1
 234 78 l 2,1,2
 234 65 234 65 236.5 59.5 c 128,-1,3
 239 54 239 54 248 49 c 0,4,5
 265 40 265 40 308 30 c 1,6,-1
 301 -9 l 1,7,8
 232 0 232 0 170.5 0 c 128,-1,9
 109 0 109 0 40 -9 c 1,10,-1
 33 30 l 1,11,12
 95 43 95 43 102 60 c 0,13,14
 105 65 105 65 105 78 c 2,15,-1
 105 572 l 2,16,17
 105 585 105 585 102.5 590.5 c 128,-1,18
 100 596 100 596 90 601 c 0,19,20
 74 610 74 610 33 620 c 1,21,-1
 40 659 l 1,22,23
 109 650 109 650 170.5 650 c 128,-1,24
 232 650 232 650 301 659 c 1,25,-1
 308 620 l 1,26,27
 244 608 244 608 236 590 c 0,28,29
 234 585 234 585 234 572 c 2,0,-1
-16 754 m 128,-1,31
 -16 784 -16 784 4.5 802.5 c 128,-1,32
 25 821 25 821 59 821 c 128,-1,33
 93 821 93 821 114 802.5 c 128,-1,34
 135 784 135 784 135 754 c 128,-1,35
 135 724 135 724 114 705.5 c 128,-1,36
 93 687 93 687 59.5 687 c 128,-1,37
 26 687 26 687 5 705.5 c 128,-1,30
 -16 724 -16 724 -16 754 c 128,-1,31
207 754 m 128,-1,39
 207 784 207 784 227.5 802.5 c 128,-1,40
 248 821 248 821 282 821 c 128,-1,41
 316 821 316 821 337 802.5 c 128,-1,42
 358 784 358 784 358 754 c 128,-1,43
 358 724 358 724 337 705.5 c 128,-1,44
 316 687 316 687 282.5 687 c 128,-1,45
 249 687 249 687 228 705.5 c 128,-1,38
 207 724 207 724 207 754 c 128,-1,39
EndSplineSet
EndChar

StartChar: Eth
Encoding: 208 208 143
Width: 773
GlyphClass: 2
Flags: W
LayerCount: 2
Fore
SplineSet
104 653 m 2,0,-1
 344 660 l 1,1,2
 522 660 522 660 624 590 c 1,3,4
 733 517 733 517 733 353 c 128,-1,5
 733 189 733 189 637 90.5 c 128,-1,6
 541 -8 541 -8 372 -8 c 0,7,8
 326 -8 326 -8 263 -4 c 128,-1,9
 200 0 200 0 175 0 c 128,-1,10
 150 0 150 0 62 -9 c 1,11,-1
 54 30 l 1,12,13
 91 38 91 38 108 47.5 c 128,-1,14
 125 57 125 57 125 79 c 2,15,-1
 125 313 l 1,16,-1
 46 313 l 1,17,-1
 56 365 l 1,18,-1
 125 365 l 1,19,-1
 125 569 l 2,20,21
 125 581 125 581 122.5 585.5 c 128,-1,22
 120 590 120 590 110 596 c 0,23,24
 93 607 93 607 53 617 c 1,25,-1
 61 654 l 1,26,27
 78 653 78 653 104 653 c 2,0,-1
254 98 m 2,28,29
 254 46 254 46 364.5 46 c 128,-1,30
 475 46 475 46 533.5 122 c 128,-1,31
 592 198 592 198 592 333.5 c 128,-1,32
 592 469 592 469 527 537 c 128,-1,33
 462 605 462 605 325 605 c 0,34,35
 279 605 279 605 254 596 c 1,36,-1
 254 365 l 1,37,-1
 407 365 l 1,38,-1
 397 313 l 1,39,-1
 254 313 l 1,40,-1
 254 98 l 2,28,29
EndSplineSet
EndChar

StartChar: Ntilde
Encoding: 209 209 144
Width: 764
GlyphClass: 2
Flags: W
LayerCount: 2
Fore
SplineSet
206 87 m 2,0,1
 206 72 206 72 210 64 c 0,2,3
 216 53 216 53 246 46 c 128,-1,4
 276 39 276 39 308 33 c 1,5,-1
 300 -9 l 1,6,7
 231 0 231 0 177 0 c 128,-1,8
 123 0 123 0 51 -9 c 1,9,-1
 43 30 l 1,10,11
 84 37 84 37 105 48 c 1,12,13
 121 55 121 55 121 79 c 2,14,-1
 121 573 l 2,15,16
 121 595 121 595 105 603 c 1,17,-1
 46 621 l 1,18,-1
 53 660 l 1,19,20
 108 650 108 650 160.5 650 c 128,-1,21
 213 650 213 650 269 660 c 1,22,23
 292 620 292 620 331 563 c 2,24,-1
 539 263 l 2,25,26
 554 240 554 240 571 192 c 1,27,-1
 576 196 l 1,28,-1
 576 570 l 2,29,30
 576 592 576 592 559 600 c 0,31,32
 548 606 548 606 492 619 c 1,33,-1
 499 660 l 1,34,35
 576 650 576 650 618.5 650 c 128,-1,36
 661 650 661 650 729 660 c 1,37,-1
 736 621 l 1,38,39
 698 613 698 613 679.5 603.5 c 128,-1,40
 661 594 661 594 661 573 c 2,41,-1
 661 193 l 2,42,43
 661 115 661 115 669 7 c 1,44,-1
 561 -14 l 1,45,46
 524 68 524 68 447 178 c 2,47,-1
 247 464 l 2,48,49
 230 488 230 488 211 529 c 1,50,-1
 206 525 l 1,51,-1
 206 87 l 2,0,1
392 709 m 128,-1,53
 347 730 347 730 321.5 730 c 128,-1,54
 296 730 296 730 259 684 c 1,55,-1
 228 703 l 1,56,57
 240 725 240 725 269.5 767 c 128,-1,58
 299 809 299 809 313 822 c 1,59,-1
 336 826 l 1,60,61
 348 824 348 824 393 801 c 128,-1,62
 438 778 438 778 463 778 c 128,-1,63
 488 778 488 778 523 818 c 1,64,-1
 555 796 l 1,65,66
 543 775 543 775 514 738 c 128,-1,67
 485 701 485 701 472 690 c 1,68,-1
 449 686 l 1,69,52
 437 688 437 688 392 709 c 128,-1,53
EndSplineSet
EndChar

StartChar: Ograve
Encoding: 210 210 145
Width: 755
GlyphClass: 2
Flags: W
LayerCount: 2
Fore
SplineSet
126 71 m 128,-1,1
 32 158 32 158 32 311 c 128,-1,2
 32 464 32 464 125.5 565 c 128,-1,3
 219 666 219 666 377 666 c 128,-1,4
 535 666 535 666 629 579 c 128,-1,5
 723 492 723 492 723 339 c 128,-1,6
 723 186 723 186 629.5 85 c 128,-1,7
 536 -16 536 -16 378 -16 c 128,-1,0
 220 -16 220 -16 126 71 c 128,-1,1
221.5 534.5 m 128,-1,9
 173 461 173 461 173 338.5 c 128,-1,10
 173 216 173 216 228 129 c 128,-1,11
 283 42 283 42 384 42 c 128,-1,12
 485 42 485 42 533.5 115.5 c 128,-1,13
 582 189 582 189 582 311.5 c 128,-1,14
 582 434 582 434 527 521 c 128,-1,15
 472 608 472 608 371 608 c 128,-1,8
 270 608 270 608 221.5 534.5 c 128,-1,9
221 799 m 1,16,-1
 226 828 l 1,17,18
 282 844 282 844 330 847 c 1,19,20
 341 841 341 841 388 788.5 c 128,-1,21
 435 736 435 736 449 718 c 1,22,-1
 411 680 l 1,23,-1
 221 799 l 1,16,-1
EndSplineSet
EndChar

StartChar: Oacute
Encoding: 211 211 146
Width: 755
GlyphClass: 2
Flags: W
LayerCount: 2
Fore
SplineSet
126 71 m 128,-1,1
 32 158 32 158 32 311 c 128,-1,2
 32 464 32 464 125.5 565 c 128,-1,3
 219 666 219 666 377 666 c 128,-1,4
 535 666 535 666 629 579 c 128,-1,5
 723 492 723 492 723 339 c 128,-1,6
 723 186 723 186 629.5 85 c 128,-1,7
 536 -16 536 -16 378 -16 c 128,-1,0
 220 -16 220 -16 126 71 c 128,-1,1
221.5 534.5 m 128,-1,9
 173 461 173 461 173 338.5 c 128,-1,10
 173 216 173 216 228 129 c 128,-1,11
 283 42 283 42 384 42 c 128,-1,12
 485 42 485 42 533.5 115.5 c 128,-1,13
 582 189 582 189 582 311.5 c 128,-1,14
 582 434 582 434 527 521 c 128,-1,15
 472 608 472 608 371 608 c 128,-1,8
 270 608 270 608 221.5 534.5 c 128,-1,9
510 828 m 1,16,-1
 515 799 l 1,17,-1
 325 680 l 1,18,-1
 287 718 l 1,19,20
 301 736 301 736 348 788.5 c 128,-1,21
 395 841 395 841 406 847 c 1,22,23
 454 844 454 844 510 828 c 1,16,-1
EndSplineSet
EndChar

StartChar: Ocircumflex
Encoding: 212 212 147
Width: 755
GlyphClass: 2
Flags: W
LayerCount: 2
Fore
SplineSet
126 71 m 128,-1,1
 32 158 32 158 32 311 c 128,-1,2
 32 464 32 464 125.5 565 c 128,-1,3
 219 666 219 666 377 666 c 128,-1,4
 535 666 535 666 629 579 c 128,-1,5
 723 492 723 492 723 339 c 128,-1,6
 723 186 723 186 629.5 85 c 128,-1,7
 536 -16 536 -16 378 -16 c 128,-1,0
 220 -16 220 -16 126 71 c 128,-1,1
221.5 534.5 m 128,-1,9
 173 461 173 461 173 338.5 c 128,-1,10
 173 216 173 216 228 129 c 128,-1,11
 283 42 283 42 384 42 c 128,-1,12
 485 42 485 42 533.5 115.5 c 128,-1,13
 582 189 582 189 582 311.5 c 128,-1,14
 582 434 582 434 527 521 c 128,-1,15
 472 608 472 608 371 608 c 128,-1,8
 270 608 270 608 221.5 534.5 c 128,-1,9
322 847 m 1,16,17
 342 852 342 852 375.5 852 c 128,-1,18
 409 852 409 852 428 847 c 1,19,20
 440 839 440 839 478.5 786.5 c 128,-1,21
 517 734 517 734 526 719 c 1,22,-1
 483 688 l 1,23,-1
 375 777 l 1,24,-1
 267 688 l 1,25,-1
 223 719 l 1,26,27
 230 732 230 732 270 785 c 128,-1,28
 310 838 310 838 322 847 c 1,16,17
EndSplineSet
EndChar

StartChar: Otilde
Encoding: 213 213 148
Width: 755
GlyphClass: 2
Flags: W
LayerCount: 2
Fore
SplineSet
126 71 m 128,-1,1
 32 158 32 158 32 311 c 128,-1,2
 32 464 32 464 125.5 565 c 128,-1,3
 219 666 219 666 377 666 c 128,-1,4
 535 666 535 666 629 579 c 128,-1,5
 723 492 723 492 723 339 c 128,-1,6
 723 186 723 186 629.5 85 c 128,-1,7
 536 -16 536 -16 378 -16 c 128,-1,0
 220 -16 220 -16 126 71 c 128,-1,1
221.5 534.5 m 128,-1,9
 173 461 173 461 173 338.5 c 128,-1,10
 173 216 173 216 228 129 c 128,-1,11
 283 42 283 42 384 42 c 128,-1,12
 485 42 485 42 533.5 115.5 c 128,-1,13
 582 189 582 189 582 311.5 c 128,-1,14
 582 434 582 434 527 521 c 128,-1,15
 472 608 472 608 371 608 c 128,-1,8
 270 608 270 608 221.5 534.5 c 128,-1,9
375 713 m 128,-1,17
 330 734 330 734 304.5 734 c 128,-1,18
 279 734 279 734 242 688 c 1,19,-1
 211 707 l 1,20,21
 223 729 223 729 252.5 771 c 128,-1,22
 282 813 282 813 296 826 c 1,23,-1
 319 830 l 1,24,25
 331 828 331 828 376 805 c 128,-1,26
 421 782 421 782 446 782 c 128,-1,27
 471 782 471 782 506 822 c 1,28,-1
 538 800 l 1,29,30
 526 779 526 779 497 742 c 128,-1,31
 468 705 468 705 455 694 c 1,32,-1
 432 690 l 1,33,16
 420 692 420 692 375 713 c 128,-1,17
EndSplineSet
EndChar

StartChar: Odieresis
Encoding: 214 214 149
Width: 755
GlyphClass: 2
Flags: W
LayerCount: 2
Fore
SplineSet
126 71 m 128,-1,1
 32 158 32 158 32 311 c 128,-1,2
 32 464 32 464 125.5 565 c 128,-1,3
 219 666 219 666 377 666 c 128,-1,4
 535 666 535 666 629 579 c 128,-1,5
 723 492 723 492 723 339 c 128,-1,6
 723 186 723 186 629.5 85 c 128,-1,7
 536 -16 536 -16 378 -16 c 128,-1,0
 220 -16 220 -16 126 71 c 128,-1,1
221.5 534.5 m 128,-1,9
 173 461 173 461 173 338.5 c 128,-1,10
 173 216 173 216 228 129 c 128,-1,11
 283 42 283 42 384 42 c 128,-1,12
 485 42 485 42 533.5 115.5 c 128,-1,13
 582 189 582 189 582 311.5 c 128,-1,14
 582 434 582 434 527 521 c 128,-1,15
 472 608 472 608 371 608 c 128,-1,8
 270 608 270 608 221.5 534.5 c 128,-1,9
188 754 m 128,-1,17
 188 784 188 784 208.5 802.5 c 128,-1,18
 229 821 229 821 263 821 c 128,-1,19
 297 821 297 821 318 802.5 c 128,-1,20
 339 784 339 784 339 754 c 128,-1,21
 339 724 339 724 318 705.5 c 128,-1,22
 297 687 297 687 263.5 687 c 128,-1,23
 230 687 230 687 209 705.5 c 128,-1,16
 188 724 188 724 188 754 c 128,-1,17
411 754 m 128,-1,25
 411 784 411 784 431.5 802.5 c 128,-1,26
 452 821 452 821 486 821 c 128,-1,27
 520 821 520 821 541 802.5 c 128,-1,28
 562 784 562 784 562 754 c 128,-1,29
 562 724 562 724 541 705.5 c 128,-1,30
 520 687 520 687 486.5 687 c 128,-1,31
 453 687 453 687 432 705.5 c 128,-1,24
 411 724 411 724 411 754 c 128,-1,25
EndSplineSet
EndChar

StartChar: multiply
Encoding: 215 215 150
Width: 472
GlyphClass: 2
Flags: W
LayerCount: 2
Fore
SplineSet
101 404 m 1,0,-1
 236 269 l 1,1,-1
 371 404 l 1,2,-1
 422 353 l 1,3,-1
 287 218 l 1,4,-1
 422 83 l 1,5,-1
 371 32 l 1,6,-1
 236 167 l 1,7,-1
 101 32 l 1,8,-1
 50 83 l 1,9,-1
 185 218 l 1,10,-1
 50 353 l 1,11,-1
 101 404 l 1,0,-1
EndSplineSet
EndChar

StartChar: Oslash
Encoding: 216 216 151
Width: 775
GlyphClass: 2
Flags: W
LayerCount: 2
Fore
SplineSet
148 60 m 1,0,1
 42 147 42 147 42 305.5 c 128,-1,2
 42 464 42 464 135.5 565 c 128,-1,3
 229 666 229 666 385 666 c 0,4,5
 473 666 473 666 549 636 c 1,6,-1
 593 699 l 1,7,-1
 631 658 l 1,8,-1
 598 610 l 1,9,10
 733 524 733 524 733 341 c 0,11,12
 733 186 733 186 639.5 85 c 128,-1,13
 546 -16 546 -16 390 -16 c 0,14,15
 277 -16 277 -16 193 29 c 1,16,-1
 149 -34 l 1,17,-1
 111 7 l 1,18,-1
 148 60 l 1,0,1
545.5 114.5 m 128,-1,20
 592 187 592 187 592 314.5 c 128,-1,21
 592 442 592 442 537 523 c 1,22,-1
 250 111 l 1,23,24
 306 42 306 42 402.5 42 c 128,-1,19
 499 42 499 42 545.5 114.5 c 128,-1,20
231.5 534.5 m 128,-1,26
 183 461 183 461 183 349 c 128,-1,27
 183 237 183 237 219 162 c 1,28,-1
 500 565 l 1,29,30
 449 608 449 608 376 608 c 0,31,25
 280 608 280 608 231.5 534.5 c 128,-1,26
EndSplineSet
EndChar

StartChar: Ugrave
Encoding: 217 217 152
Width: 724
GlyphClass: 2
Flags: W
LayerCount: 2
Fore
SplineSet
628 572 m 2,0,-1
 628 245 l 2,1,2
 628 118 628 118 558 52 c 128,-1,3
 488 -14 488 -14 354 -14 c 128,-1,4
 220 -14 220 -14 153 45.5 c 128,-1,5
 86 105 86 105 86 233 c 2,6,-1
 86 572 l 2,7,8
 86 585 86 585 83.5 590.5 c 128,-1,9
 81 596 81 596 72 601 c 0,10,11
 55 610 55 610 14 620 c 1,12,-1
 21 659 l 1,13,14
 90 650 90 650 151.5 650 c 128,-1,15
 213 650 213 650 282 659 c 1,16,-1
 289 620 l 1,17,18
 225 608 225 608 218 590 c 0,19,20
 215 585 215 585 215 572 c 2,21,-1
 215 249 l 2,22,23
 215 152 215 152 255 106.5 c 128,-1,24
 295 61 295 61 377 61 c 128,-1,25
 459 61 459 61 501 106 c 128,-1,26
 543 151 543 151 543 229 c 2,27,-1
 543 572 l 2,28,29
 543 585 543 585 540.5 590.5 c 128,-1,30
 538 596 538 596 529 601 c 0,31,32
 513 610 513 610 471 620 c 1,33,-1
 478 659 l 1,34,35
 529 650 529 650 582 650 c 128,-1,36
 635 650 635 650 695 659 c 1,37,-1
 702 620 l 1,38,39
 638 608 638 608 630 590 c 0,40,41
 628 585 628 585 628 572 c 2,0,-1
218 799 m 1,42,-1
 223 828 l 1,43,44
 279 844 279 844 327 847 c 1,45,46
 338 841 338 841 385 788.5 c 128,-1,47
 432 736 432 736 446 718 c 1,48,-1
 408 680 l 1,49,-1
 218 799 l 1,42,-1
EndSplineSet
EndChar

StartChar: Uacute
Encoding: 218 218 153
Width: 724
GlyphClass: 2
Flags: W
LayerCount: 2
Fore
SplineSet
628 572 m 2,0,-1
 628 245 l 2,1,2
 628 118 628 118 558 52 c 128,-1,3
 488 -14 488 -14 354 -14 c 128,-1,4
 220 -14 220 -14 153 45.5 c 128,-1,5
 86 105 86 105 86 233 c 2,6,-1
 86 572 l 2,7,8
 86 585 86 585 83.5 590.5 c 128,-1,9
 81 596 81 596 72 601 c 0,10,11
 55 610 55 610 14 620 c 1,12,-1
 21 659 l 1,13,14
 90 650 90 650 151.5 650 c 128,-1,15
 213 650 213 650 282 659 c 1,16,-1
 289 620 l 1,17,18
 225 608 225 608 218 590 c 0,19,20
 215 585 215 585 215 572 c 2,21,-1
 215 249 l 2,22,23
 215 152 215 152 255 106.5 c 128,-1,24
 295 61 295 61 377 61 c 128,-1,25
 459 61 459 61 501 106 c 128,-1,26
 543 151 543 151 543 229 c 2,27,-1
 543 572 l 2,28,29
 543 585 543 585 540.5 590.5 c 128,-1,30
 538 596 538 596 529 601 c 0,31,32
 513 610 513 610 471 620 c 1,33,-1
 478 659 l 1,34,35
 529 650 529 650 582 650 c 128,-1,36
 635 650 635 650 695 659 c 1,37,-1
 702 620 l 1,38,39
 638 608 638 608 630 590 c 0,40,41
 628 585 628 585 628 572 c 2,0,-1
507 828 m 1,42,-1
 512 799 l 1,43,-1
 322 680 l 1,44,-1
 284 718 l 1,45,46
 298 736 298 736 345 788.5 c 128,-1,47
 392 841 392 841 403 847 c 1,48,49
 451 844 451 844 507 828 c 1,42,-1
EndSplineSet
EndChar

StartChar: Ucircumflex
Encoding: 219 219 154
Width: 724
GlyphClass: 2
Flags: W
LayerCount: 2
Fore
SplineSet
628 572 m 2,0,-1
 628 245 l 2,1,2
 628 118 628 118 558 52 c 128,-1,3
 488 -14 488 -14 354 -14 c 128,-1,4
 220 -14 220 -14 153 45.5 c 128,-1,5
 86 105 86 105 86 233 c 2,6,-1
 86 572 l 2,7,8
 86 585 86 585 83.5 590.5 c 128,-1,9
 81 596 81 596 72 601 c 0,10,11
 55 610 55 610 14 620 c 1,12,-1
 21 659 l 1,13,14
 90 650 90 650 151.5 650 c 128,-1,15
 213 650 213 650 282 659 c 1,16,-1
 289 620 l 1,17,18
 225 608 225 608 218 590 c 0,19,20
 215 585 215 585 215 572 c 2,21,-1
 215 249 l 2,22,23
 215 152 215 152 255 106.5 c 128,-1,24
 295 61 295 61 377 61 c 128,-1,25
 459 61 459 61 501 106 c 128,-1,26
 543 151 543 151 543 229 c 2,27,-1
 543 572 l 2,28,29
 543 585 543 585 540.5 590.5 c 128,-1,30
 538 596 538 596 529 601 c 0,31,32
 513 610 513 610 471 620 c 1,33,-1
 478 659 l 1,34,35
 529 650 529 650 582 650 c 128,-1,36
 635 650 635 650 695 659 c 1,37,-1
 702 620 l 1,38,39
 638 608 638 608 630 590 c 0,40,41
 628 585 628 585 628 572 c 2,0,-1
319 847 m 1,42,43
 339 852 339 852 372.5 852 c 128,-1,44
 406 852 406 852 425 847 c 1,45,46
 437 839 437 839 475.5 786.5 c 128,-1,47
 514 734 514 734 523 719 c 1,48,-1
 480 688 l 1,49,-1
 372 777 l 1,50,-1
 264 688 l 1,51,-1
 220 719 l 1,52,53
 227 732 227 732 267 785 c 128,-1,54
 307 838 307 838 319 847 c 1,42,43
EndSplineSet
EndChar

StartChar: Udieresis
Encoding: 220 220 155
Width: 724
GlyphClass: 2
Flags: W
LayerCount: 2
Fore
SplineSet
628 572 m 2,0,-1
 628 245 l 2,1,2
 628 118 628 118 558 52 c 128,-1,3
 488 -14 488 -14 354 -14 c 128,-1,4
 220 -14 220 -14 153 45.5 c 128,-1,5
 86 105 86 105 86 233 c 2,6,-1
 86 572 l 2,7,8
 86 585 86 585 83.5 590.5 c 128,-1,9
 81 596 81 596 72 601 c 0,10,11
 55 610 55 610 14 620 c 1,12,-1
 21 659 l 1,13,14
 90 650 90 650 151.5 650 c 128,-1,15
 213 650 213 650 282 659 c 1,16,-1
 289 620 l 1,17,18
 225 608 225 608 218 590 c 0,19,20
 215 585 215 585 215 572 c 2,21,-1
 215 249 l 2,22,23
 215 152 215 152 255 106.5 c 128,-1,24
 295 61 295 61 377 61 c 128,-1,25
 459 61 459 61 501 106 c 128,-1,26
 543 151 543 151 543 229 c 2,27,-1
 543 572 l 2,28,29
 543 585 543 585 540.5 590.5 c 128,-1,30
 538 596 538 596 529 601 c 0,31,32
 513 610 513 610 471 620 c 1,33,-1
 478 659 l 1,34,35
 529 650 529 650 582 650 c 128,-1,36
 635 650 635 650 695 659 c 1,37,-1
 702 620 l 1,38,39
 638 608 638 608 630 590 c 0,40,41
 628 585 628 585 628 572 c 2,0,-1
185 754 m 128,-1,43
 185 784 185 784 205.5 802.5 c 128,-1,44
 226 821 226 821 260 821 c 128,-1,45
 294 821 294 821 315 802.5 c 128,-1,46
 336 784 336 784 336 754 c 128,-1,47
 336 724 336 724 315 705.5 c 128,-1,48
 294 687 294 687 260.5 687 c 128,-1,49
 227 687 227 687 206 705.5 c 128,-1,42
 185 724 185 724 185 754 c 128,-1,43
408 754 m 128,-1,51
 408 784 408 784 428.5 802.5 c 128,-1,52
 449 821 449 821 483 821 c 128,-1,53
 517 821 517 821 538 802.5 c 128,-1,54
 559 784 559 784 559 754 c 128,-1,55
 559 724 559 724 538 705.5 c 128,-1,56
 517 687 517 687 483.5 687 c 128,-1,57
 450 687 450 687 429 705.5 c 128,-1,50
 408 724 408 724 408 754 c 128,-1,51
EndSplineSet
EndChar

StartChar: Yacute
Encoding: 221 221 156
Width: 592
GlyphClass: 2
Flags: W
LayerCount: 2
Fore
SplineSet
-20 660 m 1,0,1
 50 650 50 650 119.5 650 c 128,-1,2
 189 650 189 650 273 660 c 1,3,-1
 270 622 l 1,4,5
 241 616 241 616 224 606.5 c 128,-1,6
 207 597 207 597 207 581.5 c 128,-1,7
 207 566 207 566 215 553 c 2,8,-1
 326 360 l 1,9,-1
 432 554 l 2,10,11
 442 571 442 571 442 582.5 c 128,-1,12
 442 594 442 594 431.5 601.5 c 128,-1,13
 421 609 421 609 367 622 c 1,14,-1
 364 660 l 1,15,16
 446 650 446 650 487 650 c 128,-1,17
 528 650 528 650 596 660 c 1,18,-1
 592 622 l 1,19,20
 561 619 561 619 542 605 c 128,-1,21
 523 591 523 591 505 552 c 1,22,-1
 348 276 l 1,23,-1
 348 78 l 2,24,25
 348 64 348 64 350.5 58.5 c 128,-1,26
 353 53 353 53 362 48 c 0,27,28
 382 38 382 38 434 28 c 1,29,-1
 425 -8 l 1,30,31
 350 0 350 0 286.5 0 c 128,-1,32
 223 0 223 0 154 -8 c 1,33,-1
 146 29 l 1,34,35
 219 41 219 41 226 58 c 0,36,37
 229 64 229 64 229 78 c 2,38,-1
 229 274 l 1,39,-1
 64 559 l 1,40,41
 47 594 47 594 30 606.5 c 128,-1,42
 13 619 13 619 -16 622 c 1,43,-1
 -20 660 l 1,0,1
442 828 m 1,44,-1
 447 799 l 1,45,-1
 257 680 l 1,46,-1
 219 718 l 1,47,48
 233 736 233 736 280 788.5 c 128,-1,49
 327 841 327 841 338 847 c 1,50,51
 386 844 386 844 442 828 c 1,44,-1
EndSplineSet
EndChar

StartChar: Thorn
Encoding: 222 222 157
Width: 547
GlyphClass: 2
Flags: W
LayerCount: 2
Fore
SplineSet
263 220 m 1,0,-1
 296 216 l 1,1,2
 407 216 407 216 407 355.5 c 128,-1,3
 407 495 407 495 286 495 c 0,4,5
 270 495 270 495 249 488 c 1,6,-1
 249 78 l 2,7,8
 249 65 249 65 251.5 59.5 c 128,-1,9
 254 54 254 54 264 49 c 0,10,11
 280 40 280 40 323 30 c 1,12,-1
 316 -9 l 1,13,14
 247 0 247 0 185.5 0 c 128,-1,15
 124 0 124 0 55 -9 c 1,16,-1
 48 30 l 1,17,18
 110 43 110 43 118 60 c 0,19,20
 120 65 120 65 120 78 c 2,21,-1
 120 572 l 2,22,23
 120 585 120 585 117.5 590.5 c 128,-1,24
 115 596 115 596 106 601 c 0,25,26
 90 610 90 610 48 620 c 1,27,-1
 55 659 l 1,28,29
 124 650 124 650 185.5 650 c 128,-1,30
 247 650 247 650 316 659 c 1,31,-1
 323 620 l 1,32,33
 259 607 259 607 252 590 c 0,34,35
 249 585 249 585 249 572 c 2,36,-1
 249 543 l 1,37,38
 261 544 261 544 287 544 c 0,39,40
 546 544 546 544 546 370 c 0,41,42
 546 290 546 290 480 232 c 128,-1,43
 414 174 414 174 333 174 c 0,44,45
 320 174 320 174 298.5 183 c 128,-1,46
 277 192 277 192 267 199 c 1,47,-1
 263 220 l 1,0,-1
EndSplineSet
EndChar

StartChar: germandbls
Encoding: 223 223 158
Width: 596
GlyphClass: 2
Flags: W
LayerCount: 2
Fore
SplineSet
95 474 m 2,0,1
 95 575 95 575 151.5 646.5 c 128,-1,2
 208 718 208 718 305.5 718 c 128,-1,3
 403 718 403 718 457.5 664 c 128,-1,4
 512 610 512 610 512 545 c 0,5,6
 512 502 512 502 492 468 c 128,-1,7
 472 434 472 434 448 417 c 128,-1,8
 424 400 424 400 404 382 c 128,-1,9
 384 364 384 364 384 350.5 c 128,-1,10
 384 337 384 337 388.5 327 c 128,-1,11
 393 317 393 317 398.5 310 c 128,-1,12
 404 303 404 303 416.5 294 c 128,-1,13
 429 285 429 285 436 281 c 128,-1,14
 443 277 443 277 461 267 c 0,15,16
 525 231 525 231 551.5 199 c 128,-1,17
 578 167 578 167 578 118 c 0,18,19
 578 52 578 52 529.5 18 c 128,-1,20
 481 -16 481 -16 408.5 -16 c 128,-1,21
 336 -16 336 -16 284 11 c 1,22,23
 282 27 282 27 282 70.5 c 128,-1,24
 282 114 282 114 284 129 c 1,25,-1
 323 136 l 1,26,27
 330 90 330 90 353 61 c 128,-1,28
 376 32 376 32 404 32 c 0,29,30
 461 32 461 32 461 92 c 0,31,32
 461 128 461 128 440.5 148.5 c 128,-1,33
 420 169 420 169 382.5 190 c 128,-1,34
 345 211 345 211 328 223 c 128,-1,35
 311 235 311 235 294 263 c 128,-1,36
 277 291 277 291 277 323 c 128,-1,37
 277 355 277 355 288 376.5 c 128,-1,38
 299 398 299 398 314.5 412.5 c 128,-1,39
 330 427 330 427 346 442 c 0,40,41
 384 476 384 476 384 537.5 c 128,-1,42
 384 599 384 599 360.5 629.5 c 128,-1,43
 337 660 337 660 280 660 c 0,44,45
 246 660 246 660 230.5 622 c 128,-1,46
 215 584 215 584 215 531 c 2,47,-1
 215 67 l 2,48,49
 215 54 215 54 218 49.5 c 128,-1,50
 221 45 221 45 232 37 c 1,51,-1
 264 22 l 1,52,-1
 256 -8 l 1,53,54
 181 0 181 0 149.5 0 c 128,-1,55
 118 0 118 0 35 -8 c 1,56,-1
 27 27 l 1,57,58
 63 36 63 36 79 46 c 128,-1,59
 95 56 95 56 95 76 c 2,60,-1
 95 367 l 1,61,-1
 39 367 l 1,62,-1
 34 407 l 1,63,-1
 95 422 l 1,64,-1
 95 474 l 2,0,1
EndSplineSet
EndChar

StartChar: agrave
Encoding: 224 224 159
Width: 459
GlyphClass: 2
Flags: W
LayerCount: 2
Fore
SplineSet
162 74.5 m 128,-1,1
 174 59 174 59 200 59 c 128,-1,2
 226 59 226 59 260 88 c 1,3,-1
 260 190 l 1,4,-1
 208 179 l 2,5,6
 150 166 150 166 150 112 c 0,7,0
 150 90 150 90 162 74.5 c 128,-1,1
380 291 m 2,8,-1
 380 92 l 2,9,10
 380 71 380 71 388 64 c 0,11,12
 399 55 399 55 441 52 c 1,13,-1
 450 18 l 1,14,15
 396 9 396 9 315 -16 c 1,16,17
 273 9 273 9 263 48 c 1,18,19
 199 -16 199 -16 158 -16 c 0,20,21
 100 -16 100 -16 65 16 c 128,-1,22
 30 48 30 48 30 104 c 128,-1,23
 30 160 30 160 72 186.5 c 128,-1,24
 114 213 114 213 193 222 c 2,25,-1
 260 230 l 1,26,-1
 260 277 l 2,27,28
 260 330 260 330 248.5 356 c 128,-1,29
 237 382 237 382 204 382 c 128,-1,30
 171 382 171 382 145 369 c 1,31,32
 139 348 139 348 139 278 c 1,33,-1
 77 261 l 1,34,35
 48 351 48 351 47 383 c 1,36,37
 165 437 165 437 223 437 c 0,38,39
 304 437 304 437 342 401.5 c 128,-1,40
 380 366 380 366 380 291 c 2,8,-1
96 658 m 1,41,-1
 109 685 l 1,42,43
 171 685 171 685 214 676 c 1,44,45
 223 667 223 667 255 605 c 128,-1,46
 287 543 287 543 296 521 c 1,47,-1
 249 494 l 1,48,-1
 96 658 l 1,41,-1
EndSplineSet
EndChar

StartChar: aacute
Encoding: 225 225 160
Width: 459
GlyphClass: 2
Flags: W
LayerCount: 2
Fore
SplineSet
162 74.5 m 128,-1,1
 174 59 174 59 200 59 c 128,-1,2
 226 59 226 59 260 88 c 1,3,-1
 260 190 l 1,4,-1
 208 179 l 2,5,6
 150 166 150 166 150 112 c 0,7,0
 150 90 150 90 162 74.5 c 128,-1,1
380 291 m 2,8,-1
 380 92 l 2,9,10
 380 71 380 71 388 64 c 0,11,12
 399 55 399 55 441 52 c 1,13,-1
 450 18 l 1,14,15
 396 9 396 9 315 -16 c 1,16,17
 273 9 273 9 263 48 c 1,18,19
 199 -16 199 -16 158 -16 c 0,20,21
 100 -16 100 -16 65 16 c 128,-1,22
 30 48 30 48 30 104 c 128,-1,23
 30 160 30 160 72 186.5 c 128,-1,24
 114 213 114 213 193 222 c 2,25,-1
 260 230 l 1,26,-1
 260 277 l 2,27,28
 260 330 260 330 248.5 356 c 128,-1,29
 237 382 237 382 204 382 c 128,-1,30
 171 382 171 382 145 369 c 1,31,32
 139 348 139 348 139 278 c 1,33,-1
 77 261 l 1,34,35
 48 351 48 351 47 383 c 1,36,37
 165 437 165 437 223 437 c 0,38,39
 304 437 304 437 342 401.5 c 128,-1,40
 380 366 380 366 380 291 c 2,8,-1
330 685 m 1,41,-1
 343 658 l 1,42,-1
 190 494 l 1,43,-1
 143 521 l 1,44,45
 152 543 152 543 184 605 c 128,-1,46
 216 667 216 667 225 676 c 1,47,48
 268 685 268 685 330 685 c 1,41,-1
EndSplineSet
EndChar

StartChar: acircumflex
Encoding: 226 226 161
Width: 459
GlyphClass: 2
Flags: W
LayerCount: 2
Fore
SplineSet
162 74.5 m 128,-1,1
 174 59 174 59 200 59 c 128,-1,2
 226 59 226 59 260 88 c 1,3,-1
 260 190 l 1,4,-1
 208 179 l 2,5,6
 150 166 150 166 150 112 c 0,7,0
 150 90 150 90 162 74.5 c 128,-1,1
380 291 m 2,8,-1
 380 92 l 2,9,10
 380 71 380 71 388 64 c 0,11,12
 399 55 399 55 441 52 c 1,13,-1
 450 18 l 1,14,15
 396 9 396 9 315 -16 c 1,16,17
 273 9 273 9 263 48 c 1,18,19
 199 -16 199 -16 158 -16 c 0,20,21
 100 -16 100 -16 65 16 c 128,-1,22
 30 48 30 48 30 104 c 128,-1,23
 30 160 30 160 72 186.5 c 128,-1,24
 114 213 114 213 193 222 c 2,25,-1
 260 230 l 1,26,-1
 260 277 l 2,27,28
 260 330 260 330 248.5 356 c 128,-1,29
 237 382 237 382 204 382 c 128,-1,30
 171 382 171 382 145 369 c 1,31,32
 139 348 139 348 139 278 c 1,33,-1
 77 261 l 1,34,35
 48 351 48 351 47 383 c 1,36,37
 165 437 165 437 223 437 c 0,38,39
 304 437 304 437 342 401.5 c 128,-1,40
 380 366 380 366 380 291 c 2,8,-1
169 673 m 1,41,42
 202 678 202 678 225 678 c 128,-1,43
 248 678 248 678 275 673 c 1,44,45
 285 664 285 664 319.5 601.5 c 128,-1,46
 354 539 354 539 362 521 c 1,47,-1
 315 494 l 1,48,-1
 222 598 l 1,49,-1
 129 494 l 1,50,-1
 82 521 l 1,51,52
 90 539 90 539 124.5 601.5 c 128,-1,53
 159 664 159 664 169 673 c 1,41,42
EndSplineSet
EndChar

StartChar: atilde
Encoding: 227 227 162
Width: 459
GlyphClass: 2
Flags: W
LayerCount: 2
Fore
SplineSet
162 74.5 m 128,-1,1
 174 59 174 59 200 59 c 128,-1,2
 226 59 226 59 260 88 c 1,3,-1
 260 190 l 1,4,-1
 208 179 l 2,5,6
 150 166 150 166 150 112 c 0,7,0
 150 90 150 90 162 74.5 c 128,-1,1
380 291 m 2,8,-1
 380 92 l 2,9,10
 380 71 380 71 388 64 c 0,11,12
 399 55 399 55 441 52 c 1,13,-1
 450 18 l 1,14,15
 396 9 396 9 315 -16 c 1,16,17
 273 9 273 9 263 48 c 1,18,19
 199 -16 199 -16 158 -16 c 0,20,21
 100 -16 100 -16 65 16 c 128,-1,22
 30 48 30 48 30 104 c 128,-1,23
 30 160 30 160 72 186.5 c 128,-1,24
 114 213 114 213 193 222 c 2,25,-1
 260 230 l 1,26,-1
 260 277 l 2,27,28
 260 330 260 330 248.5 356 c 128,-1,29
 237 382 237 382 204 382 c 128,-1,30
 171 382 171 382 145 369 c 1,31,32
 139 348 139 348 139 278 c 1,33,-1
 77 261 l 1,34,35
 48 351 48 351 47 383 c 1,36,37
 165 437 165 437 223 437 c 0,38,39
 304 437 304 437 342 401.5 c 128,-1,40
 380 366 380 366 380 291 c 2,8,-1
222 536 m 128,-1,42
 177 557 177 557 151.5 557 c 128,-1,43
 126 557 126 557 89 511 c 1,44,-1
 58 530 l 1,45,46
 70 552 70 552 99.5 594 c 128,-1,47
 129 636 129 636 143 649 c 1,48,-1
 166 653 l 1,49,50
 178 651 178 651 223 628 c 128,-1,51
 268 605 268 605 293 605 c 128,-1,52
 318 605 318 605 353 645 c 1,53,-1
 385 623 l 1,54,55
 373 602 373 602 344 565 c 128,-1,56
 315 528 315 528 302 517 c 1,57,-1
 279 513 l 1,58,41
 267 515 267 515 222 536 c 128,-1,42
EndSplineSet
EndChar

StartChar: adieresis
Encoding: 228 228 163
Width: 459
GlyphClass: 2
Flags: W
LayerCount: 2
Fore
SplineSet
162 74.5 m 128,-1,1
 174 59 174 59 200 59 c 128,-1,2
 226 59 226 59 260 88 c 1,3,-1
 260 190 l 1,4,-1
 208 179 l 2,5,6
 150 166 150 166 150 112 c 0,7,0
 150 90 150 90 162 74.5 c 128,-1,1
380 291 m 2,8,-1
 380 92 l 2,9,10
 380 71 380 71 388 64 c 0,11,12
 399 55 399 55 441 52 c 1,13,-1
 450 18 l 1,14,15
 396 9 396 9 315 -16 c 1,16,17
 273 9 273 9 263 48 c 1,18,19
 199 -16 199 -16 158 -16 c 0,20,21
 100 -16 100 -16 65 16 c 128,-1,22
 30 48 30 48 30 104 c 128,-1,23
 30 160 30 160 72 186.5 c 128,-1,24
 114 213 114 213 193 222 c 2,25,-1
 260 230 l 1,26,-1
 260 277 l 2,27,28
 260 330 260 330 248.5 356 c 128,-1,29
 237 382 237 382 204 382 c 128,-1,30
 171 382 171 382 145 369 c 1,31,32
 139 348 139 348 139 278 c 1,33,-1
 77 261 l 1,34,35
 48 351 48 351 47 383 c 1,36,37
 165 437 165 437 223 437 c 0,38,39
 304 437 304 437 342 401.5 c 128,-1,40
 380 366 380 366 380 291 c 2,8,-1
35 587 m 128,-1,42
 35 617 35 617 55.5 635.5 c 128,-1,43
 76 654 76 654 110 654 c 128,-1,44
 144 654 144 654 165 635.5 c 128,-1,45
 186 617 186 617 186 587 c 128,-1,46
 186 557 186 557 165 538.5 c 128,-1,47
 144 520 144 520 110.5 520 c 128,-1,48
 77 520 77 520 56 538.5 c 128,-1,41
 35 557 35 557 35 587 c 128,-1,42
258 587 m 128,-1,50
 258 617 258 617 278.5 635.5 c 128,-1,51
 299 654 299 654 333 654 c 128,-1,52
 367 654 367 654 388 635.5 c 128,-1,53
 409 617 409 617 409 587 c 128,-1,54
 409 557 409 557 388 538.5 c 128,-1,55
 367 520 367 520 333.5 520 c 128,-1,56
 300 520 300 520 279 538.5 c 128,-1,49
 258 557 258 557 258 587 c 128,-1,50
EndSplineSet
EndChar

StartChar: aring
Encoding: 229 229 164
Width: 459
GlyphClass: 2
Flags: W
LayerCount: 2
Fore
SplineSet
162 74.5 m 128,-1,1
 174 59 174 59 200 59 c 128,-1,2
 226 59 226 59 260 88 c 1,3,-1
 260 190 l 1,4,-1
 208 179 l 2,5,6
 150 166 150 166 150 112 c 0,7,0
 150 90 150 90 162 74.5 c 128,-1,1
380 291 m 2,8,-1
 380 92 l 2,9,10
 380 71 380 71 388 64 c 0,11,12
 399 55 399 55 441 52 c 1,13,-1
 450 18 l 1,14,15
 396 9 396 9 315 -16 c 1,16,17
 273 9 273 9 263 48 c 1,18,19
 199 -16 199 -16 158 -16 c 0,20,21
 100 -16 100 -16 65 16 c 128,-1,22
 30 48 30 48 30 104 c 128,-1,23
 30 160 30 160 72 186.5 c 128,-1,24
 114 213 114 213 193 222 c 2,25,-1
 260 230 l 1,26,-1
 260 277 l 2,27,28
 260 330 260 330 248.5 356 c 128,-1,29
 237 382 237 382 204 382 c 128,-1,30
 171 382 171 382 145 369 c 1,31,32
 139 348 139 348 139 278 c 1,33,-1
 77 261 l 1,34,35
 48 351 48 351 47 383 c 1,36,37
 165 437 165 437 223 437 c 0,38,39
 304 437 304 437 342 401.5 c 128,-1,40
 380 366 380 366 380 291 c 2,8,-1
179 588 m 128,-1,42
 179 569 179 569 191 556 c 128,-1,43
 203 543 203 543 220 543 c 128,-1,44
 237 543 237 543 249.5 556 c 128,-1,45
 262 569 262 569 262 588 c 128,-1,46
 262 607 262 607 249.5 620 c 128,-1,47
 237 633 237 633 220 633 c 128,-1,48
 203 633 203 633 191 620 c 128,-1,41
 179 607 179 607 179 588 c 128,-1,42
119 588 m 128,-1,50
 119 625 119 625 149 651.5 c 128,-1,51
 179 678 179 678 220 678 c 128,-1,52
 261 678 261 678 291.5 651.5 c 128,-1,53
 322 625 322 625 322 588 c 128,-1,54
 322 551 322 551 291.5 524.5 c 128,-1,55
 261 498 261 498 220 498 c 128,-1,56
 179 498 179 498 149 524.5 c 128,-1,49
 119 551 119 551 119 588 c 128,-1,50
EndSplineSet
EndChar

StartChar: ae
Encoding: 230 230 165
Width: 680
GlyphClass: 2
Flags: W
LayerCount: 2
Fore
SplineSet
508 57 m 0,0,1
 571 57 571 57 633 100 c 1,2,-1
 651 73 l 1,3,4
 557 -16 557 -16 475 -16 c 0,5,6
 366 -16 366 -16 311 63 c 1,7,8
 222 -16 222 -16 160.5 -16 c 128,-1,9
 99 -16 99 -16 64.5 16 c 128,-1,10
 30 48 30 48 30 104 c 128,-1,11
 30 160 30 160 72 186.5 c 128,-1,12
 114 213 114 213 192 222 c 2,13,-1
 274 232 l 1,14,-1
 274 277 l 2,15,16
 274 327 274 327 259 352 c 128,-1,17
 244 377 244 377 206 377 c 128,-1,18
 168 377 168 377 144 364 c 1,19,20
 140 345 140 345 140 285 c 1,21,-1
 84 271 l 1,22,23
 68 324 68 324 61 383 c 1,24,25
 169 437 169 437 222 437 c 0,26,27
 316 437 316 437 354 392 c 1,28,29
 405 437 405 437 473 437 c 0,30,31
 565 437 565 437 611.5 381 c 128,-1,32
 658 325 658 325 658 230 c 1,33,-1
 392 210 l 1,34,35
 400 57 400 57 508 57 c 0,0,1
197 54 m 0,36,37
 238 54 238 54 293 96 c 1,38,39
 274 140 274 140 274 193 c 1,40,-1
 207 179 l 2,41,42
 153 167 153 167 153 112 c 0,43,44
 153 88 153 88 165.5 71 c 128,-1,45
 178 54 178 54 197 54 c 0,36,37
513 354 m 128,-1,47
 498 386 498 386 464 386 c 128,-1,48
 430 386 430 386 411 347.5 c 128,-1,49
 392 309 392 309 392 256 c 1,50,-1
 528 275 l 1,51,46
 528 322 528 322 513 354 c 128,-1,47
EndSplineSet
EndChar

StartChar: ccedilla
Encoding: 231 231 166
Width: 435
GlyphClass: 2
Flags: W
LayerCount: 2
Fore
SplineSet
70.5 62 m 128,-1,1
 27 119 27 119 27 210.5 c 128,-1,2
 27 302 27 302 85.5 369.5 c 128,-1,3
 144 437 144 437 243 437 c 0,4,5
 275 437 275 437 327.5 423.5 c 128,-1,6
 380 410 380 410 408 399 c 1,7,8
 406 377 406 377 393.5 325.5 c 128,-1,9
 381 274 381 274 372 254 c 1,10,-1
 318 264 l 1,11,12
 319 273 319 273 319 286 c 0,13,14
 319 348 319 348 308 368 c 1,15,16
 282 385 282 385 235 385 c 0,17,18
 156 385 156 385 156 228 c 0,19,20
 156 146 156 146 188 104 c 128,-1,21
 220 62 220 62 275.5 62 c 128,-1,22
 331 62 331 62 394 98 c 1,23,-1
 414 69 l 1,24,25
 323 -13 323 -13 249 -16 c 1,26,-1
 232 -71 l 1,27,28
 264 -71 264 -71 286.5 -93.5 c 128,-1,29
 309 -116 309 -116 309 -155 c 128,-1,30
 309 -194 309 -194 278.5 -219.5 c 128,-1,31
 248 -245 248 -245 200 -245 c 128,-1,32
 152 -245 152 -245 96 -207 c 1,33,-1
 115 -170 l 1,34,35
 161 -193 161 -193 193 -193 c 0,36,37
 231 -193 231 -193 231 -158 c 0,38,39
 231 -135 231 -135 214 -125 c 128,-1,40
 197 -115 197 -115 184 -115 c 128,-1,41
 171 -115 171 -115 160 -118 c 1,42,-1
 142 -92 l 1,43,-1
 188 -10 l 1,44,0
 114 5 114 5 70.5 62 c 128,-1,1
EndSplineSet
EndChar

StartChar: egrave
Encoding: 232 232 167
Width: 450
GlyphClass: 2
Flags: W
LayerCount: 2
Fore
SplineSet
275 62 m 0,0,1
 338 62 338 62 400 105 c 1,2,-1
 421 73 l 1,3,4
 325 -16 325 -16 242 -16 c 0,5,6
 144 -16 144 -16 85.5 44 c 128,-1,7
 27 104 27 104 27 202 c 128,-1,8
 27 300 27 300 86 368.5 c 128,-1,9
 145 437 145 437 239.5 437 c 128,-1,10
 334 437 334 437 381 379.5 c 128,-1,11
 428 322 428 322 428 225 c 1,12,-1
 156 207 l 1,13,14
 164 62 164 62 275 62 c 0,0,1
298 275 m 1,15,16
 298 386 298 386 232 386 c 0,17,18
 195 386 195 386 175.5 347.5 c 128,-1,19
 156 309 156 309 156 255 c 1,20,-1
 298 275 l 1,15,16
114 658 m 1,21,-1
 127 685 l 1,22,23
 189 685 189 685 232 676 c 1,24,25
 241 667 241 667 273 605 c 128,-1,26
 305 543 305 543 314 521 c 1,27,-1
 267 494 l 1,28,-1
 114 658 l 1,21,-1
EndSplineSet
EndChar

StartChar: eacute
Encoding: 233 233 168
Width: 450
GlyphClass: 2
Flags: W
LayerCount: 2
Fore
SplineSet
275 62 m 0,0,1
 338 62 338 62 400 105 c 1,2,-1
 421 73 l 1,3,4
 325 -16 325 -16 242 -16 c 0,5,6
 144 -16 144 -16 85.5 44 c 128,-1,7
 27 104 27 104 27 202 c 128,-1,8
 27 300 27 300 86 368.5 c 128,-1,9
 145 437 145 437 239.5 437 c 128,-1,10
 334 437 334 437 381 379.5 c 128,-1,11
 428 322 428 322 428 225 c 1,12,-1
 156 207 l 1,13,14
 164 62 164 62 275 62 c 0,0,1
298 275 m 1,15,16
 298 386 298 386 232 386 c 0,17,18
 195 386 195 386 175.5 347.5 c 128,-1,19
 156 309 156 309 156 255 c 1,20,-1
 298 275 l 1,15,16
348 685 m 1,21,-1
 361 658 l 1,22,-1
 208 494 l 1,23,-1
 161 521 l 1,24,25
 170 543 170 543 202 605 c 128,-1,26
 234 667 234 667 243 676 c 1,27,28
 286 685 286 685 348 685 c 1,21,-1
EndSplineSet
EndChar

StartChar: ecircumflex
Encoding: 234 234 169
Width: 450
GlyphClass: 2
Flags: W
LayerCount: 2
Fore
SplineSet
275 62 m 0,0,1
 338 62 338 62 400 105 c 1,2,-1
 421 73 l 1,3,4
 325 -16 325 -16 242 -16 c 0,5,6
 144 -16 144 -16 85.5 44 c 128,-1,7
 27 104 27 104 27 202 c 128,-1,8
 27 300 27 300 86 368.5 c 128,-1,9
 145 437 145 437 239.5 437 c 128,-1,10
 334 437 334 437 381 379.5 c 128,-1,11
 428 322 428 322 428 225 c 1,12,-1
 156 207 l 1,13,14
 164 62 164 62 275 62 c 0,0,1
298 275 m 1,15,16
 298 386 298 386 232 386 c 0,17,18
 195 386 195 386 175.5 347.5 c 128,-1,19
 156 309 156 309 156 255 c 1,20,-1
 298 275 l 1,15,16
187 673 m 1,21,22
 220 678 220 678 243 678 c 128,-1,23
 266 678 266 678 293 673 c 1,24,25
 303 664 303 664 337.5 601.5 c 128,-1,26
 372 539 372 539 380 521 c 1,27,-1
 333 494 l 1,28,-1
 240 598 l 1,29,-1
 147 494 l 1,30,-1
 100 521 l 1,31,32
 108 539 108 539 142.5 601.5 c 128,-1,33
 177 664 177 664 187 673 c 1,21,22
EndSplineSet
EndChar

StartChar: edieresis
Encoding: 235 235 170
Width: 450
GlyphClass: 2
Flags: W
LayerCount: 2
Fore
SplineSet
275 62 m 0,0,1
 338 62 338 62 400 105 c 1,2,-1
 421 73 l 1,3,4
 325 -16 325 -16 242 -16 c 0,5,6
 144 -16 144 -16 85.5 44 c 128,-1,7
 27 104 27 104 27 202 c 128,-1,8
 27 300 27 300 86 368.5 c 128,-1,9
 145 437 145 437 239.5 437 c 128,-1,10
 334 437 334 437 381 379.5 c 128,-1,11
 428 322 428 322 428 225 c 1,12,-1
 156 207 l 1,13,14
 164 62 164 62 275 62 c 0,0,1
298 275 m 1,15,16
 298 386 298 386 232 386 c 0,17,18
 195 386 195 386 175.5 347.5 c 128,-1,19
 156 309 156 309 156 255 c 1,20,-1
 298 275 l 1,15,16
53 587 m 128,-1,22
 53 617 53 617 73.5 635.5 c 128,-1,23
 94 654 94 654 128 654 c 128,-1,24
 162 654 162 654 183 635.5 c 128,-1,25
 204 617 204 617 204 587 c 128,-1,26
 204 557 204 557 183 538.5 c 128,-1,27
 162 520 162 520 128.5 520 c 128,-1,28
 95 520 95 520 74 538.5 c 128,-1,21
 53 557 53 557 53 587 c 128,-1,22
276 587 m 128,-1,30
 276 617 276 617 296.5 635.5 c 128,-1,31
 317 654 317 654 351 654 c 128,-1,32
 385 654 385 654 406 635.5 c 128,-1,33
 427 617 427 617 427 587 c 128,-1,34
 427 557 427 557 406 538.5 c 128,-1,35
 385 520 385 520 351.5 520 c 128,-1,36
 318 520 318 520 297 538.5 c 128,-1,29
 276 557 276 557 276 587 c 128,-1,30
EndSplineSet
EndChar

StartChar: igrave
Encoding: 236 236 171
Width: 298
GlyphClass: 2
Flags: W
LayerCount: 2
Fore
SplineSet
217 321 m 2,0,-1
 217 76 l 2,1,2
 217 63 217 63 219.5 58 c 128,-1,3
 222 53 222 53 232 48 c 0,4,5
 250 37 250 37 285 27 c 1,6,-1
 278 -9 l 1,7,8
 192 0 192 0 157 0 c 128,-1,9
 122 0 122 0 37 -9 c 1,10,-1
 29 27 l 1,11,12
 65 35 65 35 82 47 c 1,13,14
 97 56 97 56 97 76 c 2,15,-1
 97 326 l 2,16,17
 97 361 97 361 70 361 c 1,18,-1
 35 354 l 1,19,-1
 27 394 l 1,20,21
 63 409 63 409 122 423 c 128,-1,22
 181 437 181 437 213 437 c 1,23,-1
 233 414 l 1,24,25
 217 372 217 372 217 321 c 2,0,-1
18 658 m 1,26,-1
 31 685 l 1,27,28
 93 685 93 685 136 676 c 1,29,30
 145 667 145 667 177 605 c 128,-1,31
 209 543 209 543 218 521 c 1,32,-1
 171 494 l 1,33,-1
 18 658 l 1,26,-1
EndSplineSet
EndChar

StartChar: iacute
Encoding: 237 237 172
Width: 298
GlyphClass: 2
Flags: W
LayerCount: 2
Fore
SplineSet
217 321 m 2,0,-1
 217 76 l 2,1,2
 217 63 217 63 219.5 58 c 128,-1,3
 222 53 222 53 232 48 c 0,4,5
 250 37 250 37 285 27 c 1,6,-1
 278 -9 l 1,7,8
 192 0 192 0 157 0 c 128,-1,9
 122 0 122 0 37 -9 c 1,10,-1
 29 27 l 1,11,12
 65 35 65 35 82 47 c 1,13,14
 97 56 97 56 97 76 c 2,15,-1
 97 326 l 2,16,17
 97 361 97 361 70 361 c 1,18,-1
 35 354 l 1,19,-1
 27 394 l 1,20,21
 63 409 63 409 122 423 c 128,-1,22
 181 437 181 437 213 437 c 1,23,-1
 233 414 l 1,24,25
 217 372 217 372 217 321 c 2,0,-1
252 685 m 1,26,-1
 265 658 l 1,27,-1
 112 494 l 1,28,-1
 65 521 l 1,29,30
 74 543 74 543 106 605 c 128,-1,31
 138 667 138 667 147 676 c 1,32,33
 190 685 190 685 252 685 c 1,26,-1
EndSplineSet
EndChar

StartChar: icircumflex
Encoding: 238 238 173
Width: 298
GlyphClass: 2
Flags: W
LayerCount: 2
Fore
SplineSet
217 321 m 2,0,-1
 217 76 l 2,1,2
 217 63 217 63 219.5 58 c 128,-1,3
 222 53 222 53 232 48 c 0,4,5
 250 37 250 37 285 27 c 1,6,-1
 278 -9 l 1,7,8
 192 0 192 0 157 0 c 128,-1,9
 122 0 122 0 37 -9 c 1,10,-1
 29 27 l 1,11,12
 65 35 65 35 82 47 c 1,13,14
 97 56 97 56 97 76 c 2,15,-1
 97 326 l 2,16,17
 97 361 97 361 70 361 c 1,18,-1
 35 354 l 1,19,-1
 27 394 l 1,20,21
 63 409 63 409 122 423 c 128,-1,22
 181 437 181 437 213 437 c 1,23,-1
 233 414 l 1,24,25
 217 372 217 372 217 321 c 2,0,-1
91 673 m 1,26,27
 124 678 124 678 147 678 c 128,-1,28
 170 678 170 678 197 673 c 1,29,30
 207 664 207 664 241.5 601.5 c 128,-1,31
 276 539 276 539 284 521 c 1,32,-1
 237 494 l 1,33,-1
 144 598 l 1,34,-1
 51 494 l 1,35,-1
 4 521 l 1,36,37
 12 539 12 539 46.5 601.5 c 128,-1,38
 81 664 81 664 91 673 c 1,26,27
EndSplineSet
EndChar

StartChar: idieresis
Encoding: 239 239 174
Width: 298
GlyphClass: 2
Flags: W
LayerCount: 2
Fore
SplineSet
217 321 m 2,0,-1
 217 76 l 2,1,2
 217 63 217 63 219.5 58 c 128,-1,3
 222 53 222 53 232 48 c 0,4,5
 250 37 250 37 285 27 c 1,6,-1
 278 -9 l 1,7,8
 192 0 192 0 157 0 c 128,-1,9
 122 0 122 0 37 -9 c 1,10,-1
 29 27 l 1,11,12
 65 35 65 35 82 47 c 1,13,14
 97 56 97 56 97 76 c 2,15,-1
 97 326 l 2,16,17
 97 361 97 361 70 361 c 1,18,-1
 35 354 l 1,19,-1
 27 394 l 1,20,21
 63 409 63 409 122 423 c 128,-1,22
 181 437 181 437 213 437 c 1,23,-1
 233 414 l 1,24,25
 217 372 217 372 217 321 c 2,0,-1
-43 587 m 128,-1,27
 -43 617 -43 617 -22.5 635.5 c 128,-1,28
 -2 654 -2 654 32 654 c 128,-1,29
 66 654 66 654 87 635.5 c 128,-1,30
 108 617 108 617 108 587 c 128,-1,31
 108 557 108 557 87 538.5 c 128,-1,32
 66 520 66 520 32.5 520 c 128,-1,33
 -1 520 -1 520 -22 538.5 c 128,-1,26
 -43 557 -43 557 -43 587 c 128,-1,27
180 587 m 128,-1,35
 180 617 180 617 200.5 635.5 c 128,-1,36
 221 654 221 654 255 654 c 128,-1,37
 289 654 289 654 310 635.5 c 128,-1,38
 331 617 331 617 331 587 c 128,-1,39
 331 557 331 557 310 538.5 c 128,-1,40
 289 520 289 520 255.5 520 c 128,-1,41
 222 520 222 520 201 538.5 c 128,-1,34
 180 557 180 557 180 587 c 128,-1,35
EndSplineSet
EndChar

StartChar: eth
Encoding: 240 240 175
Width: 460
GlyphClass: 2
Flags: W
LayerCount: 2
Fore
SplineSet
436 290 m 0,0,1
 436 70 436 70 324 9 c 0,2,3
 278 -16 278 -16 212 -16 c 0,4,5
 104 -16 104 -16 46 42 c 128,-1,6
 -12 100 -12 100 -12 200.5 c 128,-1,7
 -12 301 -12 301 49.5 366.5 c 128,-1,8
 111 432 111 432 211 432 c 0,9,10
 231 432 231 432 255 423 c 128,-1,11
 279 414 279 414 288 404 c 1,12,13
 270 500 270 500 228 563 c 1,14,-1
 127 505 l 1,15,-1
 111 552 l 1,16,-1
 197 602 l 1,17,18
 138 664 138 664 53 680 c 1,19,-1
 58 718 l 1,20,21
 170 713 170 713 267 642 c 1,22,-1
 381 708 l 1,23,-1
 397 661 l 1,24,-1
 306 608 l 1,25,26
 436 485 436 485 436 290 c 0,0,1
117 219 m 0,27,28
 117 130 117 130 145.5 82.5 c 128,-1,29
 174 35 174 35 225 35 c 0,30,31
 301 35 301 35 301 197 c 0,32,33
 301 279 301 279 294 315 c 1,34,35
 264 376 264 376 197 376 c 0,36,37
 117 376 117 376 117 219 c 0,27,28
EndSplineSet
EndChar

StartChar: ntilde
Encoding: 241 241 176
Width: 573
GlyphClass: 2
Flags: W
LayerCount: 2
Fore
SplineSet
217 74 m 2,0,1
 217 44 217 44 274 26 c 1,2,-1
 267 -9 l 1,3,4
 164 0 164 0 151 0 c 128,-1,5
 138 0 138 0 39 -9 c 1,6,-1
 29 27 l 1,7,8
 65 35 65 35 81 45 c 128,-1,9
 97 55 97 55 97 76 c 2,10,-1
 97 326 l 2,11,12
 97 360 97 360 71 360 c 1,13,-1
 25 354 l 1,14,-1
 20 392 l 1,15,16
 53 407 53 407 103 420.5 c 128,-1,17
 153 434 153 434 185 437 c 1,18,-1
 206 414 l 1,19,20
 206 394 206 394 216 366 c 1,21,-1
 249 393 l 2,22,23
 302 437 302 437 346 437 c 0,24,25
 419 437 419 437 456.5 401.5 c 128,-1,26
 494 366 494 366 494 286 c 2,27,-1
 494 76 l 2,28,29
 494 63 494 63 496.5 58 c 128,-1,30
 499 53 499 53 508 48 c 0,31,32
 527 37 527 37 562 27 c 1,33,-1
 554 -9 l 1,34,35
 455 0 455 0 441.5 0 c 128,-1,36
 428 0 428 0 325 -9 c 1,37,-1
 318 26 l 1,38,39
 343 34 343 34 359 45 c 0,40,41
 374 56 374 56 374 74 c 2,42,-1
 374 266 l 2,43,44
 374 316 374 316 358.5 338.5 c 128,-1,45
 343 361 343 361 307.5 361 c 128,-1,46
 272 361 272 361 217 322 c 1,47,-1
 217 74 l 2,0,1
293 536 m 128,-1,49
 248 557 248 557 222.5 557 c 128,-1,50
 197 557 197 557 160 511 c 1,51,-1
 129 530 l 1,52,53
 141 552 141 552 170.5 594 c 128,-1,54
 200 636 200 636 214 649 c 1,55,-1
 237 653 l 1,56,57
 249 651 249 651 294 628 c 128,-1,58
 339 605 339 605 364 605 c 128,-1,59
 389 605 389 605 424 645 c 1,60,-1
 456 623 l 1,61,62
 444 602 444 602 415 565 c 128,-1,63
 386 528 386 528 373 517 c 1,64,-1
 350 513 l 1,65,48
 338 515 338 515 293 536 c 128,-1,49
EndSplineSet
EndChar

StartChar: ograve
Encoding: 242 242 177
Width: 510
GlyphClass: 2
Flags: W
LayerCount: 2
Fore
SplineSet
89.5 42 m 128,-1,1
 31 100 31 100 31 200.5 c 128,-1,2
 31 301 31 301 92.5 366.5 c 128,-1,3
 154 432 154 432 257.5 432 c 128,-1,4
 361 432 361 432 420 373.5 c 128,-1,5
 479 315 479 315 479 215.5 c 128,-1,6
 479 116 479 116 416.5 50 c 128,-1,7
 354 -16 354 -16 251 -16 c 128,-1,0
 148 -16 148 -16 89.5 42 c 128,-1,1
160 219 m 0,8,9
 160 130 160 130 188.5 82.5 c 128,-1,10
 217 35 217 35 268 35 c 0,11,12
 350 35 350 35 350 197 c 0,13,14
 350 286 350 286 321 333.5 c 128,-1,15
 292 381 292 381 240 381 c 0,16,17
 160 381 160 381 160 219 c 0,8,9
137 657 m 1,18,-1
 150 684 l 1,19,20
 212 684 212 684 255 675 c 1,21,22
 264 666 264 666 296 604 c 128,-1,23
 328 542 328 542 337 520 c 1,24,-1
 290 493 l 1,25,-1
 137 657 l 1,18,-1
EndSplineSet
EndChar

StartChar: oacute
Encoding: 243 243 178
Width: 510
GlyphClass: 2
Flags: W
LayerCount: 2
Fore
SplineSet
89.5 42 m 128,-1,1
 31 100 31 100 31 200.5 c 128,-1,2
 31 301 31 301 92.5 366.5 c 128,-1,3
 154 432 154 432 257.5 432 c 128,-1,4
 361 432 361 432 420 373.5 c 128,-1,5
 479 315 479 315 479 215.5 c 128,-1,6
 479 116 479 116 416.5 50 c 128,-1,7
 354 -16 354 -16 251 -16 c 128,-1,0
 148 -16 148 -16 89.5 42 c 128,-1,1
160 219 m 0,8,9
 160 130 160 130 188.5 82.5 c 128,-1,10
 217 35 217 35 268 35 c 0,11,12
 350 35 350 35 350 197 c 0,13,14
 350 286 350 286 321 333.5 c 128,-1,15
 292 381 292 381 240 381 c 0,16,17
 160 381 160 381 160 219 c 0,8,9
371 684 m 1,18,-1
 384 657 l 1,19,-1
 231 493 l 1,20,-1
 184 520 l 1,21,22
 193 542 193 542 225 604 c 128,-1,23
 257 666 257 666 266 675 c 1,24,25
 309 684 309 684 371 684 c 1,18,-1
EndSplineSet
EndChar

StartChar: ocircumflex
Encoding: 244 244 179
Width: 510
GlyphClass: 2
Flags: W
LayerCount: 2
Fore
SplineSet
89.5 42 m 128,-1,1
 31 100 31 100 31 200.5 c 128,-1,2
 31 301 31 301 92.5 366.5 c 128,-1,3
 154 432 154 432 257.5 432 c 128,-1,4
 361 432 361 432 420 373.5 c 128,-1,5
 479 315 479 315 479 215.5 c 128,-1,6
 479 116 479 116 416.5 50 c 128,-1,7
 354 -16 354 -16 251 -16 c 128,-1,0
 148 -16 148 -16 89.5 42 c 128,-1,1
160 219 m 0,8,9
 160 130 160 130 188.5 82.5 c 128,-1,10
 217 35 217 35 268 35 c 0,11,12
 350 35 350 35 350 197 c 0,13,14
 350 286 350 286 321 333.5 c 128,-1,15
 292 381 292 381 240 381 c 0,16,17
 160 381 160 381 160 219 c 0,8,9
210 672 m 1,18,19
 243 677 243 677 266 677 c 128,-1,20
 289 677 289 677 316 672 c 1,21,22
 326 663 326 663 360.5 600.5 c 128,-1,23
 395 538 395 538 403 520 c 1,24,-1
 356 493 l 1,25,-1
 263 597 l 1,26,-1
 170 493 l 1,27,-1
 123 520 l 1,28,29
 131 538 131 538 165.5 600.5 c 128,-1,30
 200 663 200 663 210 672 c 1,18,19
EndSplineSet
EndChar

StartChar: otilde
Encoding: 245 245 180
Width: 510
GlyphClass: 2
Flags: W
LayerCount: 2
Fore
SplineSet
89.5 42 m 128,-1,1
 31 100 31 100 31 200.5 c 128,-1,2
 31 301 31 301 92.5 366.5 c 128,-1,3
 154 432 154 432 257.5 432 c 128,-1,4
 361 432 361 432 420 373.5 c 128,-1,5
 479 315 479 315 479 215.5 c 128,-1,6
 479 116 479 116 416.5 50 c 128,-1,7
 354 -16 354 -16 251 -16 c 128,-1,0
 148 -16 148 -16 89.5 42 c 128,-1,1
160 219 m 0,8,9
 160 130 160 130 188.5 82.5 c 128,-1,10
 217 35 217 35 268 35 c 0,11,12
 350 35 350 35 350 197 c 0,13,14
 350 286 350 286 321 333.5 c 128,-1,15
 292 381 292 381 240 381 c 0,16,17
 160 381 160 381 160 219 c 0,8,9
263 535 m 128,-1,19
 218 556 218 556 192.5 556 c 128,-1,20
 167 556 167 556 130 510 c 1,21,-1
 99 529 l 1,22,23
 111 551 111 551 140.5 593 c 128,-1,24
 170 635 170 635 184 648 c 1,25,-1
 207 652 l 1,26,27
 219 650 219 650 264 627 c 128,-1,28
 309 604 309 604 334 604 c 128,-1,29
 359 604 359 604 394 644 c 1,30,-1
 426 622 l 1,31,32
 414 601 414 601 385 564 c 128,-1,33
 356 527 356 527 343 516 c 1,34,-1
 320 512 l 1,35,18
 308 514 308 514 263 535 c 128,-1,19
EndSplineSet
EndChar

StartChar: odieresis
Encoding: 246 246 181
Width: 510
GlyphClass: 2
Flags: W
LayerCount: 2
Fore
SplineSet
89.5 42 m 128,-1,1
 31 100 31 100 31 200.5 c 128,-1,2
 31 301 31 301 92.5 366.5 c 128,-1,3
 154 432 154 432 257.5 432 c 128,-1,4
 361 432 361 432 420 373.5 c 128,-1,5
 479 315 479 315 479 215.5 c 128,-1,6
 479 116 479 116 416.5 50 c 128,-1,7
 354 -16 354 -16 251 -16 c 128,-1,0
 148 -16 148 -16 89.5 42 c 128,-1,1
160 219 m 0,8,9
 160 130 160 130 188.5 82.5 c 128,-1,10
 217 35 217 35 268 35 c 0,11,12
 350 35 350 35 350 197 c 0,13,14
 350 286 350 286 321 333.5 c 128,-1,15
 292 381 292 381 240 381 c 0,16,17
 160 381 160 381 160 219 c 0,8,9
76 586 m 128,-1,19
 76 616 76 616 96.5 634.5 c 128,-1,20
 117 653 117 653 151 653 c 128,-1,21
 185 653 185 653 206 634.5 c 128,-1,22
 227 616 227 616 227 586 c 128,-1,23
 227 556 227 556 206 537.5 c 128,-1,24
 185 519 185 519 151.5 519 c 128,-1,25
 118 519 118 519 97 537.5 c 128,-1,18
 76 556 76 556 76 586 c 128,-1,19
299 586 m 128,-1,27
 299 616 299 616 319.5 634.5 c 128,-1,28
 340 653 340 653 374 653 c 128,-1,29
 408 653 408 653 429 634.5 c 128,-1,30
 450 616 450 616 450 586 c 128,-1,31
 450 556 450 556 429 537.5 c 128,-1,32
 408 519 408 519 374.5 519 c 128,-1,33
 341 519 341 519 320 537.5 c 128,-1,26
 299 556 299 556 299 586 c 128,-1,27
EndSplineSet
EndChar

StartChar: divide
Encoding: 247 247 182
Width: 464
GlyphClass: 2
Flags: W
LayerCount: 2
Fore
SplineSet
162 371 m 128,-1,1
 162 398 162 398 181 415 c 128,-1,2
 200 432 200 432 231 432 c 128,-1,3
 262 432 262 432 281.5 415 c 128,-1,4
 301 398 301 398 301 370.5 c 128,-1,5
 301 343 301 343 281.5 326.5 c 128,-1,6
 262 310 262 310 231.5 310 c 128,-1,7
 201 310 201 310 181.5 327 c 128,-1,0
 162 344 162 344 162 371 c 128,-1,1
181.5 33 m 128,-1,9
 162 50 162 50 162 77.5 c 128,-1,10
 162 105 162 105 181 121.5 c 128,-1,11
 200 138 200 138 231 138 c 128,-1,12
 262 138 262 138 281.5 121.5 c 128,-1,13
 301 105 301 105 301 77.5 c 128,-1,14
 301 50 301 50 281.5 33 c 128,-1,15
 262 16 262 16 231.5 16 c 128,-1,8
 201 16 201 16 181.5 33 c 128,-1,9
421 186 m 1,16,-1
 43 186 l 1,17,-1
 43 262 l 1,18,-1
 421 262 l 1,19,-1
 421 186 l 1,16,-1
EndSplineSet
EndChar

StartChar: oslash
Encoding: 248 248 183
Width: 522
GlyphClass: 2
Flags: W
LayerCount: 2
Fore
SplineSet
97 38 m 1,0,1
 35 95 35 95 35 199 c 128,-1,2
 35 303 35 303 96.5 370 c 128,-1,3
 158 437 158 437 258 437 c 0,4,5
 315 437 315 437 361 417 c 1,6,-1
 403 477 l 1,7,-1
 440 438 l 1,8,-1
 407 390 l 1,9,10
 487 329 487 329 487 223.5 c 128,-1,11
 487 118 487 118 420.5 51 c 128,-1,12
 354 -16 354 -16 259 -16 c 0,13,14
 191 -16 191 -16 141 9 c 1,15,-1
 102 -47 l 1,16,-1
 65 -8 l 1,17,-1
 97 38 l 1,0,1
340.5 73 m 128,-1,19
 358 110 358 110 358 185 c 128,-1,20
 358 260 358 260 347 304 c 1,21,-1
 192 82 l 1,22,23
 220 36 220 36 271.5 36 c 128,-1,18
 323 36 323 36 340.5 73 c 128,-1,19
164 219 m 0,24,25
 164 177 164 177 170 144 c 1,26,-1
 319 358 l 1,27,28
 293 386 293 386 247.5 386 c 128,-1,29
 202 386 202 386 183 347.5 c 128,-1,30
 164 309 164 309 164 219 c 0,24,25
EndSplineSet
EndChar

StartChar: ugrave
Encoding: 249 249 184
Width: 550
GlyphClass: 2
Flags: W
LayerCount: 2
Fore
SplineSet
467 321 m 2,0,-1
 467 95 l 2,1,2
 467 69 467 69 483 62 c 1,3,4
 496 53 496 53 536 53 c 1,5,-1
 544 19 l 1,6,7
 455 3 455 3 402 -16 c 1,8,9
 350 16 350 16 350 54 c 1,10,11
 276 -16 276 -16 226 -16 c 0,12,13
 154 -16 154 -16 116 19 c 128,-1,14
 78 54 78 54 78 135 c 2,15,-1
 78 326 l 2,16,17
 78 361 78 361 51 361 c 1,18,-1
 16 354 l 1,19,-1
 8 394 l 1,20,21
 44 409 44 409 103 423 c 128,-1,22
 162 437 162 437 194 437 c 1,23,-1
 214 414 l 1,24,25
 198 372 198 372 198 321 c 2,26,-1
 198 155 l 2,27,28
 198 105 198 105 213.5 82.5 c 128,-1,29
 229 60 229 60 264.5 60 c 128,-1,30
 300 60 300 60 347 96 c 1,31,-1
 347 326 l 2,32,33
 347 361 347 361 320 361 c 1,34,-1
 285 354 l 1,35,-1
 277 394 l 1,36,37
 313 409 313 409 372 423 c 128,-1,38
 431 437 431 437 463 437 c 1,39,-1
 483 414 l 1,40,41
 467 372 467 372 467 321 c 2,0,-1
144 658 m 1,42,-1
 157 685 l 1,43,44
 219 685 219 685 262 676 c 1,45,46
 271 667 271 667 303 605 c 128,-1,47
 335 543 335 543 344 521 c 1,48,-1
 297 494 l 1,49,-1
 144 658 l 1,42,-1
EndSplineSet
EndChar

StartChar: uacute
Encoding: 250 250 185
Width: 550
GlyphClass: 2
Flags: W
LayerCount: 2
Fore
SplineSet
467 321 m 2,0,-1
 467 95 l 2,1,2
 467 69 467 69 483 62 c 1,3,4
 496 53 496 53 536 53 c 1,5,-1
 544 19 l 1,6,7
 455 3 455 3 402 -16 c 1,8,9
 350 16 350 16 350 54 c 1,10,11
 276 -16 276 -16 226 -16 c 0,12,13
 154 -16 154 -16 116 19 c 128,-1,14
 78 54 78 54 78 135 c 2,15,-1
 78 326 l 2,16,17
 78 361 78 361 51 361 c 1,18,-1
 16 354 l 1,19,-1
 8 394 l 1,20,21
 44 409 44 409 103 423 c 128,-1,22
 162 437 162 437 194 437 c 1,23,-1
 214 414 l 1,24,25
 198 372 198 372 198 321 c 2,26,-1
 198 155 l 2,27,28
 198 105 198 105 213.5 82.5 c 128,-1,29
 229 60 229 60 264.5 60 c 128,-1,30
 300 60 300 60 347 96 c 1,31,-1
 347 326 l 2,32,33
 347 361 347 361 320 361 c 1,34,-1
 285 354 l 1,35,-1
 277 394 l 1,36,37
 313 409 313 409 372 423 c 128,-1,38
 431 437 431 437 463 437 c 1,39,-1
 483 414 l 1,40,41
 467 372 467 372 467 321 c 2,0,-1
378 685 m 1,42,-1
 391 658 l 1,43,-1
 238 494 l 1,44,-1
 191 521 l 1,45,46
 200 543 200 543 232 605 c 128,-1,47
 264 667 264 667 273 676 c 1,48,49
 316 685 316 685 378 685 c 1,42,-1
EndSplineSet
EndChar

StartChar: ucircumflex
Encoding: 251 251 186
Width: 550
GlyphClass: 2
Flags: W
LayerCount: 2
Fore
SplineSet
467 321 m 2,0,-1
 467 95 l 2,1,2
 467 69 467 69 483 62 c 1,3,4
 496 53 496 53 536 53 c 1,5,-1
 544 19 l 1,6,7
 455 3 455 3 402 -16 c 1,8,9
 350 16 350 16 350 54 c 1,10,11
 276 -16 276 -16 226 -16 c 0,12,13
 154 -16 154 -16 116 19 c 128,-1,14
 78 54 78 54 78 135 c 2,15,-1
 78 326 l 2,16,17
 78 361 78 361 51 361 c 1,18,-1
 16 354 l 1,19,-1
 8 394 l 1,20,21
 44 409 44 409 103 423 c 128,-1,22
 162 437 162 437 194 437 c 1,23,-1
 214 414 l 1,24,25
 198 372 198 372 198 321 c 2,26,-1
 198 155 l 2,27,28
 198 105 198 105 213.5 82.5 c 128,-1,29
 229 60 229 60 264.5 60 c 128,-1,30
 300 60 300 60 347 96 c 1,31,-1
 347 326 l 2,32,33
 347 361 347 361 320 361 c 1,34,-1
 285 354 l 1,35,-1
 277 394 l 1,36,37
 313 409 313 409 372 423 c 128,-1,38
 431 437 431 437 463 437 c 1,39,-1
 483 414 l 1,40,41
 467 372 467 372 467 321 c 2,0,-1
217 673 m 1,42,43
 250 678 250 678 273 678 c 128,-1,44
 296 678 296 678 323 673 c 1,45,46
 333 664 333 664 367.5 601.5 c 128,-1,47
 402 539 402 539 410 521 c 1,48,-1
 363 494 l 1,49,-1
 270 598 l 1,50,-1
 177 494 l 1,51,-1
 130 521 l 1,52,53
 138 539 138 539 172.5 601.5 c 128,-1,54
 207 664 207 664 217 673 c 1,42,43
EndSplineSet
EndChar

StartChar: udieresis
Encoding: 252 252 187
Width: 550
GlyphClass: 2
Flags: W
LayerCount: 2
Fore
SplineSet
467 321 m 2,0,-1
 467 95 l 2,1,2
 467 69 467 69 483 62 c 1,3,4
 496 53 496 53 536 53 c 1,5,-1
 544 19 l 1,6,7
 455 3 455 3 402 -16 c 1,8,9
 350 16 350 16 350 54 c 1,10,11
 276 -16 276 -16 226 -16 c 0,12,13
 154 -16 154 -16 116 19 c 128,-1,14
 78 54 78 54 78 135 c 2,15,-1
 78 326 l 2,16,17
 78 361 78 361 51 361 c 1,18,-1
 16 354 l 1,19,-1
 8 394 l 1,20,21
 44 409 44 409 103 423 c 128,-1,22
 162 437 162 437 194 437 c 1,23,-1
 214 414 l 1,24,25
 198 372 198 372 198 321 c 2,26,-1
 198 155 l 2,27,28
 198 105 198 105 213.5 82.5 c 128,-1,29
 229 60 229 60 264.5 60 c 128,-1,30
 300 60 300 60 347 96 c 1,31,-1
 347 326 l 2,32,33
 347 361 347 361 320 361 c 1,34,-1
 285 354 l 1,35,-1
 277 394 l 1,36,37
 313 409 313 409 372 423 c 128,-1,38
 431 437 431 437 463 437 c 1,39,-1
 483 414 l 1,40,41
 467 372 467 372 467 321 c 2,0,-1
83 587 m 128,-1,43
 83 617 83 617 103.5 635.5 c 128,-1,44
 124 654 124 654 158 654 c 128,-1,45
 192 654 192 654 213 635.5 c 128,-1,46
 234 617 234 617 234 587 c 128,-1,47
 234 557 234 557 213 538.5 c 128,-1,48
 192 520 192 520 158.5 520 c 128,-1,49
 125 520 125 520 104 538.5 c 128,-1,42
 83 557 83 557 83 587 c 128,-1,43
306 587 m 128,-1,51
 306 617 306 617 326.5 635.5 c 128,-1,52
 347 654 347 654 381 654 c 128,-1,53
 415 654 415 654 436 635.5 c 128,-1,54
 457 617 457 617 457 587 c 128,-1,55
 457 557 457 557 436 538.5 c 128,-1,56
 415 520 415 520 381.5 520 c 128,-1,57
 348 520 348 520 327 538.5 c 128,-1,50
 306 557 306 557 306 587 c 128,-1,51
EndSplineSet
EndChar

StartChar: yacute
Encoding: 253 253 188
Width: 465
GlyphClass: 2
Flags: W
LayerCount: 2
Fore
SplineSet
70 -244 m 2,0,-1
 53 -244 l 1,1,2
 29 -203 29 -203 16 -127 c 1,3,-1
 39 -113 l 1,4,5
 68 -131 68 -131 90 -131 c 0,6,7
 137 -131 137 -131 162 -88 c 1,8,-1
 196 -9 l 1,9,-1
 43 348 l 2,10,11
 31 375 31 375 22 382 c 128,-1,12
 13 389 13 389 -12 392 c 1,13,-1
 -19 429 l 1,14,15
 61 421 61 421 96 421 c 128,-1,16
 131 421 131 421 221 429 c 1,17,-1
 217 394 l 1,18,19
 215 393 215 393 206.5 391 c 128,-1,20
 198 389 198 389 192.5 387.5 c 128,-1,21
 187 386 187 386 180 384 c 0,22,23
 166 378 166 378 166 369 c 0,24,25
 166 362 166 362 170 348 c 1,26,-1
 258 123 l 1,27,-1
 344 352 l 2,28,29
 347 361 347 361 347 369 c 0,30,31
 347 387 347 387 294 393 c 1,32,-1
 292 428 l 1,33,34
 341 421 341 421 374 421 c 128,-1,35
 407 421 407 421 483 428 c 1,36,-1
 476 391 l 1,37,38
 452 390 452 390 442.5 382.5 c 128,-1,39
 433 375 433 375 423 352 c 2,40,-1
 213 -139 l 2,41,42
 168 -244 168 -244 70 -244 c 2,0,-1
349 685 m 1,43,-1
 362 658 l 1,44,-1
 209 494 l 1,45,-1
 162 521 l 1,46,47
 171 543 171 543 203 605 c 128,-1,48
 235 667 235 667 244 676 c 1,49,50
 287 685 287 685 349 685 c 1,43,-1
EndSplineSet
EndChar

StartChar: thorn
Encoding: 254 254 189
Width: 515
GlyphClass: 2
Flags: W
LayerCount: 2
Fore
SplineSet
262 -253 m 1,0,1
 169 -244 169 -244 136 -244 c 128,-1,2
 103 -244 103 -244 4 -253 c 1,3,-1
 -6 -217 l 1,4,5
 30 -209 30 -209 46 -199 c 128,-1,6
 62 -189 62 -189 62 -168 c 2,7,-1
 62 612 l 2,8,9
 62 630 62 630 57 637.5 c 128,-1,10
 52 645 52 645 37 645 c 1,11,-1
 0 640 l 1,12,-1
 -6 678 l 1,13,14
 28 691 28 691 84.5 703.5 c 128,-1,15
 141 716 141 716 175 718 c 1,16,-1
 195 695 l 1,17,18
 182 670 182 670 182 602 c 2,19,-1
 182 383 l 1,20,21
 247 437 247 437 302 437 c 0,22,23
 392 437 392 437 438 381 c 128,-1,24
 484 325 484 325 484 224 c 128,-1,25
 484 123 484 123 419.5 53.5 c 128,-1,26
 355 -16 355 -16 255 -16 c 0,27,28
 224 -16 224 -16 182 -9 c 1,29,-1
 182 -170 l 2,30,31
 182 -189 182 -189 198 -200 c 1,32,33
 221 -210 221 -210 269 -218 c 1,34,-1
 262 -253 l 1,0,1
261 363 m 0,35,36
 222 363 222 363 192 344 c 1,37,-1
 182 337 l 1,38,-1
 182 107 l 2,39,40
 182 77 182 77 203.5 58.5 c 128,-1,41
 225 40 225 40 262.5 40 c 128,-1,42
 300 40 300 40 327.5 82 c 128,-1,43
 355 124 355 124 355 206 c 0,44,45
 355 363 355 363 261 363 c 0,35,36
EndSplineSet
EndChar

StartChar: ydieresis
Encoding: 255 255 190
Width: 466
GlyphClass: 2
Flags: W
LayerCount: 2
Fore
SplineSet
70 -244 m 2,0,-1
 53 -244 l 1,1,2
 29 -203 29 -203 16 -127 c 1,3,-1
 39 -113 l 1,4,5
 68 -131 68 -131 90 -131 c 0,6,7
 137 -131 137 -131 162 -88 c 1,8,-1
 196 -9 l 1,9,-1
 43 348 l 2,10,11
 31 375 31 375 22 382 c 128,-1,12
 13 389 13 389 -12 392 c 1,13,-1
 -19 429 l 1,14,15
 61 421 61 421 96 421 c 128,-1,16
 131 421 131 421 221 429 c 1,17,-1
 217 394 l 1,18,19
 215 393 215 393 206.5 391 c 128,-1,20
 198 389 198 389 192.5 387.5 c 128,-1,21
 187 386 187 386 180 384 c 0,22,23
 166 378 166 378 166 369 c 0,24,25
 166 362 166 362 170 348 c 1,26,-1
 258 123 l 1,27,-1
 344 352 l 2,28,29
 347 361 347 361 347 369 c 0,30,31
 347 387 347 387 294 393 c 1,32,-1
 292 428 l 1,33,34
 341 421 341 421 374 421 c 128,-1,35
 407 421 407 421 483 428 c 1,36,-1
 476 391 l 1,37,38
 452 390 452 390 442.5 382.5 c 128,-1,39
 433 375 433 375 423 352 c 2,40,-1
 213 -139 l 2,41,42
 168 -244 168 -244 70 -244 c 2,0,-1
54 587 m 128,-1,44
 54 617 54 617 74.5 635.5 c 128,-1,45
 95 654 95 654 129 654 c 128,-1,46
 163 654 163 654 184 635.5 c 128,-1,47
 205 617 205 617 205 587 c 128,-1,48
 205 557 205 557 184 538.5 c 128,-1,49
 163 520 163 520 129.5 520 c 128,-1,50
 96 520 96 520 75 538.5 c 128,-1,43
 54 557 54 557 54 587 c 128,-1,44
277 587 m 128,-1,52
 277 617 277 617 297.5 635.5 c 128,-1,53
 318 654 318 654 352 654 c 128,-1,54
 386 654 386 654 407 635.5 c 128,-1,55
 428 617 428 617 428 587 c 128,-1,56
 428 557 428 557 407 538.5 c 128,-1,57
 386 520 386 520 352.5 520 c 128,-1,58
 319 520 319 520 298 538.5 c 128,-1,51
 277 557 277 557 277 587 c 128,-1,52
EndSplineSet
EndChar

StartChar: itilde
Encoding: 297 297 191
Width: 298
GlyphClass: 2
Flags: W
LayerCount: 2
Fore
SplineSet
217 321 m 2,0,-1
 217 76 l 2,1,2
 217 63 217 63 219.5 58 c 128,-1,3
 222 53 222 53 232 48 c 0,4,5
 250 37 250 37 285 27 c 1,6,-1
 278 -9 l 1,7,8
 192 0 192 0 157 0 c 128,-1,9
 122 0 122 0 37 -9 c 1,10,-1
 29 27 l 1,11,12
 65 35 65 35 82 47 c 1,13,14
 97 56 97 56 97 76 c 2,15,-1
 97 326 l 2,16,17
 97 361 97 361 70 361 c 1,18,-1
 35 354 l 1,19,-1
 27 394 l 1,20,21
 63 409 63 409 122 423 c 128,-1,22
 181 437 181 437 213 437 c 1,23,-1
 233 414 l 1,24,25
 217 372 217 372 217 321 c 2,0,-1
144 536 m 128,-1,27
 99 557 99 557 73.5 557 c 128,-1,28
 48 557 48 557 11 511 c 1,29,-1
 -20 530 l 1,30,31
 -8 552 -8 552 21.5 594 c 128,-1,32
 51 636 51 636 65 649 c 1,33,-1
 88 653 l 1,34,35
 100 651 100 651 145 628 c 128,-1,36
 190 605 190 605 215 605 c 128,-1,37
 240 605 240 605 275 645 c 1,38,-1
 307 623 l 1,39,40
 295 602 295 602 266 565 c 128,-1,41
 237 528 237 528 224 517 c 1,42,-1
 201 513 l 1,43,26
 189 515 189 515 144 536 c 128,-1,27
EndSplineSet
EndChar

StartChar: dotlessi
Encoding: 305 305 192
Width: 298
GlyphClass: 2
Flags: W
LayerCount: 2
Fore
SplineSet
217 321 m 2,0,-1
 217 76 l 2,1,2
 217 63 217 63 219.5 58 c 128,-1,3
 222 53 222 53 232 48 c 0,4,5
 250 37 250 37 285 27 c 1,6,-1
 278 -9 l 1,7,8
 192 0 192 0 157 0 c 128,-1,9
 122 0 122 0 37 -9 c 1,10,-1
 29 27 l 1,11,12
 65 35 65 35 82 47 c 1,13,14
 97 56 97 56 97 76 c 2,15,-1
 97 326 l 2,16,17
 97 361 97 361 70 361 c 1,18,-1
 35 354 l 1,19,-1
 27 394 l 1,20,21
 63 409 63 409 122 423 c 128,-1,22
 181 437 181 437 213 437 c 1,23,-1
 233 414 l 1,24,25
 217 372 217 372 217 321 c 2,0,-1
EndSplineSet
EndChar

StartChar: ij
Encoding: 307 307 193
Width: 570
GlyphClass: 2
Flags: W
LayerCount: 2
Fore
SplineSet
217 321 m 2,0,-1
 217 76 l 2,1,2
 217 63 217 63 219.5 58 c 128,-1,3
 222 53 222 53 232 48 c 0,4,5
 250 37 250 37 285 27 c 1,6,-1
 278 -9 l 1,7,8
 192 0 192 0 157 0 c 128,-1,9
 122 0 122 0 37 -9 c 1,10,-1
 29 27 l 1,11,12
 65 35 65 35 82 47 c 1,13,14
 97 56 97 56 97 76 c 2,15,-1
 97 326 l 2,16,17
 97 361 97 361 70 361 c 1,18,-1
 35 354 l 1,19,-1
 27 394 l 1,20,21
 63 409 63 409 122 423 c 128,-1,22
 181 437 181 437 213 437 c 1,23,-1
 233 414 l 1,24,25
 217 372 217 372 217 321 c 2,0,-1
62 591 m 128,-1,27
 62 622 62 622 83.5 641 c 128,-1,28
 105 660 105 660 140 660 c 128,-1,29
 175 660 175 660 197 641 c 128,-1,30
 219 622 219 622 219 591 c 128,-1,31
 219 560 219 560 197 541 c 128,-1,32
 175 522 175 522 140 522 c 128,-1,33
 105 522 105 522 83.5 541 c 128,-1,26
 62 560 62 560 62 591 c 128,-1,27
385 -28 m 2,34,-1
 385 326 l 2,35,36
 385 361 385 361 358 361 c 1,37,-1
 323 354 l 1,38,-1
 315 394 l 1,39,40
 351 409 351 409 410 423 c 128,-1,41
 469 437 469 437 501 437 c 1,42,-1
 521 414 l 1,43,44
 505 372 505 372 505 321 c 2,45,-1
 505 2 l 2,46,47
 505 -69 505 -69 492 -96 c 1,48,49
 460 -147 460 -147 410 -190 c 0,50,51
 388 -209 388 -209 380 -216 c 0,52,53
 329 -260 329 -260 325 -260 c 1,54,-1
 299 -234 l 1,55,56
 359 -169 359 -169 378 -103 c 0,57,58
 385 -80 385 -80 385 -28 c 2,34,-1
350 591 m 128,-1,60
 350 622 350 622 371.5 641 c 128,-1,61
 393 660 393 660 428 660 c 128,-1,62
 463 660 463 660 485 641 c 128,-1,63
 507 622 507 622 507 591 c 128,-1,64
 507 560 507 560 485 541 c 128,-1,65
 463 522 463 522 428 522 c 128,-1,66
 393 522 393 522 371.5 541 c 128,-1,59
 350 560 350 560 350 591 c 128,-1,60
EndSplineSet
EndChar

StartChar: jcircumflex
Encoding: 309 309 194
Width: 272
GlyphClass: 2
Flags: W
LayerCount: 2
Fore
SplineSet
87 -28 m 2,0,-1
 87 326 l 2,1,2
 87 361 87 361 60 361 c 1,3,-1
 25 354 l 1,4,-1
 17 394 l 1,5,6
 53 409 53 409 112 423 c 128,-1,7
 171 437 171 437 203 437 c 1,8,-1
 223 414 l 1,9,10
 207 372 207 372 207 321 c 2,11,-1
 207 2 l 2,12,13
 207 -69 207 -69 194 -96 c 1,14,15
 162 -147 162 -147 112 -190 c 0,16,17
 90 -209 90 -209 82 -216 c 0,18,19
 31 -260 31 -260 27 -260 c 1,20,-1
 1 -234 l 1,21,22
 61 -169 61 -169 80 -103 c 0,23,24
 87 -80 87 -80 87 -28 c 2,0,-1
75 673 m 1,25,26
 108 678 108 678 131 678 c 128,-1,27
 154 678 154 678 181 673 c 1,28,29
 191 664 191 664 225.5 601.5 c 128,-1,30
 260 539 260 539 268 521 c 1,31,-1
 221 494 l 1,32,-1
 128 598 l 1,33,-1
 35 494 l 1,34,-1
 -12 521 l 1,35,36
 -4 539 -4 539 30.5 601.5 c 128,-1,37
 65 664 65 664 75 673 c 1,25,26
EndSplineSet
EndChar

StartChar: Nacute
Encoding: 323 323 195
Width: 764
GlyphClass: 2
Flags: W
LayerCount: 2
Fore
SplineSet
206 87 m 2,0,1
 206 72 206 72 210 64 c 0,2,3
 216 53 216 53 246 46 c 128,-1,4
 276 39 276 39 308 33 c 1,5,-1
 300 -9 l 1,6,7
 231 0 231 0 177 0 c 128,-1,8
 123 0 123 0 51 -9 c 1,9,-1
 43 30 l 1,10,11
 84 37 84 37 105 48 c 1,12,13
 121 55 121 55 121 79 c 2,14,-1
 121 573 l 2,15,16
 121 595 121 595 105 603 c 1,17,-1
 46 621 l 1,18,-1
 53 660 l 1,19,20
 108 650 108 650 160.5 650 c 128,-1,21
 213 650 213 650 269 660 c 1,22,23
 292 620 292 620 331 563 c 2,24,-1
 539 263 l 2,25,26
 554 240 554 240 571 192 c 1,27,-1
 576 196 l 1,28,-1
 576 570 l 2,29,30
 576 592 576 592 559 600 c 0,31,32
 548 606 548 606 492 619 c 1,33,-1
 499 660 l 1,34,35
 576 650 576 650 618.5 650 c 128,-1,36
 661 650 661 650 729 660 c 1,37,-1
 736 621 l 1,38,39
 698 613 698 613 679.5 603.5 c 128,-1,40
 661 594 661 594 661 573 c 2,41,-1
 661 193 l 2,42,43
 661 115 661 115 669 7 c 1,44,-1
 561 -14 l 1,45,46
 524 68 524 68 447 178 c 2,47,-1
 247 464 l 2,48,49
 230 488 230 488 211 529 c 1,50,-1
 206 525 l 1,51,-1
 206 87 l 2,0,1
527 828 m 1,52,-1
 532 799 l 1,53,-1
 342 680 l 1,54,-1
 304 718 l 1,55,56
 318 736 318 736 365 788.5 c 128,-1,57
 412 841 412 841 423 847 c 1,58,59
 471 844 471 844 527 828 c 1,52,-1
EndSplineSet
EndChar

StartChar: nacute
Encoding: 324 324 196
Width: 573
GlyphClass: 2
Flags: W
LayerCount: 2
Fore
SplineSet
217 74 m 2,0,1
 217 44 217 44 274 26 c 1,2,-1
 267 -9 l 1,3,4
 164 0 164 0 151 0 c 128,-1,5
 138 0 138 0 39 -9 c 1,6,-1
 29 27 l 1,7,8
 65 35 65 35 81 45 c 128,-1,9
 97 55 97 55 97 76 c 2,10,-1
 97 326 l 2,11,12
 97 360 97 360 71 360 c 1,13,-1
 25 354 l 1,14,-1
 20 392 l 1,15,16
 53 407 53 407 103 420.5 c 128,-1,17
 153 434 153 434 185 437 c 1,18,-1
 206 414 l 1,19,20
 206 394 206 394 216 366 c 1,21,-1
 249 393 l 2,22,23
 302 437 302 437 346 437 c 0,24,25
 419 437 419 437 456.5 401.5 c 128,-1,26
 494 366 494 366 494 286 c 2,27,-1
 494 76 l 2,28,29
 494 63 494 63 496.5 58 c 128,-1,30
 499 53 499 53 508 48 c 0,31,32
 527 37 527 37 562 27 c 1,33,-1
 554 -9 l 1,34,35
 455 0 455 0 441.5 0 c 128,-1,36
 428 0 428 0 325 -9 c 1,37,-1
 318 26 l 1,38,39
 343 34 343 34 359 45 c 0,40,41
 374 56 374 56 374 74 c 2,42,-1
 374 266 l 2,43,44
 374 316 374 316 358.5 338.5 c 128,-1,45
 343 361 343 361 307.5 361 c 128,-1,46
 272 361 272 361 217 322 c 1,47,-1
 217 74 l 2,0,1
401 685 m 1,48,-1
 414 658 l 1,49,-1
 261 494 l 1,50,-1
 214 521 l 1,51,52
 223 543 223 543 255 605 c 128,-1,53
 287 667 287 667 296 676 c 1,54,55
 339 685 339 685 401 685 c 1,48,-1
EndSplineSet
EndChar

StartChar: OE
Encoding: 338 338 197
Width: 946
GlyphClass: 2
Flags: W
LayerCount: 2
Fore
SplineSet
533 650 m 2,0,-1
 784 650 l 2,1,2
 834 650 834 650 871 656 c 1,3,-1
 871 499 l 1,4,-1
 819 490 l 1,5,6
 805 567 805 567 787 588 c 1,7,-1
 617 588 l 1,8,-1
 617 368 l 1,9,-1
 717 368 l 2,10,11
 742 368 742 368 750 383 c 0,12,13
 756 394 756 394 767 439 c 1,14,-1
 810 433 l 1,15,16
 802 380 802 380 802 335 c 128,-1,17
 802 290 802 290 810 234 c 1,18,-1
 767 228 l 1,19,20
 758 272 758 272 750.5 288.5 c 128,-1,21
 743 305 743 305 717 305 c 2,22,-1
 617 305 l 1,23,-1
 617 63 l 1,24,-1
 797 63 l 1,25,26
 810 74 810 74 827.5 113.5 c 128,-1,27
 845 153 845 153 852 178 c 1,28,-1
 902 170 l 1,29,30
 901 140 901 140 894.5 80 c 128,-1,31
 888 20 888 20 882 0 c 1,32,-1
 533 0 l 2,33,34
 499 0 499 0 436 -7 c 1,35,-1
 435 -8 l 1,36,37
 405 -16 405 -16 373 -16 c 0,38,39
 220 -16 220 -16 130 69.5 c 128,-1,40
 40 155 40 155 40 308.5 c 128,-1,41
 40 462 40 462 129.5 564 c 128,-1,42
 219 666 219 666 368 666 c 0,43,44
 407 666 407 666 435 659 c 1,45,46
 505 650 505 650 533 650 c 2,0,-1
268 90 m 0,47,48
 315 47 315 47 380 47 c 128,-1,49
 445 47 445 47 488 69 c 1,50,-1
 488 565 l 1,51,52
 434 608 434 608 359 608 c 0,53,54
 270 608 270 608 225.5 534.5 c 128,-1,55
 181 461 181 461 181 345 c 0,56,57
 181 170 181 170 268 90 c 0,47,48
EndSplineSet
EndChar

StartChar: oe
Encoding: 339 339 198
Width: 735
GlyphClass: 2
Flags: W
LayerCount: 2
Fore
SplineSet
563 57 m 0,0,1
 626 57 626 57 688 100 c 1,2,-1
 706 73 l 1,3,4
 612 -16 612 -16 523.5 -16 c 128,-1,5
 435 -16 435 -16 378 47 c 1,6,7
 328 -16 328 -16 250 -16 c 0,8,9
 145 -16 145 -16 88 42 c 128,-1,10
 31 100 31 100 31 201.5 c 128,-1,11
 31 303 31 303 91 370 c 128,-1,12
 151 437 151 437 244.5 437 c 128,-1,13
 338 437 338 437 386 373 c 1,14,15
 442 442 442 442 531 442 c 128,-1,16
 620 442 620 442 666.5 386 c 128,-1,17
 713 330 713 330 713 235 c 1,18,-1
 447 215 l 1,19,20
 455 57 455 57 563 57 c 0,0,1
160 219 m 0,21,22
 160 130 160 130 187 82.5 c 128,-1,23
 214 35 214 35 263 35 c 0,24,25
 326 35 326 35 329 185 c 1,26,-1
 329 197 l 2,27,28
 329 288 329 288 304.5 337 c 128,-1,29
 280 386 280 386 235 386 c 0,30,31
 160 386 160 386 160 219 c 0,21,22
568 359 m 128,-1,33
 553 391 553 391 519 391 c 128,-1,34
 485 391 485 391 466 352.5 c 128,-1,35
 447 314 447 314 447 261 c 1,36,-1
 583 280 l 1,37,32
 583 327 583 327 568 359 c 128,-1,33
EndSplineSet
EndChar

StartChar: ycircumflex
Encoding: 375 375 199
Width: 465
GlyphClass: 2
Flags: W
LayerCount: 2
Fore
SplineSet
70 -244 m 2,0,-1
 53 -244 l 1,1,2
 29 -203 29 -203 16 -127 c 1,3,-1
 39 -113 l 1,4,5
 68 -131 68 -131 90 -131 c 0,6,7
 137 -131 137 -131 162 -88 c 1,8,-1
 196 -9 l 1,9,-1
 43 348 l 2,10,11
 31 375 31 375 22 382 c 128,-1,12
 13 389 13 389 -12 392 c 1,13,-1
 -19 429 l 1,14,15
 61 421 61 421 96 421 c 128,-1,16
 131 421 131 421 221 429 c 1,17,-1
 217 394 l 1,18,19
 215 393 215 393 206.5 391 c 128,-1,20
 198 389 198 389 192.5 387.5 c 128,-1,21
 187 386 187 386 180 384 c 0,22,23
 166 378 166 378 166 369 c 0,24,25
 166 362 166 362 170 348 c 1,26,-1
 258 123 l 1,27,-1
 344 352 l 2,28,29
 347 361 347 361 347 369 c 0,30,31
 347 387 347 387 294 393 c 1,32,-1
 292 428 l 1,33,34
 341 421 341 421 374 421 c 128,-1,35
 407 421 407 421 483 428 c 1,36,-1
 476 391 l 1,37,38
 452 390 452 390 442.5 382.5 c 128,-1,39
 433 375 433 375 423 352 c 2,40,-1
 213 -139 l 2,41,42
 168 -244 168 -244 70 -244 c 2,0,-1
188 673 m 1,43,44
 221 678 221 678 244 678 c 128,-1,45
 267 678 267 678 294 673 c 1,46,47
 304 664 304 664 338.5 601.5 c 128,-1,48
 373 539 373 539 381 521 c 1,49,-1
 334 494 l 1,50,-1
 241 598 l 1,51,-1
 148 494 l 1,52,-1
 101 521 l 1,53,54
 109 539 109 539 143.5 601.5 c 128,-1,55
 178 664 178 664 188 673 c 1,43,44
EndSplineSet
EndChar

StartChar: dotlessj
Encoding: 567 567 200
Width: 272
GlyphClass: 2
Flags: W
LayerCount: 2
Fore
SplineSet
87 -28 m 2,0,-1
 87 326 l 2,1,2
 87 361 87 361 60 361 c 1,3,-1
 25 354 l 1,4,-1
 17 394 l 1,5,6
 53 409 53 409 112 423 c 128,-1,7
 171 437 171 437 203 437 c 1,8,-1
 223 414 l 1,9,10
 207 372 207 372 207 321 c 2,11,-1
 207 2 l 2,12,13
 207 -69 207 -69 194 -96 c 1,14,15
 162 -147 162 -147 112 -190 c 0,16,17
 90 -209 90 -209 82 -216 c 0,18,19
 31 -260 31 -260 27 -260 c 1,20,-1
 1 -234 l 1,21,22
 61 -169 61 -169 80 -103 c 0,23,24
 87 -80 87 -80 87 -28 c 2,0,-1
EndSplineSet
EndChar

StartChar: circumflex
Encoding: 710 710 201
Width: 322
GlyphClass: 2
Flags: W
LayerCount: 2
Fore
SplineSet
108 673 m 1,0,1
 141 678 141 678 164 678 c 128,-1,2
 187 678 187 678 214 673 c 1,3,4
 224 664 224 664 258.5 601.5 c 128,-1,5
 293 539 293 539 301 521 c 1,6,-1
 254 494 l 1,7,-1
 161 598 l 1,8,-1
 68 494 l 1,9,-1
 21 521 l 1,10,11
 29 539 29 539 63.5 601.5 c 128,-1,12
 98 664 98 664 108 673 c 1,0,1
EndSplineSet
EndChar

StartChar: caron
Encoding: 711 711 202
Width: 322
GlyphClass: 2
Flags: W
LayerCount: 2
Fore
SplineSet
214 505 m 1,0,1
 187 500 187 500 157.5 500 c 128,-1,2
 128 500 128 500 108 505 c 1,3,4
 98 514 98 514 63.5 576.5 c 128,-1,5
 29 639 29 639 21 657 c 1,6,-1
 68 684 l 1,7,-1
 161 580 l 1,8,-1
 254 684 l 1,9,-1
 301 657 l 1,10,11
 293 639 293 639 258.5 576.5 c 128,-1,12
 224 514 224 514 214 505 c 1,0,1
EndSplineSet
EndChar

StartChar: breve
Encoding: 728 728 203
Width: 322
GlyphClass: 2
Flags: W
LayerCount: 2
Fore
SplineSet
256 546.5 m 128,-1,1
 219 506 219 506 158.5 506 c 128,-1,2
 98 506 98 506 63.5 545.5 c 128,-1,3
 29 585 29 585 29 649 c 1,4,-1
 63 659 l 1,5,6
 78 593 78 593 161 593 c 128,-1,7
 244 593 244 593 259 659 c 1,8,-1
 293 649 l 1,9,0
 293 587 293 587 256 546.5 c 128,-1,1
EndSplineSet
EndChar

StartChar: dotaccent
Encoding: 729 729 204
Width: 285
GlyphClass: 2
Flags: W
LayerCount: 2
Fore
SplineSet
57 591 m 128,-1,1
 57 623 57 623 80 643.5 c 128,-1,2
 103 664 103 664 140 664 c 128,-1,3
 177 664 177 664 200.5 643.5 c 128,-1,4
 224 623 224 623 224 591 c 128,-1,5
 224 559 224 559 200.5 538.5 c 128,-1,6
 177 518 177 518 140 518 c 128,-1,7
 103 518 103 518 80 538.5 c 128,-1,0
 57 559 57 559 57 591 c 128,-1,1
EndSplineSet
EndChar

StartChar: ring
Encoding: 730 730 205
Width: 322
GlyphClass: 2
Flags: W
LayerCount: 2
Fore
SplineSet
120 588 m 128,-1,1
 120 569 120 569 132 556 c 128,-1,2
 144 543 144 543 161 543 c 128,-1,3
 178 543 178 543 190.5 556 c 128,-1,4
 203 569 203 569 203 588 c 128,-1,5
 203 607 203 607 190.5 620 c 128,-1,6
 178 633 178 633 161 633 c 128,-1,7
 144 633 144 633 132 620 c 128,-1,0
 120 607 120 607 120 588 c 128,-1,1
60 588 m 128,-1,9
 60 625 60 625 90 651.5 c 128,-1,10
 120 678 120 678 161 678 c 128,-1,11
 202 678 202 678 232.5 651.5 c 128,-1,12
 263 625 263 625 263 588 c 128,-1,13
 263 551 263 551 232.5 524.5 c 128,-1,14
 202 498 202 498 161 498 c 128,-1,15
 120 498 120 498 90 524.5 c 128,-1,8
 60 551 60 551 60 588 c 128,-1,9
EndSplineSet
EndChar

